<mxfile host="Electron" agent="Mozilla/5.0 (Windows NT 10.0; Win64; x64) AppleWebKit/537.36 (KHTML, like Gecko) draw.io/26.0.16 Chrome/132.0.6834.196 Electron/34.2.0 Safari/537.36" version="26.0.16">
  <diagram name="Page-1" id="QVlhnRmVQnLWPQ521vHG">
    <mxGraphModel dx="1018" dy="764" grid="1" gridSize="10" guides="1" tooltips="1" connect="1" arrows="1" fold="1" page="1" pageScale="1" pageWidth="850" pageHeight="1100" math="0" shadow="0">
      <root>
        <mxCell id="0" />
        <mxCell id="1" parent="0" />
        <mxCell id="zY9HJ-3HHva2QR05nq-e-6" value="i_output" style="swimlane;fontStyle=0;childLayout=stackLayout;horizontal=1;startSize=30;horizontalStack=0;resizeParent=1;resizeParentMax=0;resizeLast=0;collapsible=1;marginBottom=0;whiteSpace=wrap;html=1;" parent="1" vertex="1">
          <mxGeometry x="380" y="650" width="140" height="240" as="geometry" />
        </mxCell>
        <mxCell id="zY9HJ-3HHva2QR05nq-e-8" value="id (text)" style="text;strokeColor=none;fillColor=none;align=left;verticalAlign=middle;spacingLeft=4;spacingRight=4;overflow=hidden;points=[[0,0.5],[1,0.5]];portConstraint=eastwest;rotatable=0;whiteSpace=wrap;html=1;" parent="zY9HJ-3HHva2QR05nq-e-6" vertex="1">
          <mxGeometry y="30" width="140" height="30" as="geometry" />
        </mxCell>
        <mxCell id="zY9HJ-3HHva2QR05nq-e-9" value="time (timestamp with time zone)" style="text;strokeColor=none;fillColor=none;align=left;verticalAlign=middle;spacingLeft=4;spacingRight=4;overflow=hidden;points=[[0,0.5],[1,0.5]];portConstraint=eastwest;rotatable=0;whiteSpace=wrap;html=1;" parent="zY9HJ-3HHva2QR05nq-e-6" vertex="1">
          <mxGeometry y="60" width="140" height="30" as="geometry" />
        </mxCell>
        <mxCell id="zY9HJ-3HHva2QR05nq-e-10" value="result (smallint)" style="text;strokeColor=none;fillColor=none;align=left;verticalAlign=middle;spacingLeft=4;spacingRight=4;overflow=hidden;points=[[0,0.5],[1,0.5]];portConstraint=eastwest;rotatable=0;whiteSpace=wrap;html=1;" parent="zY9HJ-3HHva2QR05nq-e-6" vertex="1">
          <mxGeometry y="90" width="140" height="30" as="geometry" />
        </mxCell>
        <mxCell id="zY9HJ-3HHva2QR05nq-e-11" value="label_id (text)" style="text;strokeColor=none;fillColor=none;align=left;verticalAlign=middle;spacingLeft=4;spacingRight=4;overflow=hidden;points=[[0,0.5],[1,0.5]];portConstraint=eastwest;rotatable=0;whiteSpace=wrap;html=1;" parent="zY9HJ-3HHva2QR05nq-e-6" vertex="1">
          <mxGeometry y="120" width="140" height="30" as="geometry" />
        </mxCell>
        <mxCell id="zY9HJ-3HHva2QR05nq-e-13" value="pack_id (text)" style="text;strokeColor=none;fillColor=none;align=left;verticalAlign=middle;spacingLeft=4;spacingRight=4;overflow=hidden;points=[[0,0.5],[1,0.5]];portConstraint=eastwest;rotatable=0;whiteSpace=wrap;html=1;" parent="zY9HJ-3HHva2QR05nq-e-6" vertex="1">
          <mxGeometry y="150" width="140" height="30" as="geometry" />
        </mxCell>
        <mxCell id="zY9HJ-3HHva2QR05nq-e-14" value="pack_order(smallint)" style="text;strokeColor=none;fillColor=none;align=left;verticalAlign=middle;spacingLeft=4;spacingRight=4;overflow=hidden;points=[[0,0.5],[1,0.5]];portConstraint=eastwest;rotatable=0;whiteSpace=wrap;html=1;" parent="zY9HJ-3HHva2QR05nq-e-6" vertex="1">
          <mxGeometry y="180" width="140" height="30" as="geometry" />
        </mxCell>
        <mxCell id="zY9HJ-3HHva2QR05nq-e-15" value="pack_time(real)" style="text;strokeColor=none;fillColor=none;align=left;verticalAlign=middle;spacingLeft=4;spacingRight=4;overflow=hidden;points=[[0,0.5],[1,0.5]];portConstraint=eastwest;rotatable=0;whiteSpace=wrap;html=1;" parent="zY9HJ-3HHva2QR05nq-e-6" vertex="1">
          <mxGeometry y="210" width="140" height="30" as="geometry" />
        </mxCell>
        <mxCell id="zY9HJ-3HHva2QR05nq-e-16" value="i_klippel" style="swimlane;fontStyle=0;childLayout=stackLayout;horizontal=1;startSize=30;horizontalStack=0;resizeParent=1;resizeParentMax=0;resizeLast=0;collapsible=1;marginBottom=0;whiteSpace=wrap;html=1;" parent="1" vertex="1">
          <mxGeometry x="210" y="650" width="140" height="300" as="geometry" />
        </mxCell>
        <mxCell id="zY9HJ-3HHva2QR05nq-e-17" value="id (text)" style="text;strokeColor=none;fillColor=none;align=left;verticalAlign=middle;spacingLeft=4;spacingRight=4;overflow=hidden;points=[[0,0.5],[1,0.5]];portConstraint=eastwest;rotatable=0;whiteSpace=wrap;html=1;" parent="zY9HJ-3HHva2QR05nq-e-16" vertex="1">
          <mxGeometry y="30" width="140" height="30" as="geometry" />
        </mxCell>
        <mxCell id="zY9HJ-3HHva2QR05nq-e-18" value="time (timestamp with time zone)" style="text;strokeColor=none;fillColor=none;align=left;verticalAlign=middle;spacingLeft=4;spacingRight=4;overflow=hidden;points=[[0,0.5],[1,0.5]];portConstraint=eastwest;rotatable=0;whiteSpace=wrap;html=1;" parent="zY9HJ-3HHva2QR05nq-e-16" vertex="1">
          <mxGeometry y="60" width="140" height="30" as="geometry" />
        </mxCell>
        <mxCell id="zY9HJ-3HHva2QR05nq-e-19" value="result (boolean)" style="text;strokeColor=none;fillColor=none;align=left;verticalAlign=middle;spacingLeft=4;spacingRight=4;overflow=hidden;points=[[0,0.5],[1,0.5]];portConstraint=eastwest;rotatable=0;whiteSpace=wrap;html=1;" parent="zY9HJ-3HHva2QR05nq-e-16" vertex="1">
          <mxGeometry y="90" width="140" height="30" as="geometry" />
        </mxCell>
        <mxCell id="zY9HJ-3HHva2QR05nq-e-20" value="spl (boolean)" style="text;strokeColor=none;fillColor=none;align=left;verticalAlign=middle;spacingLeft=4;spacingRight=4;overflow=hidden;points=[[0,0.5],[1,0.5]];portConstraint=eastwest;rotatable=0;whiteSpace=wrap;html=1;" parent="zY9HJ-3HHva2QR05nq-e-16" vertex="1">
          <mxGeometry y="120" width="140" height="30" as="geometry" />
        </mxCell>
        <mxCell id="zY9HJ-3HHva2QR05nq-e-21" value="imp (boolean)" style="text;strokeColor=none;fillColor=none;align=left;verticalAlign=middle;spacingLeft=4;spacingRight=4;overflow=hidden;points=[[0,0.5],[1,0.5]];portConstraint=eastwest;rotatable=0;whiteSpace=wrap;html=1;" parent="zY9HJ-3HHva2QR05nq-e-16" vertex="1">
          <mxGeometry y="150" width="140" height="30" as="geometry" />
        </mxCell>
        <mxCell id="zY9HJ-3HHva2QR05nq-e-22" value="rbzharm (boolean)" style="text;strokeColor=none;fillColor=none;align=left;verticalAlign=middle;spacingLeft=4;spacingRight=4;overflow=hidden;points=[[0,0.5],[1,0.5]];portConstraint=eastwest;rotatable=0;whiteSpace=wrap;html=1;" parent="zY9HJ-3HHva2QR05nq-e-16" vertex="1">
          <mxGeometry y="180" width="140" height="30" as="geometry" />
        </mxCell>
        <mxCell id="zY9HJ-3HHva2QR05nq-e-23" value="pol&lt;span style=&quot;background-color: transparent; color: light-dark(rgb(0, 0, 0), rgb(255, 255, 255));&quot;&gt;&amp;nbsp;(boolean)&lt;/span&gt;" style="text;strokeColor=none;fillColor=none;align=left;verticalAlign=middle;spacingLeft=4;spacingRight=4;overflow=hidden;points=[[0,0.5],[1,0.5]];portConstraint=eastwest;rotatable=0;whiteSpace=wrap;html=1;" parent="zY9HJ-3HHva2QR05nq-e-16" vertex="1">
          <mxGeometry y="210" width="140" height="30" as="geometry" />
        </mxCell>
        <mxCell id="zY9HJ-3HHva2QR05nq-e-24" value="&lt;span style=&quot;background-color: transparent; color: light-dark(rgb(0, 0, 0), rgb(255, 255, 255));&quot;&gt;ts (boolean)&lt;/span&gt;" style="text;strokeColor=none;fillColor=none;align=left;verticalAlign=middle;spacingLeft=4;spacingRight=4;overflow=hidden;points=[[0,0.5],[1,0.5]];portConstraint=eastwest;rotatable=0;whiteSpace=wrap;html=1;" parent="zY9HJ-3HHva2QR05nq-e-16" vertex="1">
          <mxGeometry y="240" width="140" height="30" as="geometry" />
        </mxCell>
        <mxCell id="zY9HJ-3HHva2QR05nq-e-25" value="&lt;span style=&quot;background-color: transparent; color: light-dark(rgb(0, 0, 0), rgb(255, 255, 255));&quot;&gt;count_test (text&lt;/span&gt;&lt;span style=&quot;background-color: transparent; color: light-dark(rgb(0, 0, 0), rgb(255, 255, 255));&quot;&gt;)&lt;/span&gt;" style="text;strokeColor=none;fillColor=none;align=left;verticalAlign=middle;spacingLeft=4;spacingRight=4;overflow=hidden;points=[[0,0.5],[1,0.5]];portConstraint=eastwest;rotatable=0;whiteSpace=wrap;html=1;" parent="zY9HJ-3HHva2QR05nq-e-16" vertex="1">
          <mxGeometry y="270" width="140" height="30" as="geometry" />
        </mxCell>
        <mxCell id="1JfmofEvbFweEZ4uP-uk-1" value="glovia_info" style="swimlane;fontStyle=0;childLayout=stackLayout;horizontal=1;startSize=30;horizontalStack=0;resizeParent=1;resizeParentMax=0;resizeLast=0;collapsible=1;marginBottom=0;whiteSpace=wrap;html=1;" parent="1" vertex="1">
          <mxGeometry x="50" y="650" width="140" height="450" as="geometry" />
        </mxCell>
        <mxCell id="1JfmofEvbFweEZ4uP-uk-2" value="serial" style="text;strokeColor=none;fillColor=none;align=left;verticalAlign=middle;spacingLeft=4;spacingRight=4;overflow=hidden;points=[[0,0.5],[1,0.5]];portConstraint=eastwest;rotatable=0;whiteSpace=wrap;html=1;" parent="1JfmofEvbFweEZ4uP-uk-1" vertex="1">
          <mxGeometry y="30" width="140" height="30" as="geometry" />
        </mxCell>
        <mxCell id="1JfmofEvbFweEZ4uP-uk-3" value="en_wo" style="text;strokeColor=none;fillColor=none;align=left;verticalAlign=middle;spacingLeft=4;spacingRight=4;overflow=hidden;points=[[0,0.5],[1,0.5]];portConstraint=eastwest;rotatable=0;whiteSpace=wrap;html=1;" parent="1JfmofEvbFweEZ4uP-uk-1" vertex="1">
          <mxGeometry y="60" width="140" height="30" as="geometry" />
        </mxCell>
        <mxCell id="1JfmofEvbFweEZ4uP-uk-4" value="time" style="text;strokeColor=none;fillColor=none;align=left;verticalAlign=middle;spacingLeft=4;spacingRight=4;overflow=hidden;points=[[0,0.5],[1,0.5]];portConstraint=eastwest;rotatable=0;whiteSpace=wrap;html=1;" parent="1JfmofEvbFweEZ4uP-uk-1" vertex="1">
          <mxGeometry y="90" width="140" height="30" as="geometry" />
        </mxCell>
        <mxCell id="1JfmofEvbFweEZ4uP-uk-5" value="wo" style="text;strokeColor=none;fillColor=none;align=left;verticalAlign=middle;spacingLeft=4;spacingRight=4;overflow=hidden;points=[[0,0.5],[1,0.5]];portConstraint=eastwest;rotatable=0;whiteSpace=wrap;html=1;" parent="1JfmofEvbFweEZ4uP-uk-1" vertex="1">
          <mxGeometry y="120" width="140" height="30" as="geometry" />
        </mxCell>
        <mxCell id="1JfmofEvbFweEZ4uP-uk-6" value="line_wo" style="text;strokeColor=none;fillColor=none;align=left;verticalAlign=middle;spacingLeft=4;spacingRight=4;overflow=hidden;points=[[0,0.5],[1,0.5]];portConstraint=eastwest;rotatable=0;whiteSpace=wrap;html=1;" parent="1JfmofEvbFweEZ4uP-uk-1" vertex="1">
          <mxGeometry y="150" width="140" height="30" as="geometry" />
        </mxCell>
        <mxCell id="1JfmofEvbFweEZ4uP-uk-7" value="ser_wo" style="text;strokeColor=none;fillColor=none;align=left;verticalAlign=middle;spacingLeft=4;spacingRight=4;overflow=hidden;points=[[0,0.5],[1,0.5]];portConstraint=eastwest;rotatable=0;whiteSpace=wrap;html=1;" parent="1JfmofEvbFweEZ4uP-uk-1" vertex="1">
          <mxGeometry y="180" width="140" height="30" as="geometry" />
        </mxCell>
        <mxCell id="1JfmofEvbFweEZ4uP-uk-8" value="sys_wo" style="text;strokeColor=none;fillColor=none;align=left;verticalAlign=middle;spacingLeft=4;spacingRight=4;overflow=hidden;points=[[0,0.5],[1,0.5]];portConstraint=eastwest;rotatable=0;whiteSpace=wrap;html=1;" parent="1JfmofEvbFweEZ4uP-uk-1" vertex="1">
          <mxGeometry y="210" width="140" height="30" as="geometry" />
        </mxCell>
        <mxCell id="1JfmofEvbFweEZ4uP-uk-9" value="factory" style="text;strokeColor=none;fillColor=none;align=left;verticalAlign=middle;spacingLeft=4;spacingRight=4;overflow=hidden;points=[[0,0.5],[1,0.5]];portConstraint=eastwest;rotatable=0;whiteSpace=wrap;html=1;" parent="1JfmofEvbFweEZ4uP-uk-1" vertex="1">
          <mxGeometry y="240" width="140" height="30" as="geometry" />
        </mxCell>
        <mxCell id="1JfmofEvbFweEZ4uP-uk-10" value="line_id" style="text;strokeColor=none;fillColor=none;align=left;verticalAlign=middle;spacingLeft=4;spacingRight=4;overflow=hidden;points=[[0,0.5],[1,0.5]];portConstraint=eastwest;rotatable=0;whiteSpace=wrap;html=1;" parent="1JfmofEvbFweEZ4uP-uk-1" vertex="1">
          <mxGeometry y="270" width="140" height="30" as="geometry" />
        </mxCell>
        <mxCell id="1JfmofEvbFweEZ4uP-uk-11" value="model" style="text;strokeColor=none;fillColor=none;align=left;verticalAlign=middle;spacingLeft=4;spacingRight=4;overflow=hidden;points=[[0,0.5],[1,0.5]];portConstraint=eastwest;rotatable=0;whiteSpace=wrap;html=1;" parent="1JfmofEvbFweEZ4uP-uk-1" vertex="1">
          <mxGeometry y="300" width="140" height="30" as="geometry" />
        </mxCell>
        <mxCell id="1JfmofEvbFweEZ4uP-uk-12" value="order_qty" style="text;strokeColor=none;fillColor=none;align=left;verticalAlign=middle;spacingLeft=4;spacingRight=4;overflow=hidden;points=[[0,0.5],[1,0.5]];portConstraint=eastwest;rotatable=0;whiteSpace=wrap;html=1;" parent="1JfmofEvbFweEZ4uP-uk-1" vertex="1">
          <mxGeometry y="330" width="140" height="30" as="geometry" />
        </mxCell>
        <mxCell id="1JfmofEvbFweEZ4uP-uk-13" value="startdate" style="text;strokeColor=none;fillColor=none;align=left;verticalAlign=middle;spacingLeft=4;spacingRight=4;overflow=hidden;points=[[0,0.5],[1,0.5]];portConstraint=eastwest;rotatable=0;whiteSpace=wrap;html=1;" parent="1JfmofEvbFweEZ4uP-uk-1" vertex="1">
          <mxGeometry y="360" width="140" height="30" as="geometry" />
        </mxCell>
        <mxCell id="1JfmofEvbFweEZ4uP-uk-14" value="duedate" style="text;strokeColor=none;fillColor=none;align=left;verticalAlign=middle;spacingLeft=4;spacingRight=4;overflow=hidden;points=[[0,0.5],[1,0.5]];portConstraint=eastwest;rotatable=0;whiteSpace=wrap;html=1;" parent="1JfmofEvbFweEZ4uP-uk-1" vertex="1">
          <mxGeometry y="390" width="140" height="30" as="geometry" />
        </mxCell>
        <mxCell id="1JfmofEvbFweEZ4uP-uk-15" value="description" style="text;strokeColor=none;fillColor=none;align=left;verticalAlign=middle;spacingLeft=4;spacingRight=4;overflow=hidden;points=[[0,0.5],[1,0.5]];portConstraint=eastwest;rotatable=0;whiteSpace=wrap;html=1;" parent="1JfmofEvbFweEZ4uP-uk-1" vertex="1">
          <mxGeometry y="420" width="140" height="30" as="geometry" />
        </mxCell>
        <mxCell id="1JfmofEvbFweEZ4uP-uk-16" value="" style="shape=image;verticalLabelPosition=bottom;labelBackgroundColor=default;verticalAlign=top;aspect=fixed;imageAspect=0;image=data:image/png,iVBORw0KGgoAAAANSUhEUgAABHUAAAEpCAYAAAAd5h4GAAAAAXNSR0IArs4c6QAAAARnQU1BAACxjwv8YQUAAAAJcEhZcwAADsMAAA7DAcdvqGQAAP+lSURBVHhe7N0HvGRFmffxdt2krq8uumtY15xzDigIKhhQARUDShhFQXKWpAgKChIERBQQkCRBogRBRRTFLIKYQRez4qoY0BW13/ut6edSc+acDnfuzNw78/w+n57p7nv6hDp1qp7nX089dZv+FL0kSZIkSZIkSZIkSZJkTvHmN7+59/a3v723YMGC3nHHHTf49lb+YfB/kiRJkiRJkiRJkiRJMo9IUSdJkiRJkiRJkiRJkmQekqJOkiRJkiRJkiRJkiTJPCRFnSRJev/7v//b+/3vfz/4lKyM3HTTTb1f//rXg09JkiRJkiRJkswHUtRJkpWcm2++uXf66af3/vznPw++SVZGbrnllt7ee++d9SBJkiRJkiRJ5hEp6iTJSs53vvOd3u1vf/veXe9618E3ycqI+/+a17ymd8ghhwy+SZIkSZIkSZJkrjP2kuY//OEPe1/72td6t73tbXt///vfe0984hN797jHPQZ/Xcjf/va33jXXXNP76U9/Wrb513/9195qq61W/g9+8YtflO3uec97Dr65leuuu644Fne+853L509+8pMligB//OMfe7e73e16//AP/9D7x3/8x97jHve43n/+53+Wvzm3r3zlK71//ud/Lp9rHvSgB/Ue/OAHl/ff+ta3ynHvdKc7lc+BEeof/ehHvfvd736929zmNuW96whMSVhllVXKe9eyxhprlHLAX/7yl961115bzuGf/umfyuf//u//7j3ykY9c5Lonwfl8/vOf7/3mN78px7njHe/Ye/KTn7zY/i655JLeX//618GnW1GGyqetPIZx2WWX9f70pz+V90brlbOX63rSk57U+/d///fyvWuNMm1y1VVXlWNDuX3hC18odaHJAx7wgN5DH/rQwafJuP7660uZOzfl/YxnPKP3H//xH4O/LkTkyb/9278NPi2sm87/qU99armemfLjH/+496UvfamUrfukXP7rv/5r8Ndb+e53v9v79re/Xe6fOuv+3eUudxn8tVfK5Jxzzpm+p87P82R/Tb73ve/1vvGNb7Set3p2n/vcZ/BpZlgeb4MNNug95CEPGXyzkF/+8pfluarvn2uOe1efj/vuuYnnIvD5MY95zGJtBa6++urewx72sNZ6qq1Rz/xeE+Ved+1nHNTriy++uPcv//Ivg28WXov24FGPelRpWwLthPvnmDXaBudQ32/XbHvPRVy7e13XR/XAcf7f//t/g29uRV3WXiiD//u//yvXrM0axbC28fGPf/xix//+978/fR89F56DrvZp11137e244469u9/97oNvkiRJkiRJkiRZXszKkuac8wMOOKA4pZwqzskZZ5xRRIcazs3ll19exBZODCflTW960+CvC/n617/eO+iggwafFoWjwvkIOCaO5/XFL36xOD7e3+1ud1vEOSOAOMfYtn4RRIITTzyx99GPfnTw6VY4RQSNcHo4SPU+jj766On3ro1zF1x66aXl3Fyvv3P4XOPHP/7x4ozOhBNOOKE4lbFPjp7zboojnNQ4r/pFgOLgTYpri30Q2AhG3ivvcLzdc2JSFx/84AcH73q9G264obxin/Wrvi+TwAl+//vfXwQa+yHQnXzyySUnTI1t6uMpS4LMu971rsEWk0OQVIeIjvbpHI455phyf2puvPHG3gc+8IHp+qu+nHLKKUW4CdzLT3/609PnZ1tChv03+djHPlbqaGxbv0TYLAnuD8GDUNOEmOSa6+Nx9D3jX/3qVwdbLUSdUOfqbWP7NvFA3XIviH5tqNvKLfaj/mmDZprzRfkRqOpzUycIHhdddNEiz+qFF15YRJp6Wy/XUos/P/vZz0p9d93xrDrn0047reSnCVxLs44E2p0//OEP5f2oZ6umbhuJjNpD75tt4ze/+c3S8N/hDneYvgb3VP3s4nnPe14pqyRJkiRJkiRJ5gEidYYx5Yj299xzz/4Xv/jFwTcLmXJc+uedd97gU78/5aT1d9111/6UozP4ZiEHH3xw/+yzzx586vc/+tGP9tdaa63+d77zncE3t3LUUUf1p5y8wadFOfTQQ/s/+clPBp8W5dRTT+1POciDT93ssssu/R122KH/u9/9bvDNQv73f/+3HPuWW24ZfLMo66yzzuDdovzqV7/qTzma/SlHc/DNQn7729/23/72t/dvvvnmwTfj8+Uvf7l/0EEHDT4txPnuu+++5Txr9tprr8G72ef000/vTzmEg0+38uMf/7jc0y622GKLwbt+f8ox7F9wwQWDT0vOX/7yl/4+++xTzqHmM5/5TKmPNS984QsH7xblyCOPLOc1KX//+9/7J554Yv9Tn/rU4JuFqO+HHHJI/89//nP57DnYbLPN+tdcc035HLz73e/uX3755YNP/VLX9ttvv8GnW3nrW9/a/+pXvzr4tJDDDjus1IulgTp05ZVXDj4timfqsssuG3y6FfVwt912G3xaiOfgBz/4weDTaK6//vqyj0033XTwzaK84x3vKNvU/PSnP+1vs802nc/pMDyr7n0Tz67v6zbBsa+++urBp3a0i8cff3xr2Z188sn9T3ziE4NP/f6BBx7Yv+qqqwafFsWxnRtcn3ZuUtSPZruLP/3pT/03vvGN/Ztuumnwza047sc//vHBp0W54YYbSn31vCVJkiRJkiRJsnzhs5FuFixYMPhmUUaGcxjJFsHRnBby4he/uHfeeeeVEXCIljGNoBmyL4zf1Iwpp2nwTa+38cYbl7wNbVOHliYiWIy0Tzmfg2+WDNduZFzERo3okde//vWLjJiPg0gOERAvfelLB98sRFTLqquuWqbrrMyY1icSKqbdBaabmI41Dk95ylNKtM+kmKojkuLhD3/44JuFmOomCkL0A0RNmM7jVbPZZpv1Dj744OkpM11sueWWvSuuuGKZPBvqr7J42tOeNvhmPDxHzSi9SfnJT37Se/rTn16mL8WUv1GINHGuyni28KyKKBz3HALPqulnbVPvXv7yl5dpZcub3/72t2WaXNu0L/VMe92GclYmM42KSpIkSZIkSZJk2TFS1Pmf//mf4gg3IY5sv/3203k1zjzzzN7zn//88r4JR5jzFsjdIX8NIWhZIt/Ec5/73N573/vewTdLhv1xfjj8TQgPk06B4vBzFtumJnGA26aOrUxwUuUDaeaWURdNiTJdaBSmEE7qwMN9IUxGbqVAHXjBC14wncOEgEnwbEL4kYdq1Dm6FlON6uk7SwvT0QhiMyGm480UU9Q8I+uss85iU7mGQaTomso0EzyjyryeUjkOftfv91tXilI/CSPLG2LOMAGzKy+W8zcdzxTQJEmSJEmSJEnmNiNVBxEDXQk1RSNw7ji8crC05eUAB6eZ8+SNb3xjyc1BFFmW3Pe+9y35L0RDLCnEF7lRZmtEO0SdtpF194Dj2SYgrSwQGJuRYIHEr+eee+7gUzdyjMxklacvf/nLpe60CXX3ute9ijDg/qkPbfcPa6+99siIohB1CFhLG+UZSa0nQR2diTBWI1LHc7jeeuuVsh0X4p0Io9l6DuynjiIcF0mR6wituYh8S6Jx5GqaFAm4tc9JkiRJkiRJksxthoo6nDdJPLuc1ICD9uhHP3rwaTw4HBz02Rx1H5ftttuuRBYtqaAkakQUkuS2kjwv6f6UN2exGYkSENGIZysrRIh73/veg0+L8tjHPrYkHu6COEk8kNR6JtEpn/vc53qPeMQjBp/a8awQ3wgzbTjHOhF4G+5/CKVLG9PZxllpqcZ5XXDBBUVEWxJ+/vOfl6mLpi8pN6uYjYPpUoSY2RJ1PvOZz5Tpk6PauDasuiba0PMvafJcxBLlzu/888+fnio7DtrnmYhdSZIkSZIkSZIsWyabH9QBB2vS1YxMWzENi7M8G+y///69TTfdtLzkixgmFnEMOdhLusKLyBnTol71qlcVwWGnnXYaawpQF/anXLqQo6d2fp1/XLPXsprOJsqpPm79anL88ccv8vff//73g79MjiiYrmk/oibqqTCiE+rjbrTRRr1PfepTpW50RfsMg2A3aqUp50eQ65rKQ/AZR7wg7DT38da3vnX6Wvbcc88yfWlJIXSNmkZlqmJdjuo6EUbemBqReDvvvPP0dlaM67pWOXGIc8rKtZq6Nq4o4vnwG1OfJsG1Ejfqa7GMu6Xi11133cXyX1k2MLZ729ve1ppDyHlvvvnmRRh7xzveUer6XENd33333Ut5qfvjrq4liiqnXyVJkiRJkiTJ3GdWRJ2ZYrSfqDMb+UP22GOPshS4F0e0K6IjMMpu6fElTUjLwTT9xprxlm8//PDDy3LBsUzx0uQJT3jC9DV7LWn0xListtpqixy3fjVRLvXfZ7qU+aQQ7eKYxIa11lqrJO1uJlmeLxB14nr222+/6Rw+SxtCQBxX2RFrXv3qVy92H+UqOuigg6a3fcMb3tApGFnyW+JveH78VuTO0oQYJEF7nN+aa67Ze8tb3tLbeuutW+sEISe2JfA0k6EHInwkb3btIrS23Xbbklx+UtFpaaKuEK6OOuqocm4EqFGioPsyW9FQSZIkSZIkSZIsPWZN1JnJ1CMj9a997WtLlM2y5j73uU8ZfZ/NFV7krzjiiCPKvs8666yJBSOO4JKKTCsyImG6piUNi4AhuhEOlzRPzThO7mzcP9c4l0SBQJQOIWRJUIYiyiQ8DuQ4MhVsHNSB2ShjwuRsRtYQsF75yleWKCrT05a2SDUTRJoRnSSLP+6443J6VZIkSZIkSZKsAAwVdWJlmFHLMBMxJlnBpsaKQJztZZ1bx3QLI+wnn3zy4JvZQxSA1b4mFbpMueGwclzbMN1qLiyVvLwgznQ5/6bRtK3SBtPtvG644YbBN5MjD8+o6SgxBaxtRSR84QtfKFMOh+HeEz66pnAtT0Q/mT73gx/8YPDN5HzrW98qUSJyvbziFa8or3e9611jr+xGiBB105V3alysvqd9E603m8gTJMnwsl7Zb1zUK8mxtdkr+2p6SZIkSZIkSbIiMFTU4QAYge4SdSRIFiHByRLi37USjIiYrkSkjrHNNtuU0e1lkRy25pnPfGZxtGdbUDJ1oStZ7jCMpCvLthF0Yg9nf1QOlBUZgkgtzNTi12WXXVbyn7Shjq2++uq9Cy+8cPDN5BDqCEdtETTyyRDwTEny964ICIma73//+w8+tWNVKc8UEWppQ9SY5JlTjqYifeQjH+kUHkfhefvQhz7UO/3006dfnn31ehwRVGQd8WxJnwPXYrqk6WSz3e6op7UAqO3rakM91575ZYlrt+z+sOdBpFHXaoZJkiRJkiRJkswdRk6/MvLcNppNYNh3332np6S87GUv61188cXlfZNrrrlmaI4bji7nZnksDyx3hqkIM3HsOPBx/bMBZ5Ug1JZjSJROVyTKykI4xzH9hsBz9tlnFxGEsPLABz6wfN+GyAyr/6iLM8F9sdpZ896oN0SJX/7yl+Xzgx/84NZVuJyj7URxDIOoQ9zoyuEymxBiJxU0rVblmmcyvcizItKqbRl1K7uNE90iIbkkvrOB6xexMtM6MSyqrsZUr66k7OrT0hTwuoSyUUm/ndd8zT+VJEmSJEmSJCsTI0UdDti1115bonJqrIAkMS8hAmuvvXZxypoJgoX4c8JWWWWVwTeLw8GwzZJMj5kpnHAO9EyO/atf/aokRW4uFcyRmkmiZCP2xK+mc2t/lkyXf2hl5h73uEephzG9SQ4jSXflLxom6IAoI3mvnEczwXQf9YSoUCNyRCRaiDAiei666KLFBEpLSptyNGrpbL9VJ5d0etE4EFOtEjYJpi0Sdq6//vrBN+Nj2pX8OSJFmoiaO/fccwef2jH162Mf+1jvSU960uCbJef5z39+WY1r0sgj24s4+s53vjP45lZE6ZgqGMgfZLtmm+D3o6bjLQnapa4cSNrlYUv7u7+zWc5JkiRJkiRJkiwdRoo6nOGtttqqrJgiYoexb2T7qquu6r3gBS8YbLVwOysdnXTSSWVZ7+uuu6535ZVX9k499dTizI7C9Bj5NmYKZ9+5NV8iOEbBoZzJEtFW7THlhoMUZWOKDsfcMseWsJ4USUyV3XnnnVfK0T7tnyO9LKI3ZhvlWt+PeBHEJsWUNuLhYYcdVsQIQtx2221XIq3GWfnrvve9bxHNZrJUs6lKlq8nKoi6cA3u+RlnnNFbY401ShQPCHOmKDnHb37zm2U7ogGnXv6YGoJQlIdtRfIQg573vOcNtriVH//4x9Pb1q+2qK5xIaR2RZAMQ1k3o5FErbgfzfP7/ve/Py1meEYJc22iTkxZisgS0UCiiOzDc+A8DzzwwN4OO+wwMspkEgiDjtlcar+rvGNqnfrw5Cc/uUxFM6UsnlVitzbAcxzYlnh05plnFoHcClSeads1l4Z3Hs1jerUtqT4KgrvnRdst55l2xXl+4hOfKOXp2WmDYOVerMz5u5IkSZIkSZJkvnDbt1oreQSibIgKnNif/exnZeoFIcTUhdpBE65vmgmHgFNkpHiLLbZYJDpBBAIxJJzggAMicoAj0ea0yaFh9LstgoEjzfEhFJjeUb/sN6YR2AenvpmPQ/SAa7H/NofTubaNqNvWOXPEJUbmtCob5cXRn0leHUgeLSKEQ6y8RUdYkrtZLvbPKV0aOKbpKc1rUNbKtGsKjL+Z6gTlwzF3Dc37QvAytW9S1EN1QB2zX9OeRLZwRP0fENva7lnU2ZkIZOqtuswxd5/VcY69BMI1ys3xCTXOkUO+zjrrLBat5v4SdpSH7dzfDTfcsAikNa5XcmICWbMcXcewKLhhuLdEKrlTPANNHNe+m9FFrs1zXudcIeq4156F+vx8Vm6mGCl3z+Kd73znwa8WheAT99f9JBLF/ogpz3rWs2Yc2UJYUTebdU5boE77PtoW/3v+1K36Wtwj5RTn7722wXXb3t9NDxSt5TrqtsRnfyOs2M4xRN7V99p7x/T3+rheyk85tjGsbdQ+mSaqffKyb4LZBhts0Nk+OQei6bOf/exSNkmSJEmSJEmSLD/M2jGobhbVuuuuO/j2Vm4zZfCPvXayTWNzTlIXMZWBU1M7NkuTOGaTZXUO45bNJMQ1zdb+lgdL677U5c1Z3meffcoqSsuCce/1qOegWTbj7KvJkpYjoVa0yR577DH4ZmbUZdJkJufY3N+SXuekTFresf2oZzWuq2u75nUHS3r99X5H7UsUDxFRnrQkSZIkSZIkSZYvZoK8/e1vLzOjzFJpMpFawBHgjIxyXGKbJXFCJiWO2Xwtq3MYt2wmYbb3tzyIa2i+lvS+1OUtWkIlX1aMe69jm65rjb/HaxjNbeO1pOUoQbFIombOrEmpy6T5msk5Nve3pNc5KfWx61fXecTfRxHX1UXzuuO1pNdf73fUvi655JLeYx7zmMGnJEmSJEmSJEnmMvNbMUiSAaaLJTNDbizJudsiRJKVC7mfTJvN5cyTJEmSJEmSZH6Qok6SrOQ84QlPKLleZrJiW7LiQNTbZpttervvvnuJ6EmSJEmSJEmSZO6TlnuSrORIhPyMZzxjemWnZOVEHh3zdZtJ7JMkSZIkSZIkmbukqJMkSVmu3QpNycqLlbJWW221wackSZIkSZIkSeYDKeokSZIkSZIkSZIkSZLMQ1LUSZIkSZIkSZIkSZIkmYekqJMkSZIkSZIkSZIkSTIPSVEnSZIkSZIkSZIkSZJkHpKiTpIkSZIkSZIkSZIkyTzkNv0pBu+TpCxrfN/73rd3m9vcZvBNO9dff33vXve6V+9f/uVfer/5zW96f//733t3uctdBn9t5/vf/35ZYQfXXXdd74EPfGB5P4xf//rX5f9VVlml94c//KH3pz/9qfcf//Ef5bsufvzjH/fufOc7l6WZb7755t7Pf/7z6eN28fvf/773f//3f7273vWu5Th+95//+Z+Dv3Zz7bXX9h75yEeW98rh3HPP7f3lL38pn+EcXvKSl/Rud7vbDb5ZFNdz4oknDj4txG9e+MIX9u50pzsNvlkU5+Z8nV/XffrVr35V7s0d73jHwTe93te//vXeox71qMGndr773e/2HvzgBw8+Lc5VV13Vu+c971mWQe+6pmRxon796Ec/6j3ucY8bfLs47u1JJ500+NTO0572tN6jH/3owadF+eY3v9m74ooryvv73e9+vWc961m9f/zHfyyfu7jssst63/ve98p7dW/99dfv3f72ty+fa2644Ybexz/+8d5f//rXwTeLow14/vOf37vDHe4w+GZhm3LppZcOPi2OOvyiF72od4973KN8/u1vf9u75JJLyv81//zP/1z2ffe7333wTTeeRfvV5jz+8Y8ffDuav/3tb+W32pt/+IfuMY9rrrmm97nPfW7waVGU3Qte8IJF2kPn8bGPfWzwqR3P+ytf+crBp0XRpijDX/ziF73VV1+996AHPWjwl+F86Utf6n31q1/tPfnJTx5a7yaF2aA+6Cu6+POf/1zKMu5rGzfddFMpc+XdhX189KMf7f3ud78bfLM4T3ziE8t9bmsPnesZZ5xR6tO66647Vv3xrF544YWl/3nqU5/ae8QjHjGyT9TmnnXWWeX9v/7rv/bWWWed0p80+eUvf9m74IILerfccsvgm1t58YtfPLS8lhTHVJ5dfZt+XL3Wrw3DaonR7zXRPqinjtO1zbh9rP7xJz/5ybStME4fVveP6kyzfqkP7pXvbnvb2w6+XXjPfa+M2Bh1G4Y2m8X5adOjz/za177We+xjH1vet/HHP/6xHOM+97lP+ezcfvazn5U+tau98Yw4p7ou1fZXF82+vLa/uvjWt77Ve9jDHjb4tDg//OEPSzvl/rWtluk83a9h7ULw7W9/u/fQhz60vP+f//mfsr9/+qd/Kp+7+M53vtN7yEMeUt6POtdAees72CzqJP793/+9/N+F84k6oP+6293u1ton1mgr3EO2p2M27a821If//d//7d373vcun9WFiy++eJG2QbmwB7vQDmsfa9SNtddee2R5Buqwc/Xc/Pd///fg29GM08Y3+exnP1valzXXXHOorRn89Kc/LX2nPnCDDTYo5ZskKytvfvObe29/+9t7CxYs6B133HGDb28lI3WSRdChcKiGQTRRsQKd+KmnnjrU2dMwn3DCCYNPCzv0d7zjHcWI7EKHt8suuxQjDI7zoQ99aJEOrwkj7sADD5z+DSNgr732Ku+H8fnPf74Y2nCc973vfeX9MBhw+++//+BTr3fjjTeWsuE8xYuTvPnmm/c+9alPTZ9TDWeaodr8zZZbblkEIoZmE+V8/PHHlw64DWV6/vnnF8OkhvOuQ+3iqKOO6n3jG98YfFoc5b7rrruWOsL4SMaHAaoOvOlNbyqGfBcMcfegrg/NF4OtiXtz9tln94499tji9NhO3VdP2uoQ1PMddtih9+Uvf3l63ww79fWTn/zkYvWVIRzbxcvzWH/m/DKga+zfd/V2zVdtqHkmOIXNbRibyu9tb3tbMZqH4Zhe6uuw8m7Cod1pp52KszYMhnbz/Lw4GQQExm4NB7Nt+3gx6t27NrQP22+/fREDOJXvfe97e3vsscdiolfgvrmOV73qVb1PfOITpT6cdtppvbe85S0jy21ctEHu/TDcw2FiHhglo/ob9Vjb2lZu8fJMNEUX912bvt5665Uy4QyqP+9///tL39KFerPNNtuUOuA3RFZl1yUqOQ4nRV/l/jsf9ePggw8uzlKTr3zlK6V+NK+Bg+v8jjjiiM62fUlQBh/+8Id7++yzz+CbxeGUEhya51a/3Hv3pAtle95555XntB7gqHF92qZh90Gb9ta3vnURG+Gwww4rbeQwtF2f+cxnynttKVGzxjkdcMABpX7WEG387gtf+ML072vUI21mjUEOxwve9a53FeGjDfVEPSKI1BjUaZ5L4J55hoj1NYQG7X2zjQ7YJp75Gvfs3e9+9+DT4qiXw55X98E+L7/88iLudx3bPSI0DIMNcc455ww+LRSfR4neV155ZbFhAu2iZ6XrPKCsOUCxjbpz5plnlvddECnUu+AjH/nIYmXZhm3CfmJP1tfXxQc+8IFFrpvN5tmonzf3WnsUAy9NlGWzfzWQyelTl0f1f+6rNljZEqWHlWeN59Mzrj8aBzbQG9/4xlJ/Hv7wh/cOP/zw0j+7vjY8p0ceeWS5F4R47ZI2dlR/kSQrNVMPcJJMM2Vk9ac6g/5UQzv4ZlH8fcrw7E8ZQINv+v0p47c/1fgu8l2TKQegP9VpDD4tZMox6X/xi18cfFqUqQ6jP9UZ96cMpsE3C7875phj+lMOy+CbRZnqnPpTxmR/ypAffNPvTxl0/Xvc4x79KaNp8E07U05T/+ijjy7vv/3tb/fXXHPNcl3DcP5TjtPgU79c/ymnnDL4dCtTzld/ypjqTzkLg29u5eqrr+6/4x3vGHy6lSlHvJTZueeeW667yZSh0Z8yCAafFsW12mfz/KeMzf6UwdV6XVPOR7nvjtvGzTff3J8yPvuPfOQj+1NOf3+//fYbWabJQqYcuP7OO+/c32677fpTDnb/5JNP7t90002Dvy7KlJPQn3IMBp/GY8poK/X+qKOO6k8ZQoNv+/0p56vUk0MOOWSR7+Gcdtttt/6U8V+emxrnNmVwdT6bNeuuu+7gXTfq8JSRO/g0GsedMogHnxbH83/CCScsdk2B+r311lv3d9999/4jHvGI/hlnnNGfMu4Hf+3GM7Dtttv2pwzVsbZvQ7ldeOGFg0/j49maMlYHn25lysDvb7nllv3rr79+8M1ClKf2p40bb7yxv//++/ennJPBNwvbRvt3nNlA2TvGMKYclHKfhvGa17xm5H7cb/V7UqYc4f6hhx66SHvnWfH8TTmlg28WRd3fcccdS1tZc8UVV/Tf+c53Dj4typRzWY6jna+ZcqJb79FFF13Un3KeB58WR//lmZltppzC/k477dTfZ599Bt/MjJNOOqm0G13ol9zXpzzlKcUu+P73vz/4y6K4Rvvq4jOf+cxifZx9TTnypT9qQ5/EPom6ry2ZcnrL+0B9WGeddUr9qJly9vuf/exn+1POZ/+AAw4YfLuQX/3qV/1HP/rRiz2jxx9//CJlYZ/62LY+my3Cpmly7bXX9rfaaqvBp0XRH3s+HL/G9WnXf/3rXw++uRVlo/ynHPvBNwvxzLJXPJdN/O39739/ufYulM36669fno/NNtuss39gB2mzuu6RZ2ubbbYpbVvgXA888MDONt33Bx988GJ26Vve8pb+NddcM/i0KH6jj7vyyisH3yz8Trl11V99pvbh8ssvH3zTL/fzRS96Ues9rXnxi19c6iz0u8pqGPb3tKc9rX/ssccOvmmvr9D+s+ma9xT6/S984QuDT7eiLfOsjOrH1ctNNtmk2MCveMUr+p/+9KcHfxkOe37PPffs77333oNvuvHM6Rubz5xjH3fccaXcm5x11lmL2TTqzK677tq/4YYbBt8kycrFXnvtRXUt/lobGamTLIIQU6NJRo2NyDURbSCU/wEPeMDgm4Wh5kI9p4zewTeLYuTB6Oeqq646+GYhRsSNMrSNgBo1EvpqqkFgGompIUYHhFg3cb5G5Z7xjGcMvlmI0W3fD8PISh0KLlTXtXYx1dF0jq41Ea78ute9rkT1THVug2+HY+TFtC0jg0apmyhvkTxCd5sYLVxrrbXKfakRIms0uy3KxqifqI1mlEUw1dGXMhGSbJqD6T+iB7qiQJJbMSps5H7KySl1TCSWSKrZwgizSLgpQ3uRcGtTC0wDUv+aI89G5J7whCeU+9iMcHCfX/va1y4yAj2XeMxjHlOmJDRHvIMpI7NMZzBFRH01UtkMT2+ifdh9991LGY4zPacNo7SiaZ73vOcNvhkPbYJRZ+HoTUQzCL1vTptQl9xr976JEXntcx395B6vscYavauvvnrORNnpF0xr8P+ULTL4dvYQlfjMZz5zkXZQJIryjGlSTYw6mzbVnIKgT9G/tEXeuO/uR3O6rKkFU45bmfYyCertqP5qUjzLUw5Y79WvfvVi5zkp+uau6X+mfpoapG0RPWX6p8g10Q9NTKUUGdIW9eOZFb3RfCbcF/ewK1rHNW688cbTdT+mlNT4re+bfbEoCfWRveAaakTK6MOdU436IOog8FvtbjNaR91RH6ec5sE3t+L3zlckShP9hGe/OT3RPTS9s60cRDKow66lRnshauXkk08efHMr2lP3yJTdNrS1H/zgB8u5qusi0kS8tEULanu0gW3RLaJCXNMWW2xR+sFAvygqTrRwGyJO3LOYphRsuummpQ612VX6PPt1voEy8AzsvPPOrb9RBvrSJz3pSYNvFsL2bEZp1bBhm3VcVGRXHwURKnUZDEMdeM1rXtPbbbfdBt+MRj/OhmR7s1fb0D6JuvI8KydRnWxy/cQw3Ft9qmnTXdMGa/RTnouYOhd4XthGzqNGpJFnkB1S2zTKa9ttt+3tuOOOg2+SJKlJUSdZDPOhGaSMtxodlGlTTXEGGmd5DYR31wa6MHPOv7DL5vxv0zk08kKFa3S2DJyXv/zli3UYDBnOlxD6WnRiLBx66KFFBGoarXKQMBy7HAdhoQzQen49Y1JobBeMvNpYGIXOSPi26RDjQmAhxLQZvf627777FvHNtQfuDxGIUd2EYeLeNR0aRoyy6TLUdbhEL06hDta16Pzd76bxmywKYVA9Vy8ZpcrP+zYxbqZw0oUmt+XO8fyYh84orusJI5SB3JUnhKAqNHouIpeTa2kagmBoepblQdEOeE6e/exnD3WstTemTXLoI9fFpDgXwucmm2wylpFb4xniLNXGK+xTO8P5bYNB3Ww7wVloyzWhLDgG2s65gCm7z33uc8v9GpXDZSYoV+1UE/VC+1hP5YDyVp6EiDa0ndrXGvXQM9QlBHKuRwmKTTj4XVPrZgJnU59w+umnl/5kSTB1whTLtvwiBE3Trjie+gj1zZQy4kLbwI2/myptWnZzuqJ203PeFBm0cUQ5daf+jf6LcyqfTS2ytIk66przajrcpgwRARzDfa3tBe0DgbDpuBOf6ufWe7aTaVk1IQio603UH2WmX64HSZz3McccU/JANdtpnw3sEGjqdtBv1FFifhvKU5k0+23i8Wqrrdaao0dZEEE40uwvYoF7qjwif1uT5zznOaUOsy1qOPfax3pQEK5HPilipjavRq4aA4YbbbTRYm0rkc/5NMUtIpUpqG94wxsW+417zIY85ZRTFpma5DqVAwG3Wb/ZkMPaKIKX8qjRtnnmuiAQDsuV00Td8cyoi+NicMOz1/b8wfQmg3T2rV4oS4Jb11RgEDINqhqsGlcgNlVXeTTvhWOqx80BSAIr38D1NiECadeb9SRJkhR1kg6MFjZH6o2wcHp0im0sWLCgGMX1HNmLLrqo7KvZiUNHTiiQ96A20HR2RqaaI02BTpcAE/OXQXRgRNSRPQHjkLHVNO4CI4nN0XXGL6OvacQFnMQ2h2EYjDNiVW1IjIJwZE53GwxY5RAOq9EYIyhG47rwGwZ+baAYySHodCVdVA+MFDU7cPe1a8Q0WYgIDPe9RjkOyyUxKY4xLDGlus9Yq/OpiGDpmqM/H2AcNh0dqMuM/xptyTARTfvAoWBgzhRl6flrjiSPA2ey7XeMZ1FJXbinHBGvGhGEXckuPf+SPM8F9A2iPrXZnKLZhnPeJnSizSkwOtyV2BfKuykkqoNG9dsSIqMeKJiEmf6uDaKyAZLZ4D3veU8RqtogZHDmm2jvuvpRYpg6Xud6E+VC6JETqg3PijKvB13sX3RBM9E4gYyDXws0jsXuaOZ90UZEG6D/r9sMghVBhFgVUcJslrbFAggAjlELc+q6Z6/pvAb26++1GOSZID50/UbZibQkpAUEHU6v/bWhvvpNHQnmN8rcs9gGAUjdb0ZZuG9dg1TOue3vxDh2Q5etwXYxMBiCmzb16KOPLt+3lYPnm+hN/KoFMXYWYbsrubH7zx4kHgTsHM93M0oHRA/9Z7OtDdhozYT86kFX/hfHUb/GSShdIwptVO6hJs5LJHYbksE3B2ljsKdLCNK3iKCZhIgenYSueg8DisMip5JkZSVFnaQVTjzjQAcLnZ+RpGHhllT1l73sZWWUTednlEZjvuGGGw62WBzCDad3v/32K585u5LfiWoZZthS943EOI7OR6dl2libEa9jZ0R0GZYMMAZVE+fFSWwiQoihyDGeBIaR622OXg2Dcdk2xSIg+oSBxrnX4baNBgbK1IibEdJAQj+OVZuTDIJZ02CBjtXoSzKcpljg+RFCPFswyoetIuG5VPdiJTkYIZzNKWDLEoY+J62rHXKtNeq8aRlLE1MrtX1tI4ujIE63Rckx+odNBeNQKoumSKydG3cEdXmhDSS2OU+RFSJAZhOCzTCBzfPSHHkX8SbitAvPMWezFgi0mRH90AZHsTkdeBREgy6nd3mivPRHXdE+6mLbQAwRqI6eaSIy6otf/GKpx5xdEXOep+ZzXGMaNic7hDmRiPq95jQlEYdNAd2gk/6+duibcLZjejWxgF2hvVGnYvqiutAmnvjupS99aUmUDftxfpz8YehPDYqpXwRdokPbIFWN6UcEhXDAtenqW1fbCOKNqMKAUKd97BJAlVPb1FD2YZ1QuMZz4dwN0EV5sR+JbMOEU/eQ4Ko+QLS4e9pmnwV+Y5qRBM1Qbo5lCnqXTaN8RCbFwKW+UVSNlABt5UAYFdHZjCiDyBm2YLO+ulYvYnET98tgS5soOAyCnHo/ybR3AlZXUnvl03YOnr/m6m/LEvdD2XWhPWmbCpskKzsp6iStaOxN2xD5IRpDyL75znWocRvCmkWCGAUjujAghinuMHLDmCMeOIZM/6OcEk4Qo4oRZO60KRZdx3HOhJ06UiEwusf4aDOCzL2279qIh85dpzypqAPn3ZxvPwz3wYiXKWJt+BvhzDkZgbfywSgY3gxMo1kMOgZy18geItKhWQ6c5UmNkpUN968tKmdYeU+C+s9BHSaAqtuejdog5TQSIYSbd43IzVUYya6nzehU3jHKW7MkUTijCHFZjgntxSSReM6VE9IWWcNZGCYyMHo997WB7x5zSpRDF23TiJY1hH/tK9RPIiPHd7aIqTRdKLs6EgMiK7qiQ2F/+rZmO9iF514UJUdsErT1bdPnljem2phG3YV6Z7CjCaFzmNipXAljJ554YumP2RDDBiagvRPJY8qVEXtT3NShtnpf3y/3RFvAvqhFbgMj9XRq4k2IOn6jvXF9RNaoN+pCVx1j09iO7XTIIYeUVc2GtdFgG4gI0r4RM9hOw8QZsG1MqZRXRjuknJtT1pqwhZTVQQcdVK6bgzxMPLa9c2q2a8p6mOOtvEzhFW0k2se9MhV/1DW5D65FW6Yc2gSlJoRB/Zj+kJj2+te/fmQfy3bSTrCblJ+ps11iqmln6kFb3+K6HK8NYlMdhRawRd2rSYUT50dgUvfGRR1xrW2Rue5hm0Ck7EbV13Eh0LmHjqNtM+3N9C6CX1tuTOgTR9mkbfciSVZ2UtRJOmHIWHbc8uUM02FGcuA3IlyEywolHjU6FRByIpx61OgUdDg6YXOtOQNtIbM1RofaEh/7reijNnQqOt6moarDYeDMxFG0zzoX0DgI7e/q/IwOiaIRedNM2jgMETZG9RjRXTk7AskdGSY642Qy1Evh45yOce87g40zUL+MgrfBsGHkjYKB3TTSTDkiTFpa1L3timRbUly3utm8pmG0lQGDnQjlZeS2zQA3+mquv3wpk4grS4IRdg6SdoQTbypAc5pOF7Ydp71rg6DqOHW9YjQPi1CBMPi20eNJ4UQ171H96oqEIIApJ+UWiDgYFq3D2a33LXpRO9yFqMVJ8yNx4odNh9B2T+JIqIMiTtsQqVRfj5dIGFNuJCqVE2ouoQ/0GjaFguMostXATJu4MwzlxPkTLeEZHgfihf6ZYKL+dDnIIovCoeVIRr4Z9kxEzRpoqcUQIms4ztpF955zrL0MUUddGGYDbLXVVmXRAoLAOCKdNto0OdejrRsWnVJjIEf90QYNE91qiCCinES0jGp/nAfxmDjVnLI2CuKce7vXXnuVRNPjIA+MusQmZE+OO23HtFs5YghN4+Q7dD+33nrrkptQWzVsOj0hSj1qTtnUx2iLuuzciAhrTtsichGQh4nvbTgP7f6kfZtjtUUZse0sc6/+LC1ExrmHbCCRUdpYgqXBSIPFbe040WuYYJgkSTsp6iRD0RgLnx4lmtSYe+13OvOuOc1NdOTCRLsS/LXBwLJajZG9rpwGgeSOEdIbcJSNvgxzgvytOXfXyAxDatIOeWlBlDGvvm3Fqy5cl5ETSfEYN8NQzsKSGaeMzTZxLGnHcyMJJuPf6NQ4YdOENs5N/Voa88eJIp5t91Yo/eabbz40QeJMIUh6ZprX1CVUgiBcb0skFlXG2N9ll12KUdj2/HEITSXQ7kQ4/tLG86P90uYZNWdAjzudSFi8KMOZQKTjLNSRCBzNUdFznN82A39SOCv1PWq+uhIEc5YZ7HXfwNBn3HeJYUbs632fccYZQx0RbTsneRKIY8N+42/jCrPuA+Gqy7kU0VVfj4ETDinnX1Latul4yxOihz5jWF/hGeCISxhLmGomCx6GfotzqU1qrvTWhXORw0f/P0wA0bZFpCtnWhsCZUz8g7pcR8W51+E4e1aIR543x4zvCR3D+lvXYdBlkmS4bCfPhrLW346D7YhO8gKOsoMC17HHHnuUqVHNXDlNtBf6BpHbBAyDFJOgPrDtRh2nhh3I6SfWjYrsCUSsurfNvErD0FYvWLCg2IfDpvuBCC2ip0b5iXLqivBxX9SRZjQsG6ptSvuyRvkSEomeBkuWBvp5UXHEHcKeKDaDxCI1idds16bo5RmbrUihJFmZSFEnGQmDZlIBg9EwzABsYv+2n7Qh15mO8xuGAeOvHmnR0XAshhlmOuzmqLbkf5OG1C9NREFw5Iz0jjs1gJGhsx1XoFEHiEeMJkaeaAhO27gRCSsr6rU6xpAx3Yk4I/fTMIeHo8LJq1+jQupnivNTdxjdIuU4FELmjWiPW5dGwVhmODevaZjgK2dWva05/oxgz53fdbVHUd6MRUYjx3+fffZZJKn60kQ7w/gfZ4USQpdzHNdpWVpwTk3DMP216+XvzfrgXtT3qPkiGLdB1BFd1hRQRNZ0TU3V9tT75pC2rfA3V5CzhJjQFd3KkaqvZ7vttit1PqYrN+s3J0cdbrs38SJ8DYteWhI4ZK5lVF3VH4sWFQVIJHFdkgSPI2ZHX971bLcRQsuw33D2Y7lwok4IQPqy+J6AUEe5Ohdlrn8LUQfqrWl6nNBRjidhj1jkmONikMn2+vSu6Mwmzk80kTowrugISXw9023T0pu4TsIrAVo9NVXuuOOOGyrMB+7NqHvURD1zzEmEWfu3/aTtaQh2o1CPTNWq6zLbsCvHFPSt7KWI+oL7RQwa9rtlhbJiWxjcIb7JTUlcno1IzhrRwKb51+KX+6UPYYsurXYrSVY2UtRJVhoYmpICB4wznW7d0TQx+sjACmKe/bijaEsbhqW8R8L2hYWPm4SZcSKhImOW4TkuOmJOq6VCOWAZtTM+RlGN3oou61qNYnkimojwJHKHI7a0pmPNBM8bJ6c2jkdhFNZovOiZpbG6UhfaE8/JMKfMcytag9g1U4gxTSHcaHjdXrXBQVc2AQeVA8qw7nr5+2zBYXA/m84XAT3a1yVFpMM4zmoNQXNY/VIGRt5HwbnWvnKUxnUwDTgME3o53xzotnsTL4LAJE79JBCpJhHRCKvaE2KsfiIiYpYHpgARxDjjdRQbZ7YrV53z94x6hkWnEOggl4epZZ4Z/w/L/WfQQ8JkKwx5VsdBv6BvZXeMm/fKlCjPjusZN0JQG6GeiiISfTsJxB3TdpyjKVkrE0StOveX9mpYbkVtszoTyaLhWZo0efqygG1iCrHoQsnKtSezBcG+bToswYtw2uwrtR2zefwkWVlIUSdZaTDSbzQzYAxxboYZ3gyYevUpjtioHDTDEDkw6Vxh08aMErVhVE/HaOqHEchxDTRRGTpwc93NxZ8UI5ZGXubzstjLCw5njPwuKfIASCo5CkbTuA6fZ8JUvpNOOmnwzfKHM6Z+c5Amgbji2WiGdy9NQmQZVt6EDZEPw0QChu0wYY3RS0CqIyLts15KuY1mvhnth7wa7nnXy9+V5WzA2TVFTvLM+iWCbVIHswvt9qQCkXZ52G+UKyd+WDkQkk4++eSSF6UWEEbB8fMsi4BoQwSCqZxt9yZe7tE4+bUmhQBA5JjJvtUtU8rkRFpeeEY8K0SYuu9VphxKkQLKv0b7rM3wDBsoCcfdM0ncI7KpD11TdmyjHlj501QiUS2jMChjgEW/LIJh3GeBECSni2fKFJpxoqI47aa0irqpl0QfF2VqulesHrWyYNCjXlLc/RqV1Fv/Q+QNrFZG8J0J+nH1cRxxuUa/OU60r77EoJ3nfTaf2QVDBi+01bVdDs/VbA4kJMnKQoo6yUoF4ydGDY1qDUuOB0Yp0UdHyshjxIj4mSlGLSfJlyBU13EZk22YFsHZ5WgQrSSqHDUlKvJ4MHAlhDRCUxsdTZRTW4JEnf4kjsvKiEimZoi6+zksimMSOJlGTIcZYOG4TBJdxrCba9FEnFoC1jChg2DQnCY0m+U9Do5nlH+YWCzfitH1YdsQ14ZF3TB6m6IOPJPajS60ZU0ndlmhLnoeRAloS+sXZ2nS6Jou1N9ajG8iCqKZh0U0xrA8PaNEHXXMMyP56kwEMMnrraDWzL+xvJHrRsTJKPSrbfVVFNHy7if0daJSOZA1EgZLaN10zDnNBB3PUR2pAw6vuqAdahug8fzL/2XaJ9gLymZUXjSRWuqkNsH/BkxGRSbar2nkRCB1zkDLqOhZ5UCkIuyyK0y9PeGEEwZ/XRwDR+yMJl3XvyLDXiIOEgm1ZdpxgzTDMCCn/GwfUXV1fZoE91p7P0lf7v5pD9uEoCOOOGLwblHUu2FpCSZB/slRA0/N9kHfN6wvUO9HlXuSrIykqJOsVBgRlohWODRHmGM1CjlOjLrZXmfKqJsJIm4m/T1joCtUl3Pk77GMuVF6eQw+/OEPl89t6KytZFUnE3R9xCCOaBsMwDYHX7LSSRJor4wI728a84yVUUkZJ0GSx2ERU0Zu3fdxk2jCSDVBcy7hfCR2HOaAeLab0RZC3+vpRksKZ6/rWQFHkIM/LBqLo9gVfRcw/IcJEzH9qpl3Qq6GLpGPMzpJPZhtOK7aqLZcGYSmmEa0pGhjhwlbnLFm+Ws/h63uM2r61QUXXFDKdqZJjrUJW265ZdnPXEH0iLYjkgsPQ7vWXIzAc6L9a5t6sSzRRpqC1Yw2siqmOtllB+hjmw6niAf9blekjraYsFOvYPba1762iJa+78KS8ZxvEGsJNG9729vK5zaIBMQj02UDU2eINl11n+Dt3OvVmixo4dhdeVQIP23TrFzPxhtvPPi08kBwI/6ymQyItbVlNdpobYK+yYsNOlOIvpMmWJY7Sb/Zhr9pc2u0jdpg7eFsYGrpsKgzQnAzikiZDot09YzNhZxESTLXSFEnWang3DHUzj333BJ6PGykPBDWLkTZ6O5MRQzGlFUjupa4bcNvdIZdq2cwtEwFq51viVcZel2hqyIZhITXozDycHB8u0aIhc8rs3qfyoLzzFhOulE+Rk5rY55RPe7S8+PAuOlKMAtGGmezFhONNg4zmprRLnMFq1tJCN4VrUPgFGoe5+9/yVDHXSZ5HCwD7By6kCSZQNHVtqgL8jKMEnXsQ3i/0dk2jFa2jZS7110in5xi2r3lBXF83XXXHXxaFOUlWafynQ1Mg2ubTqVOcGaayxArS+XNWW+DI9cVMcmRlofqJS95yVhJV7sQrUN8mA1hazbQdnXdryaEHwJJ3a4QFwkM4wyeLE0MXHCom88kB901cjybeP6s4tVsqznoIg88x839qVv+1pyibf/qVdezLFLNgI+oy4DzThxuLqMdaNck1q6dW5EkRPyuqCAim7arjlJjC1i1rM43WMO513fUUViuxXlNsrLXioLobnnJTHUbdxqVaVtyHxrkmWlfpL6xQ9mj40L4Z7d1rTymvalzeTnGwQcfXJK3L0k7VqN+qdttkTfqqjrZFMvZtGyaNjvEOaqrMxXPk2RFJkWdZKWC4a4TEXki7HhcjIDJpzOTsFmdkBBvxuEkI5bCZo1YtIXa+ptX26iP5JQMCMet4cgbeW128EYFRQN1RUAwXCXJlGxWx2yEiuN86KGHDrZIumCYK3cionIz6k1kmU2RQb3iPLUl1mTcy9PRnDJIxGO4tYl/6o0pdxyhuQjh0spRbQYfR92IMwebc6VciJWzuVISB7UrgoYh6tkYtkz5+eefX563cfIqbb/99r0DDzxwsTwZnH4JN62q1oSQqG1oQrBwfhyM5QFhWH2UY6IL0Q1yTswGnrG2sH/PoWemLReGHGOmJDSn63lOOGQRFVmjTPUnXVMZJkFbO0k+laWJOqcejbvkPhHEc6YcCI6m+Yka5TjONLp1tiB8qHvNKDVTlvR/bRBI9KPNyAhRBZ69thxD2nptTrOOi+ixvzrJbuA3cty0RVPIM6W9aD7/hDIilbJtQliUJ08kTxP3hijQjD4SPecYXTml5IjS/5umbWVEz5WcOrPl+M8n2JD6T899czpfFwQIz5J2eybPgnujH3cfJsE0V3Wxq45bpl6dFGGnXWSnmpI40+lhXVjKvK0eO6aB1mbEGxtVv902HVauPzaA9iZJkkVJUSdZqTAiwBlktE8yJUPnx5iZydQFo9OMIbkWxoExpgN8//vfv1gkDohSRio45W2suuqqxVBshlNzFJx/W2foN0aICQ5tSMTJgOSIEpl00ss7T8J8wL2zrC9nhzGo/Ex9m83pV/Yl+kruC0ZcwIgUHabeNeu6kWOCgKXpm/Xk1FNPLaN3poLMRTjkHEYiQRORFAxfjrF6zoCWD6T5DC0J7qXIDKImkQ4h3IqS23zzzYe2E5GkfBxch9wB7q0wecfxHO+yyy4l6q/tGeRoGEl/17veNe2kiR5SFyRtXV5oX0aNMis3QnaU65JgKgtnhRMQzoQ2nACjPWuDA+95Ouqoo6Z/IyKBuKbsms6RtvjSSy8t93O22kOiXD16vrxQd+QQmuS6TBkiGipDI/QiOdqiYJY1nER9fjOyTV0jtjQjbhDTH0Wq1mjD9dFt4iQRy5SutvZdhByRqLkSlugLKyK2/Ua7rR1rirTaP7RFQJkSRKT5xCc+MfhmIaYWeh447U20jwacusRE12pVLkKWMtQGzqZQPp8gEBIt28pxGKKjiEHNOjgK7T4xTl827iIdfqMvkoBYW9dWv6H+qHsixJyXujvTJM7DMCiqHTFAYWCQSM6+FSXnmppT2DxjbO5dd9219Kui/9jtojg9C+Pk+EqSlZEUdZKhGMkSftul9HfRpr6PQu6WSQ1jTsCwVTkYpfXcYNfDUdp2220H3yyE2BNiB2O0OZ/YCK3OpzmPt456YeAfe+yxxdmKl47fnOqtttqqdWReGTEE69+IqjAKxCljcDYRbWPkpytRnOOZJtacRsDh53y0JfH0G4kdu5IsGpFjKBJ/dNCzNd96ZYDBwlETKq/8ho0wqa+TiI2BZ+d973tfmXPPKDNlYr/99isGW9doIofr5S9/eW+LLbZYpL6CEFRP0euiOTWhDULEHnvssUgdr19GluvpQhyMYfWLIaqMmtEUgfIWIu8ZEPkxiRHtt/Y9bARaW+F6tAmcfeXoGoxeG1lve2YD08acl/s8Lu6P67A0u/tKdCPodkVSeZYZw+oa8Ud92GGHHYoQO1s5sDgJw64T+oy6LhOWxjHGiYn1lBP1wSh1W92JF2O/GbmljEUtupfaPc7N6aefXsqG49uFuk+IsF/3lsDzzne+szW6TltMcBPh0zyneHkGXXugzR8m+nGsuur2kuKejDsVinDB0Z+079feRFs3zoo7NZMmP+Xojns9e++992LtCntjxx13XGTaUyCSi+PZdv2c07YoOU50l3BKcFYX5K8JCIfqZ1fUsL8RTwzS1IhwECnTdIYDeXaaix9on5y39qEJm0B70rXEO5Sdvt91ez7a9tOGa9AOdJ1rF6MWsWiDfTbueQX6zmHtseuu+xDtv/rdjKyyTdi8+vjmlCLtt9/V/art6raAeGH6U7MNEdmpr27D+e++++6LbL/RRhuV6b0777zzSDuc/WzqpOeVqD1Ovx+o002buA33/lWvelWxbT0DysIzpx/tKnv9C8FTvdXviRjU3vrNpHUpSVYWbjNlCM3N5AlJkiRJkiRJkiRJkiQrMQb03v72t/cWLFjQO+644wbf3kpG6iRJkiRJkiRJkiRJksxDUtRJkiRJkiRJkiRJkiSZh6SokyRJkiRJkiRJkiRJMg9JUSdJkiRJkiRJkiRJkmQekomSp/jjH/84vfRrkiQLsYpJ11KYbfzud78rqxOs7E2KVS+saDFJ2Vni85e//OXgUzIJVvewzH7bqm5dqKuWVk2SZOZYacjKRm0rO3Zx8803937+858PPiVzEStWWdJ9klWG9Ps/+tGPygpOydzF82pFwXGxeuWNN95Y/KS5iLpqBa5J2qAkma+MSpScos4UN9xwwyLLTCZJ0uu94hWvmGh50O9+97tlSVdLu6/MEMMsQT2JQfyDH/yg99nPfnbwKZkEy/tbqnsSEU1d/eIXvzj4lCTJTCCorr766oss+TyKn/zkJ71PfvKTg0/JXMSy1pZMby7LPQzO/7nnnltEu2Tustpqq/Xuc5/7DD6N5pZbbuldeeWVRbCbi6irluOfpA1KkvlKijpJkiRJkiRJkiRJkiTzkFzSPEmSJEmSJEmSJEmSZAUkRZ0kSZIkSZIkSZJkMeTB+uEPf7hYzqQ//elPg3cL33/ve98rr/j+//7v/6a/86rzl5rSJZdgTBgx1Sve/+Uvfyn/d/HnP/+59z//8z+93/72t4NvFu4vjiOthnO1Xc2o/SbJfCZFnSRJkiRJVmj23Xff3o9//OPBpyRJkmQc5J/bY489ekcddVTvnHPOmRZefP+mN72pvMfhhx/ee9/73tc744wzeuuvv37vpz/9acmh5bP29/3vf3/vE5/4RNn2q1/9au+tb31rmU5CgLF4wUEHHTQtBl166aWdeQYd/yMf+UjZ37bbbjstFDm3vfbaq3f88cf3LrzwwiL6vO51ryt/w+c///neCSecMPiUJCseKeokSZIkSbLCItHn7W53u952222XiVyTaTbffPPBu24kAOacWgCAw/nud7+7t9NOO/W22mqr3mWXXTbYKllW/PrXv+5ttNFG5R688Y1vLIKBCI82rrvuuhKZ4d4de+yxvS222KK8Pve5zw22SEYh0uYzn/lM7x3veEdv7733Ls+C1TrxpS99qZRlLI4hKmazzTbr7bnnnkUA+vCHP9y7//3vXz6/8IUv7L3hDW/obbjhhmWVVALQe97znt7+++9fXp6zL3/5y9NCjvvWFVXz+9//vvf973+/nM8+++zTO//888vvCTxrrbVWb+utt+5tueWWvQc+8IG9xz/+8b2PfvSjpY4ceOCBvZe//OWDvSTJisdKJ+rU4X2gIn/7298uS/YNQxifRiOIkD7L4vq9l9A/22gEA42d3zIkbaNBrLG9xqkOIbQSTr2/Udj2Zz/72eDTwnOlULu2gBJuO2p4wEDxXbzq8x4X510fu404jutq0ixXOMfrr79+sY66DqP0Xocd566RD5rXEcr/uNhfXU5RR7xcq/pjZMDntvNsO16zcxrXsajra7xXXsotiH3Xx/B3dU+4bJx7oOziO6+bbrqpLFdpRaD4PFsMexa8HNN5t90zL/fYq1mmvqtXY2Ak2N93vvOdTkMgUIZCiT0TNb4zkh/l7V7bZ/0cOU/Pa5z/pHVrUpxLs37BPXSdwozjXLzQLEv7sG1935vbqFPapubf4juv+hnrwrnWz3OzfKIOBF3nijiul/udzngyE9RHTskGG2xQkgtaoSdJYOrHKPQJnEZt19VXX91bZZVVSkTBfvvtl6t4LQf0EVaXPPjgg4vAxhZr9uXw/QEHHFDum1U52RpEBOLEe9/73pF2a7IQ9qCVpax0Z6WpZz7zmWX5cOXK7nrc4x5X7OAm//Ef/7GIHV1z7bXX9tZdd90itN/lLncp33kW7cs9GgWb7K53vWs5H79XJ7qORcQjvnqGrfyVq2QlKzK3fav4t5UIoXf/9V//Nb1Uo6XwOCIf+MAHiqp7z3ves3zfRCgfZ+Q///M/y2fGoSUfqc3UZR2GRukRj3hE6Wj+/d//vWzrbxyvM888s3f55Zf3Lrnkkt7HPvax3gte8IKyH9tqbD70oQ+V73REwhz9f9555xVH84lPfGLZto1DDz207PdTn/pU7173ulc55mmnndY7++yzS3iipQtdk+t0/u985zt7q666amkIdWwXX3xx6RC/8Y1vFEXdeXdhRMRxLB8MHeWuu+5alHrLN1tauI1DDjmkhFwKfRQe+aIXvWjwl15R0Dmbd7vb3cpnIwAae50EYyqOBcd67nOfW95r1J2P0M/b3va25Xri3hnBeeQjH9m7053uVD4rY38bdm3ggFL5dfYnn3xyb+211y6O7Nve9rbpMtLBPeABDyiGgc/u7xe+8IXeU57ylFIGhCt17OlPf/pgrwv3u8suu5R74FzhGl/96leX911wYo844ohyX+54xzsWA9L+CTBCVx/84AeXUatTTz21fPfxj3+894QnPKF0cOoUh9mohM/O8cQTTyx17IMf/GCpWwQf13D729++1Ev38etf/3r5u477Dne4w+BMZsa3vvWt3kknnTRdFkbLHfP0008vdda12MZzZwTlHve4x/Tz9drXvrY4YxdddFG5Vtf+tKc9rRgTwnLtg6OmXO5973uXbPBXXXVVeQ45bY75L//yL2VfTRxTyK+O3jbKUfkI273iiivKeSgTBiExQVkxHtx3vznllFOKsKPstCWMl6UFQ8XxlJFzgGebeOUZ0G4Rt5yLl+eFw2F571i2VNlpg4RKa4dck3aAYcwwghE310vEueCCC3rPetazSl19/etfX9o1+zbq9tjHPnb6uWriOfasO24YTu7jS17ykvIeRx55ZLmv7hlBXPtpSeSAgOO5dq2ebc+bY7uvnuE432T+YiDgN7/5TXl2oU1gyH/6058ur/ve977TdUyfoV8DsU+f4HeTLF9vn/qVZz/72aXeaes8y3H8ZOVFP/LKV75y8Kkd9po+QT+hnfS/tkgbpT0K2yVZNrCniAJPfvKTi83lM3u5aX9aGYb9o/04+uijS1QH+4GQ8IxnPKO0J119WXIr+n82sYgX3P3udy/lTtBhS7AV9dEEGf4BH4hNpN0FmwG28Ryx1W3HD4nyZ2uwT3zmjxFO2d7u1f3ud7+yTc0xxxxTjutc/umf/qmIrd6z8dmL6kK07+45W5h9w96wfZLMV9jzni3PGz+yyUoXqUNdrtEQvOUtbymOMUe9azRYwxAhh6J6/A7//d//3dt5553LPoQd6uhFyQgh5ExzYLwIKhRjTpjfhoOrATIHlfO+++67l9+4WfZnW05mHcVT881vfrOo50YsOF/26fztl9NGzFABOFsPfehDyz45dbbXcDon5+x7r7rxdK3OO3CeHN8YZVeOX/va14ozTvRgbDtOG34jzFmDqrxcU2A/9XFsIxSTkU+wuOaaawZ/WRgFEHAcd9ttt7I/507MgHMgwBADAsdXrqPQUbgXysfxObF+F2XnRYjxHcOOyGS0zv1kVMDfoowCnSKRqr6WiEYYBeddB4goq3jB8XzvxeCMvxFn/I0g5LzdJ446QcO2nO24JqMXviOGmffs+gmLS8rDHvaw4ozHubovDOCoD44tLNc99F2MqsG99l64rrr86Ec/unTcnj31jhZNhFGmtmVk77jjjmWfcZ1dKAvPG+GO8EkcIUb47L47HiOAkOIY6qO6D9cifDjKzjUuTYhL7mM9CkXU4aA6F9EHcS5etleW6mXUsagTynPTTTctfyNSu1bCCqNY3dde2Icw6TDItAmxb+1XzIdvw3l6DogyQf3MguDmeQi0BXVkmL87T+frPsaxCTwPechDBlsl8xliLjE80G55ftdbb70yUCJsn2CLF7/4xdPPMuGaqNrVz7ShPhISORKEXk6CQZKcfpGMA5Gbs0kEANtKXQ30S8nyhQjM3qmJiFu2m/6FWECICAweEXiT0SjHNvTjypEtws6DbQ877LDSbmtjX/WqV5Xvm9juNre5zeBTr4gxYfsZAGWXxec2/D4GHQn8/K6u8wSRh3jbNdCXJCsKmVNngIedsWdEGxoIUTLRsBjZi46Dgz6sM6cy26bLcSfAMGRFK0QSL4YCB6gp4Oh4mlO2Ag4ZhxgcHudv1D7CEkUjeW9UNGDc6gRd2zCMZtbTLTTeRKfAtWlMHUOH6f040yPMdTX62obrd/4iCEBwmrQRJqiJthHNMSmOFSPArrdOsNZFRN4M64AIEY961KNmdE5GPQiO4xArAXDq1a8mxCdC2ShEn7SFM88E+won3qhORI+0QfCxTRvqBAHA6JBnQocedbtZ9jEy0waH0EhNRG3tsMMORRzl8HlmjO4QCIlpgbpAZFge03+cq2t13XC99fl3ITpmmADDuRU5ZvRMu0ZIjlEz9cTxXHONtmPUFCwiF3G5bnMCz7Z9q6Oxb89cLcBqd5KVD+Kh6Ep9mH4mRB3thzrRrIvjoF0wWk8U1FbEiLERYg5HPFNJ0gYbx4AVIVx7mcwfDGZqT/Qv2gGDHcnsoo832HvWWWcVG9fAE6FG3jIi6DrrrDO2/V7bVtpq9k3blK6Afxb+lffNwaMmbCZ2XJKs6KSoU8HYE/4PHYHR4cjbQTwJwYfDF9OCNCgMztro1HiIdCG6tMF54nSKPFhjjTUG3/aK4q2RjH0amRSV8PCHP3ywxaKIMIiGiiPLGRWJIywVGlTGSNMRIxQYcUIcqwnRp24ohbDWYYvO3291ltFhjjOCalpGl8PtmKIjAk7+pKPzBLDHPOYxpcGf1Ak3NUmiNeXl2mqUUdt37pFIB4JAF/a35pprziiXg/IyysBIGQWBTZ1wnvU9d55eRBGRO/V3NfEd8UmHPBsQs6Jzrsuprd4R/LrKSL3wvPiNesh48CK21lFxnlv1KASKJkQM5xSoX86vvl73qo6qghG/iC6IcmrWh6WF+2+qI5xDTN1EXHfzXERiKRdl3gUnlxBIZDV9MPDcEeI8/7F/L2USU2G6cH+J1qK9mhAnN95442IAhhAnSkwCS4iqqOe718dOVh4839FHEAEJ7V0DG8MwHVO4P+dOPxvh+ETSSJiaJF2IkCUy1vZXHV2QzE1E5rCX2NPBsuqrV0T4EPrrEFHY1cqTDyFinQ/CjgpfCYRQ08C70K6bwh6IzKmnYbNHwt9qw4CU9t158LX4Hl02X5KsTKSo04FQTdMRIhKGQKJDj2kQ4Zxq2GxnRLAWQV760pe2OjbDMJUKhB3TPkw9MVWkC8ZvLbTAOU4yquS8TUWJBjumPDGiOcDCWOcTnFgik3w4IdCNi3ttCt673vWukkclEMlhSk49bcy+Tdkxp5FIppPqQudlJFqEVNdUumFY4cGUm1GjEZxx+1d/QrwRFuuaTKdyHka+IW+OqW61+CNsdvvtty8RHgSW2YDowoknRtQCnek+pkXUmIet7naJoW1EXVdPIz+Lzp0jNwnx7I2DPAzqyKT1a6YoN1MAGDDqIkcjMEXQ/a2ns0AEGSGqGZY+Dto+IjFETtm/cGoCkOkxo3B+nsM62otRKOdTiNgRMeZZdSyfTa2pV6bw2bFnIoYm8wvCqn5H22UaZIiM+lmipsGNSSFqxrTcJkRibUVMbU2SGo6i+mhKYI0oAv1ZoD1Oli8GsiJ1ADuWrSZaJGAPGKSI9AkgQNTTgJNu2Eb6Z76P8jVtm91oGq2p2nLbGEiNFAQg9PhdHfFcI6KXjc2mZbPK2cNWDNzPGKBsw+/9Xb/AlrTdJDZckqyopKgzBCGAMb0GGhJh20YRowExnUQuD1OFaoGFIaoTmcTxi8gShqj8JgzbYdNVTLPxqtG4dUXCtGGKkQ4wnDiRJxw5HZ5Gu20axbJA9IByNUVtXIzocw44g4QBDsKkmIYiV08kqIWROqJIPZLAYZZLyf+c7pi21YapBJwH9cPUlElRD3V4kgMOQ6QOg1Nix5geaCRF3hqJhF1b1McFCxYUAadOFmoqkvpgu2HXMwkRKSYhd530mmC5zTbbDD4txLYiNYgH4xJiJEHO9SgnBkb93I7DJFFd5omL4lva+XQCRilRmUBHcKmjWeTUcX/rsgVxl7AVET6TQICJdkU7Zv/mo5siOq5g7Lzk5QmjzD1V/4lQhHD1Idhkk03KtoQpUycDI62OXSdaTlZMGOhGZvU9nt+6Hph6WU/RGwd9AEGoK8oV6rRcWXVOpySBftJ00+Y0V1N/tcPaNbYSgT9ZfhAFOPYxiMPWYjNrQwK2gPxsMYgkqkM+xIgWTYYjspEdaWEVUbWeC4MxhBgiJ9gozXaUD9M1ndo9Mvgjh6NB8WbUpEHSmHHQhuM7JrvBwDQRKXyYJFmZSVGnQjhfRDi0Ifu7KAYOoAZlGDoSK+xIGtpUm3UmnK7mCCRDVNQHNJz2MSyyQ2RGnaCXmv785z9/etSew+sV06MCDlZXZAnnmBNlagYVvp6qUqMBdX46SKPyRIBx5s/GtbehYebwuRaG/Cte8YpOpb8Nog4hTRmaSkfYaZb9MGJb5WWaiBGAUZjmEkll23C97gEBQMc10wSdVv2K5Mc19s2wUaYMTkIc4UgnXEMMIPTUo4xtiORRP5pi4UzR6avDRK1R0TOugZAZ+TRqOH2eF9RlEPlwAjkQjAB13XcCXD266lk2ak8IC7QD9TRAiHKqDcVlDSfX1ErPWKzcNwrPMOekK/KJAx3TU+rE0gRd7VstUr/mNa+ZFrTHgdjpuNF+qZOicNRRUT91JBwBiPFHKB9XNEpWLAjmolvVEcZ8LcpyrH1nhchxIMjLo7PRRhstsp8mIgMJlSJSk5UXEYRe+ig2lL5D1Kopuc3BDW2qtswUZYsqRJ6mZNnBThBJ7p65B+6X/trgkcFA/UkT03z1cccff3xZkEHboO9LxsOUb20zu5wtwJ5Ujv4H34i/YGAtBrvcE1OxA1FvdTSOBSe0+fYn2sdglfvCxtFuG1wlxrXBNrFoiRVRrbDKPoxIdvtr+jfsDsca1h8kyYpAijoDiBM66xB1dBRCNGvnllNsGgSnf5zGgUCi8Wkq2JRl0TgMWStcgept5IdQE0g2Fn9vg8PsdzB6JGeFBtV3nH3748TXo00ibwgl9QoObWhYh0VruC6NqGN4eT+OqEPtb0YVBH6vYY98Ju5HPWVnFO6ZcyZsKVtRKDHNYxxEwsR0M+VGWBuFe9wM7a0xwsw4ZFTEKlPuzaSoF8qYCKHuKXPX63wjz4ltiGJdxop6ESsGdKFOGeGeJFpmGOqeOhcjOqPQ6bfNpWasEW8kIfdcKgeigXtcP4s6byJjl5BBEGH8xbQzwqtngUEf9dm0jXqEXx0iZowScpcm6g7Rl+hRiy2jEHllemUT10lIcZ0MMhELUYeVr7rffP6JWuM6wJ5j95yxpc6re+uvv365DlMjtbcxlZWR7nyGTWFMVm5Ex4nuGhU5qr8WPWEKRnMwow11UaJP9S9Z+dD+a4ticErfzF7jXBL9mug/RA+qZxzK2co9l4yPPp+N556JKjawpk/Uz5ge3IyuCjj/Bq0883VeumQ8DNSwFcLOr21J5e9V20j69XqQJsSaGqIo8SdsDdv7HUa13+oBsd8+pCgIu4j92rRd6inlSbIis9KLOhxy6r3OnZIbjryoD6MAzXm3RJN62gVnxQiifUj21XTYGaM6G5xzzjklR4RIAM4Nh4qRID+HCAMhoTUiTjhYXat0iMZwfpw25yDKQYPGGPGdnD6EKI2vSAPnKCRSBEw0tueff3753qtORmk0fdgcVQ2oxljopDm2HLhhgoG8GLa1KpNEtF1Q9pWFfDWMLBE34+IaQxTTgCtbDrnO37QP18iA7xJVXK/lFJWd6UrqBES/RBk1V7AiMijLrnvEcY78EGBUKGev2GfXamA1nGSihs5Jbh5RFkYTRW9EVI4O0/XXeU+IPI5BTJMTKKZlXXDBBdPHl4C4RhK6caKUxkHnKgJLpFGN+uDYJ5544iLPmOszghOI6LDEsWlEytG+iFiHHnpoOUfPUIwWgUHgu2ErJ0jiZ5nyffbZpzzLtmfkud+eT8+HuqDs5B5SzozHQB2Ispst8WsU7r/rjmilQORgnIuXul6jDYnoP1jK/Oijjy5T7dxn+7Rvhq78XfYhyWRb6LNyCsF1HOyTGOYZ9CzWRhVnKCIK3TP1Ur2u0VbEdZkK6X4kKyccAtP0RomKBjcMWmiTRcHWL3Ws+Z12mKg7LHddsuISEQZe+k3CcrSHXejztV9sk3QUlz1sTwOe7pn/w/l339zPpkNf474S45IVB/ZDCDpJsrJzm77h/pUITo+OOBp+0xM4HZztYflrAiP8dR4SoosXdCoiSxwjBA4jOoqYQCEShPhRT43xd9NqRFfESLURc04QmsdrQ0QLISccPqKFUFMCT0S6OIZ92SZGoHyuE6lSvNvUceev4fQ/J81+AysNOd/mdJUaI/Ku3b6b4crO1b2oHXNRMsqUM1pH/xhNbQpH9l2LT8o5BCv7JnSYAhLTuNrOoYnydI8iuiTqCIgKoknqcvBepxJ1qr5nzfsXIaKcj4jgUu8igXGTet/qlfKIkQxRYyLL4jxdu3vkGqNcnXtERIRA5n7Vzrl7pwzrfTfLdUlwXsqq3nfkB3KOIkCIqPW9VW6uJfIXqMf1+XD4bU9ogMidqLvK2LHqOlXjWARA51VPLySU+a1jOa/ILUXojedIHVSXQjzx+1HP52xRtwtwDu5jHU3oHtdlgXhuicsh4Cnzurz9jRAmwqn+W3Nfzc9N2p4F29t/0wGyL/h73DPPazxbnsPAPpt1IJmfiMRTz8K5IiJqV2vxMSC0EvkhSodILuKr7hdqRC6Ok1S+iQi/tmkbycqNtjP6rWT+wMYw4Mrejb4omRuwTSOJffbnSTIZbCJBBwsWLCizfpqsdKJOMhkMcM5vRHgkyXyE4zgsQixJkiRJAtG3Fluok3Yn8wMRfSI899tvv04BOFk+EPQtguLeSF+QJMn4jBJ1UsJOhmK6kikeSTKf2Xzzzefd8vxJkiTJ8kE0qWnLyfxDFDS7ddKIvWTpI8JYlHlEOydJMnukqJMMRQLZmAKTJPMRYo5pgupxkiRzFzmtRIYmyfJGLj0rMZqum8wvROrccMMN0/ksk7mDdAimv0+Sny9JkvFIUScZiqTO8opE/oskmW8YcTVix8hLkmRu4hmVzF0y7yRZ3li5Tx6nyJmYzB8M4MhRmcn15x7yeEponYNsSTL7pKiTdCLCIZaHHLWUbJLMVYg6ErFmBECSzF1MmZBY+9Of/vTgmyRZPkjWbiBLol15dZL5hUgQK8xaNTOZWxB15DesF2lJkmR2SFEn6eSb3/xm6RjvdKc7paiTzFuIk1ZOsvqSFaSSJJl7WF5cctocwU2WNwYArMRnpcysj/MLuVrcu/ve975lGlYyt7B6KHvMNKwkSWaXFHWSTiyL/oxnPKM4w0aukmS+YbTVkuPqsFUwRAIkSTL3EKlz5zvfuUybSIM/WZ4Q///xH/+x9/CHPzyn8MwzRFY94hGP6N373vfOaJA5hqXmDRJD9PSNN95Y3idJMjukqJN0YunBe93rXr073OEO6Qwn8xJGwz3ucY8i6nhlPU6SuYmcOp7Rpz/96WU0N0mWFwax/uEf/qH3T//0T71//dd/7f3lL38Z/CWZ65hy9chHPnLwKZlLSI78uMc9rrwnvBk4TpJk9khRJ2nlr3/9a+92t7tdeX/Xu961CDxJMt/42c9+VsKwb3Ob2xSHMZfRTJK5iSm+crgRdb797W8Pvk2SZY9+gqCD+9///mVqYDI/0Nc/6UlPKu9f//rX572bQxggXnfddcv7F73oRSWKOkmS2SNFnaQVS0G+7GUvK+8ZNY9+9KPL+ySZT9ztbnebHhmy4oLpHUmSzD2IOv/93/9dnlErLibJ8uL//b//Ny0MrLXWWtMDXMncZ+uttx686xUB4Z73vOfgU7K8YYsZJIb/wzZLkmR2SFEnaUX+kQc/+MHT7yU2S5L5xv3ud78y/Qr3uc99yjz7JEnmHqJBCa+idG5/+9tnUvNkuUFcFOEJdpDBgSRJkiSZy6SokyRJkiTJcmX77bcvAwgS1G622Wa9f/u3fxv8JUmSJEmSJBlGijpJkiRJkixXJKSFnBjEnSRJkiRJkmQ8UtRJkiRJkiRJkiRJkiSZh6SokyRJkiRJkiTJvEdi63vd614l6i+ZW1hVznLmmXw8SWafFHWSJEmSJEmSZIDl9Z/4xCcOPiXzCSsrrbbaar3b3va2g2+SuQJRx8pyljdPkmR2SVEnSZIkSZIkSQYQdZ7znOcMPiWzzV//+tfy6vf7g29upf7O+9jW629/+1v5/u9///si39eI0PmHf1jUvYn9tO3bvgL7910cB7aL75vbJ0mSzBVuM9VYLd6iJsmAyy67rPe73/2ut9566w2+SZL5x0tf+tLeWWedNfiUJMlc5Gtf+1rvLne5S1lSOkmSFZMf/vCHvaOPPrr3X//1XyWqZv311y+r3sXfvvvd704Laj/72c965557bu/nP/957853vnPv/ve/f2/dddftHX/88b3/+7//K9tg0003nU623uQXv/hF7/zzz+/dcsstpW150YteVH77kY98pPerX/2q9//+3//rvfCFLyxRJKeeemrvz3/+c0nWvvbaa/fufe97937605/2zjjjjOn9P+1pT+s95jGPKe+TJEmWFW9+85t7b3/723sLFizoHXfccYNvbyUjdZIkWeF52cteNniXJMlc5bGPfWwKOkmygkMk+Y//+I8y2EJAOfPMMwd/6fWuv/763hFHHDH41Ov953/+Z+m/5ch51rOe1Xv2s59dvv/CF77Qe/nLXz796hJ08KEPfaj36Ec/uuznqquuKiLPV7/61d5vf/vb8ltizmc/+9neX/7ylyL8EI20RR/96Ed7N998c++mm24qkVtxrIc+9KGDPc9vfvKTn/Te9ra39U477bTy+dvf/nZv77337u26667l2kUk/fKXv+ztsccevZ133rl3wAEHFBEMvr/hhhvK+1//+tflvoEI973vfa+U47vf/e7yuz333LP39a9/vXfRRReVz/b3ox/9qGzfBmFvn3326V1yySXl8//8z/+U38Xr97//fe8b3/hGuX+49tpre7/5zW/K+yRZmbntW6cYvE+SxdCR6XyNZCTJfOVRj3rU4F2SzF+MYL/nPe8pDghD+gEPeMBieSMY4gJwv/SlL5VklF6mDjCC73a3uw22WhR/v+aaa3rHHntsae+NnpvCcNhhh/U+8YlP9K644opilD/5yU8e/GJR/vd//7f3wQ9+sBjtn/rUp3o33nhjcXwY+nInGIVnqHPgnN8pp5xStrXfP/7xj70HPehBgz0tiuvgfJ188sm9b33rW2WUnvPmWBdeeGHv05/+dBnt108533e+853l+M39Oh9OiO1gX8pN2TgnZUVMuuCCC4qD6fdeT3jCE3pXX31178QTTyzHsk/n0Jzakcxv/vSnP5X6sDIk1lXfl/e1/vjHPy5O+Oqrr14iXo488sjeOuusU87p4x//eO+b3/xm7xWveEV5zrw889o+zzORB57VDTbYYLqN64JQ87nPfa4ISHe84x1797vf/Xr/9m//VtqAhz3sYeXzKqusUto5z7vj+N9xbKON9dw7XzmWHCuiiuY7ymS33XYrbZx7op1cY401ivilfO95z3uW8hPVREx5xjOe0bv97W9ffqt9PP3000tEFXFHlOXDH/7w3jnnnFP8BWX65S9/uYhEhDh9z7ve9a4i2LHHdthhh3L/2hAVteaaaxaxSXSW7Ql6xJ03vvGNvTvd6U6lnSfu2K8obHUj/ZRkReeTn/xksUUe97jHFfG5SVomyVA0qIzmJEmSZPliJJXxarTYtNhLL7108JdbIfgQUIgmhxxySBFRGOYx6tmGaQi2f/GLX9x73/veV0ZawbCP0ek2AyJgZHPKCCP3ve99e8985jOLI/CZz3ymjHSDg8R5IABxLDkU9tslFMEI+Yc//OHe85///OJcuTYC1Mc+9rHpc+JYfOc73ynbX3fdddPnW++XMLTffvsNPvV6n//858tv/vCHPxRHI4QxTkT83osgxXkxNYOjo/wvv/zysm2yYkDQEa3geVrRIZISKE1lmkuY4hQRICI4TMca1l4FZ599dnFytCddeMaJOIFjEXcINfH9Pe5xjyIY1BAvlFfsm6jteHGeKwLyAz3wgQ/sbbPNNkU0Cf75n/+5cwAg0H4SuurcQ0R8kTqPfOQjB9+0E8JcG/oq+yYQ7bvvvkW8aYMgqM8yWGGq3N3vfvfBX5Jk5SVFnSRJkiSZBxAfTEMg7FhBhGNSw4Eh0ITRLDplWJh7IOrFyKkpChtuuGHv4osvLt8bIXcsL8ftwsg1Z8kAgNHdYUY7DBbEfuXQ6YIgJWrISK0RZKPCRu45HX7r++c+97lFbEHbfjlmphl8//vfL58D37tuI161ABS/9wpE5zzkIQ8pI85G/Vd2iAJG05sQSOQ2ecMb3jDtjHG6dtlllzIq73uiwjAId5tsskmpjzG9g1jn87bbblvy/CG2k1sgpo/gqKOO6m2++ea9rbbaqkwXGTUtg2in3qs7ot/kXiFIus+uRx0xzUMk2+te97qy35j2cdBBB5XPXvvvv3/5zrma4gPHlvtlGCIbtt5663JtUY9FHmy22WZlv66HMEp02mijjcp3ItI4v3D+ytz3u+++exFk1fVXvepV0+f2la98pWwrEuY+97lP+c1cgnhKYFCvtHHE5bZ8EU0e/OAHl3ZnWUTOiGB0vGFRQfMN9V5bT5iJKEZod0XB+N+L4BXCeSCqhyjm7yB+7bTTTqX/iKlwBDCCeo3PIg26oh1NpSI0EWpE+0Q9b0J0Ih6ZyqUPCGE+SVZmUtRJkiRJknkAIYJww6nkMIZBDe/32muv4sxFiDyjV3TMKBjO4aw85SlPmf6NvAjyT0S0zaT4PWHJPpyv84f9+W5UdIRcF7Zh6LtmYg7H1LX67GUEnfGP2G89cu+YooOE85sOEBhR5qwY8a3xexFCca7gwHA45fEgpq3sED9EXtUoLyPrnCxTBAktxJFHPOIRJRpKvVI/N95448EvFocTKELD9Lott9yy5PXg7Jsas8UWWxThxPQY27n3r33ta4tooo6Y/gHHNOXDlJ43velNizirTexbfpdYupy44Jjq6gc+8IHi2BKR1DvTT0wdkR+EAAPPouN4cUQJVn4rUo6jLLJjWP4V25n2cuihhxbBK8QXv3U85ej81XF1nvjoWOosMQiundjk+3e84x1FjFS3RbfFuZm+qFzw1Kc+tTxPcwX3gPBHvCWoffGLXyyRI5417ccwtG8i+IaJOu5dXDvcM+WrbYnv1WfHr4m/2Q4iQRxvRVqKWyQnAVK9IWDCM2rqm7aUkK+siI21EOieadeJ3RHVSeRVn+tpfZ6tmCYVEJE8W3XkZI3jiqQaB22Jtl90aJIkKerMGjoio0pNQ7DulIz0aBiNMIUxq9HznZdQdR08NLBGimI7jWI0uhhn9NXoZMBIjeN0Kd8Bwze2jXPVgAd+X4egeq+RB2OaYRK/5xzUZVJTX0MY6f5XlvF7nX2gk43OwXaMp8D1RSfsup13fc5JkiTzHW2cUU7OImOaoxyYFmQ0WeRJINlnc6R0HMJxiciFH/zgB+XzpOgbOMn2YcpT9BPC9EUUcVaHwbjnsOoLTzjhhOlr0d4rAy8julEOoiQcK/pR6Ff0WaZ71REdHAt9W7N/8nuOjj4mEOZ/8MEHlz7HijjJ4oRNIJqBI+2e6MMnQZ2O/GccRoIIm8I9NLVPvSRY+lxD7CBUdNkaXXie7D8cenWJU+k7dcj+vOfUvuAFLyjHFokmQo7tVuP8iIcB0cv+6+exifokuo1w4PcibOpr4CC75mZUg7LxWw73OIhaC/vRVEnPQ9hLyxvilOmaysDzbDql14477ljajCVFNIkyDWGMUOb+mXKlPfE3ObVErdQQd9nv4woM8xHRLURYQh9hEVbWkVdM1I3nwX153vOeVyLHAuVFHPPMx6qij3/843vHHHNMWaks2k5lKsKuLkNRe4Rx+25DH1b7LqP8lSRJbiVFnVnAEogaOSNGdWMkySQDPDjppJOKMaohfP/731+MBxgt1IgSLKKTti+ChpEm2xFa7C/QEI9C4xwY9SCWMESMpg1rKHX2DBIjVM4XGuuA4XXeeecNPvWK4i6xHXSQjAedJUXevmojpcaIVxhnrv3EE08svxVa7LhetSjGOYhpAYxxo3/hJChnAhKjSE4IgprRPk5JMvvUq1NA3VSvjZwYPfXiNBHW5OWI+yQ/hg7/wAMPLNsK1Y35/eo+x00oOQcKng3Lj8Y+45npQr0U5s8xC4Rx+63nzzE8o7bx3Xvf+97BVguvQXi77+WPrw30Jkal7CNymqhnnM84z/p5acJQFU1hO2H3wpo9I/blO1MGAoZo7JMh6nlibPn9S17ykvK9Z0YbVB+fsCrh5Ktf/ery2TSBWhRO5icMYREn8r14diT5hPZQvVKfajhzRltNIRkXxno8Z0LcX//615doi5nAcfKc24fIgRj15rhzEp7+9KeXz8MwvcLv5dnQh3kGOKaR98azEA4CJ8K2oiYCz4HRYm0OISnwW6JB9F2B35vqVYfzm+az3nrrlfKuR6KTWyGCcOwCSWhjFH9c3NuYuqf8Ofv6CyIRQUXZRx2qUc9tp5/RD7ElRKeMgn2hT2gmWPWdY4ZQpR9zPcGCBQuKTaXdNz1Kf+V/bTI8P1YQMl1v2KpMiOtxDq5BX2C/VmwiQLB5mtMZ1feIQNGuc6Rdcw37zTl5zkSY1NdoKuEoQXVpQmhhn+mf1BuCKzvA8xt5bjyforIC518/k+pD9HdezamoNWwK/bvn2P5NtROdRaz2W/ajZ554JuJLlJjVl7S1Ihgdl+AUx9JXd9m184kQyeXT0baOi/qmr5G0OKZDqmMSTEOkWBfqrWiyLsFX2832YsOw54g8SZKMR4o6S4hwQ527ecs6Agn3oHMmMtTh3joTCRc5qTEqY9RHxyF8kNFrvrNRQuKLzlgILifPaBEhiMGNcaJQCBsBY0eDK6xSXoK2BJsBQ9uLIW90SmdaR8UwJCJixn51BrGcoQ5QhnwdJsPBCFrX3NlY+hCuSySTctNZKycvI80Bp0UnzOCynZG56FAYUV46CgktGeBGCpujacnsoN6H40cgZCC6hzp2IooXkYHByXiL+hJGmtFHob+HH354MTxtpyNXr48++uhyfz076rDnwv6IgAzlEIiacM6MqBM4RGo5R+flPO3TORArGWOxT2HbEi3CMQmKvifqdOX6MILH4LaCD2Mwrp3RH9fOMexC/fVs247R7jlx/QwsS4ByXLQpyoMYwxl985vfXKYUMIg4EMqCAGUfnjnXSsyM43vWHWe77bYr4hpDiXObzG/UDfdbX1I7t+qgaQhN59T2HCf1aBiex4hu4USutdZa5f3yRh3m4HpmXZtr9p0+RRmEAzgMYq6Rf4Kx/i+mnnjuXCeheRzBU3+ojRk1JWRlRftZO93a1mVVVuq5l3rCfrCiUjiYw7C9V22jSNBKBPV7USSEP9dWb+MZ1A/533b6wO23377Yb9DfqFsG++x/HJx/HMN+9aUGRKxOFPttYt/KWV2OKWQBATL6T/ZQff76ETbl8sK1iUzXh4rkIHyZ3qSvC4jRbAioV+xBdnPAfoj+ziuiC9sg4hgo1RaE8K0M3vKWt5TvDUyaxiOihE1CINNvijqD//X5cSzReu7XfIe9wYYxQGqwSJnUzzBcpwFWA2wGxDzTItdWXXXVItrzYdhYhEbbqqu2BV/Be7MYbBP3yG+vvPLK8r6J40fkHRuH4BSoJ81yH6cPSJKVhXZvOxkbo+ySusFoSszP55wKkdWpNqNidK46bQ1eG8LojVKAoS6ahQFhFKg5GjMTdJac0HGNjWEQoIyuGNFi+EwC4zwMbIJNiARdxHzdKE8Nv449PvtbHdLpXjAektmHYBaj3gSUZl6KGoZCHdlVw5AyaqPjJzQa6bW9zrxpEHsWGH4xetqEIS4KjePHGHR+nk/nxvAV8hs5CwICJ6GwSyhqwxQO886dpxBxYsqS4rwY4RxXgk8ImOqvqQH+xvj1zEyK50K51qOeyfyEUdvMH8E5I8QQ02uD17bqqL5Gvg7ObhfylRA95N8wGBFTjDhDk+CYITY5F8eOc/K9vzPaiaucI46Tut6Fa7ONyDcOGaHVNTXFq8DzbvvYr8EIUT2RV8WAimPbh75Ce2IAw8gznF/83kvfEhEiyoI4ql1KFkf56KMDAyrDkmu3oZxrO0D0hu84ksPaaL9hf3g2QtSpI2smwQAbG8yUFM8VIUF9qwfJDCbpt9RvdoiIIlP/AraaaJ7IzzQO7EHXEM+NaDZig4GKJspC36gee65cKzGqRp9hsNFz3bRBkwREHb6KvmO11VYrNlJztVs2mvbTgKmBNm2yAaaAzeU597zAvthq2le+gd8RcNhtbBsQz9h4XXiePMcGsDxD0G8861nPWkzEkX8pSZKFpKizhDBc6lBvoeAIw1j4etMJ5ZgxECK5YxOjgXUHrcG0PQeU8zsszHQcNJaMpNkYRTPa4joZI5OO/PhNTHHR8A9bOp0IxThXdmHcMfAZ5OGoM4Z0JqZpJUsX0WW1qMMg6MKIJcOyDQIng0GdNmUqxCFGLSKnVCAirM2hE4XDKI5lOBncRuXVr4i48Uw1Q87D2Zuk7opoiDwJnuHa2J8pHMgowzDUPQ8c0xB/fW469OOiHFfk3AArC9q7ZgSC+mEk3ohpjdD4SCDJgB5mRDO+bW+JcNFw0TdFnoVxYdiHcU8gIaJot2F0lhjsPI2WWwJdFEHTGa3RV3EEjNKb7ihy1DNQOxU1plPaZ+xXna+nihI35YdQXiH4u2bbQ6Re/N7LsUQ6RXskCjRyviSLoq4ZwY+oTMvOc84mga0Tq+ywrUx5CTGQc6edZguoFzWifA2i1dEo42DfnE/7DEQaiKI2Hcc5EHVEakRiYlFdnNu6HhCR2EKBKYPqvedoWD4qx+ZUs2tEMzSnWXkulWczMttAH/vJ+Q9D36e+N20iZdyM7ElWPtRPbZp+BUTupmiiHvNr9B/aSm1qPc2SrcXuCtuLTWU/2k5tvN/5vWeinsY7LOG8gSztvcG5ODf2fdtKZ569JEkWkqLOEqJjrcMVw6gwaqPRIjLE6BXxgeHMIfYbDVQbRIu64bKtTt93GtNYLnOmaBwxSaQOR9a5e8mUD9dumgijwflNKja5Lh2I0VSjn0KIYTqX48SULlgRg4Gow6jzFlmFok7MpswZQvI4mFazrMK/VzYYi4QCI4CMUaOCYMASZ+pcCkQKAkuMhjeJ+sg5tS0Yu0J1fcdgFx3DkeOMNQ162K4WSe2T8eH/CPn1fzgcAaPYc6D+uB6OSCzFO4w254Hg6trDKelCnZT41bZRbzks4ZQrA8KVv0kq6Hkzz98zNgyRSkaQQwhTJsRSuSU4R+FsJ/MXzq1no4bRzUGL5yjwffQj6vkoUc8zzamuRdPmijCjcG7OEfHsxbMS5+6cOADqu1dX1A3sQ5sf28a1hxjbhANe79ex6m31OcrBeUVb47uISHK98Xsv5x7tCBx/VDmuDCgHgoc2zIvooBxFMFpWW8TX0572tGlBHcp4lAjBXrKdKbTafFEw6g0hU/vme+XPabQv4oppMaKvIlk2rJblvLR/wwT7aP/rxMvEGoKOa+TEioIhtshhZXq99liEg+uNPkd9cq7adb9j16gzbJauaSbgEOtDTUNi47Dv/M41Ojf1l6CkfH2vr1UupizLMQXbsJ9cr2hX0xX1kVFPRevoQ8MWcjwiVjynSTJX0f622XtJkrSTos5SgDOmE9aZc/RiJJ9hojNm6HBOGQWTYvTRKFI4g8sKxr5z92K0gfHgGjjBjKpJI3X8luHB4KinSTGOHIeBF3C2GSOEozofEOOJgRf5IGCE1e8lmh7lYCczx8i7SJJ6dNGIts8Mxlo0fOUrX1kMXkLDpKgjhDyOICN7acE49mwOczKH0XXtTRjnHBfbjhJqPAsEMdMB5FcYhoSCHNhoVxhEPhOViW45FTFJktnAgJTpRdowrxDu2AnyeJmCEUmDA59tOwqRUaJuRGdFRABBmkgkx57IAscj4hjF17ZZUCJEOschljiWdjYEuTb8Rptf2wmcSKIN/B9OJRHFsSXdjWXKnWugnXZcL+cK1+E3XWir5V8jHEmqHNELojaVpXMXoW2fhCP9qIgoU15CcFUO+mLX61rsU0SEqSoBYSf6BdGqM018niRJksxdUtRZQnSkRk8CI0ciTzh4DAZGRUwxCuTLiQS/bZjOVc/PJgwZNQShQ4LhSXKANCGMGAUKI2imyNFhVIuBZWpI5McZF040B5qzamRsGMqYU88xJfDUELrqqB4wgIhow0KfkyWD4SqsuxYLCGwMcCPmtTFNmGGkDlsNhUAXwqAQd6KhUU9Gu8irYSOenrfmcxaORkSQidJpjvATChm7Xox3TsSwJWiHoX66duH7wxwJ9Z4Rb9sYufZ8G/kG4Yso7Jpcg20Z5cL/m9PRaghAzl3dh327N5tvvnlpQyaJzEuSlRlideRymA1EUsTzvSKgbdF+xauO6CJAmBKh7a4R1RLCwjBi3yJUog33O7aG9ln7CZFocfzaliE4xfd+0zyPGu206ePjrJQFbTGhJtr3OhLJeSsH7XYdXRDTUrpwPcQcdkxcr74wzlt77r3tROS5Ln8P2JhxvWwe5aI8/B/o9+xbH6AuEoGSJEmSFYsUdZYQIkskeuRwWc2GqKPjf+5zn1siC+TUqR0qI0ny5nAo2+AsG5kH546BEJ29Dl4nviQRKJxl0QTDHM9xIKSYM8soMkol1HlSGCuEsHpUqQmxyMiV4yhT1HPgGZGRBPZHP/rRdA4j5RsGYDL7MEJF34wbAUJ0qMVKiDgTyaaOm8YXdUjiS0JQGKaiUIg7piG14bnwjERUnNwO8mNwJGLJdNFkMcUv8CyIlhlm+DchYEayVGH7tWE/U4hW8cwTtjgGrsnzDw4Dh2KYqNOFciQ+r0hO5cpK1OWoF+pfRHsRLetVnPRDVlTzMmVXXUc9fZUQGgME/le/oq8yXSOOB23rMJyHfsnLb+1Hktg4P22259r3zt852TaOL9oyzldOuhBjXaPnvhbo6/MigkZ/4Hexj4jeFAka+6z7jS6Uk+hTz2CN8mxG1ul3YoU9+K1zjXOI47EHrKjXnP6ZLH+0j4TvrgT8KxoEt1jVKVm5MIUxbBeI8oq2SzL9NrRpVt+0lLsVNLXXosvCB2G7aBut/mvhCK9hKSLYZfZ17LHHDr7plYFdq44F/An7sR2b0aCU1eVErRng0jeIQBYV6LPofW2z99G/mQqaJCsbKeosIYw1DqHlxjVSGjuGHIPQ6JIREkZpLeoQGoze1FOGaoy4cE4ttWhuujDnGlO3xlmCtYaRLaHtGWecUZzHCA+eKRp2xjSDCEbHCFWTIqpBOHE9sqVcYq6+nD2c8UiWBs6/7wPHlkcnnAUrpYhqIBbllJOlh9FA0TdN56cLoowRxvpZ0Fm7Z+qADpsDpm5b6aaZAM8KPZZH70KYu7B0BoZ6LgcC4UkCSwKfnFaEpRqrmxB6JhH/JPA77LDDirFjmp/zWlI884wR564dMSLNSHEcxgsjifE1EwHJfbL0aDOaLZl/MHzVA7mWtMEi5cIol4usTgROHGR4y9chujOi4A444IDyP+RaqgUifUPk3vAbhnpMmSRKDMNxiCH2wfj3OxGpIWyow4QVETCWGNfOE3EjhxVBSZut/tvGeThnS44z7K2gRyiB6w+0GZ5jGFRx3l4hgEr87LMoQTlRugZTAufVljCUQ6SMAu2K75R5RHpouwhO++yzTzlmHMtzK8nzWWedVT4ncwvt76T5o+YjBvLYfuNETCUrHtrTWtg2+CX3JKIfaGJQ1bRHq3wSrNkRtmVjQVvNVjGlz2q0Xl3Rzvoj7aN9adNDnNe2S5cQsAftx+pv2kyfDzrooGLjvf3tby8DXsQp4o9l8O2Xz+R6IqI7BjGSZGUiRZ0lhMMkqS8HlNgirJUjyUGF6IGdd965/E9Vhg71Na95TXGIYeS/Fm4IHJbpMw1rp512Kk6nSBUJlkEQGkdA4XAGImGo8oxLiveokGDHNqc92HPPPQfveqWBp6Cb3x3X4JqIKQEjSXkMw4pIRowsW6iR1kAzpCUi9NnL9Cw5cmpRx6iaqB3z2R2XQ86INo+fM6xsRTP53zSgZOng/qj7YQyLqtHpE9284r6KpFL/RYvYnmHJEXX/jADFcsvqpPul49aJCyUnRsSooufE89U12u05cc+NHKkvouhEt6jLouM4ahHizpl1jupvhKJ7ltVr3xvx6TJynIcVeTbZZJMybZCgqJ6Om6fAedhHDWHYedgvkZL4pEychxEnjq5nMAQ0YrEyCpTRi1/84umy53C6NmUOz+OkQnAy9xBtpV5KBMuIZaBHxKXRy/rZ8Oxo99UTgkJM4a0HExi+IdoQiYgWka/N94SiWNWnnmbcRMQPg9pqJeowUdZ+7C+iWzzzzo8hr45bGcvzGuKtZ5PD6dnQvmvD/YbQ+dKXvrT0D8R8jokIwYgc4pSEc6ANEj3qZX8gDvlsH5wNZTcM4q9nWTtR4zwiqggGDvTT+kF/0yc7d8+fZ9cx6+Ttns9woJIkSZY32l5tfAj+bRBbDI6yj9gl0e5qmyedokoI0j/YF4E97BMDV9pOQniNtrvZDkM7TDDXx7ExtbPOhx2lj6yFqyRZmUhRZxYgLHCaYq61BquOXmCc1v+D0Wc7+E0z1wdxg5ATSVt9rqMJNGajMGUlEFFDaJKML447DI1jvTpCfX4aWY1o85zq4ymTek53Gxp0125f9ukcfWbYO08vTnnzON7bd53Q1mfH9HvCAAFslHCVLBnuAyEi6rU6YnUS0QNeBEmCj3wB0TGLcvHeSLvVPozuRz3xvXxTRr85Su4lYSIEUvh9RIe1Qbi01Lq6A/vgXAnvlejSZ86tz87Rd3FuBBTn5HsRcmFwtEHMcRx11T6VAfFxHIhNkWizhhB13HHHlUTo9gnneuKJJ5bzqZ9bBlA9Gka0Eq0QZU/g5JiaGsqJdy3jnl8ydyEgCjXXvolwMS2vbhtnGwLpRRddND0VqgvGuPqmDfayRH8XnneOgXqpjxkWIWEEl1DvedAP6Fc5IIx6EZwQFTSsTQg4AYQnouowOBi1YNqGCEP9jLLXfhiwCRGpC9sRuFeWaT5Jksxt2PnaMe1ZFzHzAAaFTakFG0jkZSCCR6TksAFn7X5Ez+u7tIkiLfVn2s+YYmsAQfJzUThtg8OivQ0a1H2f75yf/iem4SfJysYKIeocffTRZdqFl/B0I4xG9GIEkhHF8POgiwKJbU1H0hBwPn3ebbfdiiotbNtIY0D5raf7NBFGuMcee5Rwwdr4ldCXgRgIe49jG+UzgikkXbQCo1CoYRzHufleIwkNJUU9qKNimhg1PPTQQ0v0iuU+GbPm/keSWtdnNNLxGdb7779/ufaITDCVLNDIanQdu5lTwbkKhXQ9wuzraTVNhNlH2TiPGPU1csuRDoTa1xEFRjZ1Im95y1umy+69733v4K+L4zxtYxqc/x1LpxR5j7wX4s8p0GHEPkU1KTcoB9ccWIrbNs6hjn5qQxiopbfNGzadRpkJE1UHP/3pT5fRBCPfHPDowNRTfxuGuhsdKKfG/Xd/lT8RYFninsWUQvdGWapTMTXBdzH1wblyPt1XL0KI3xlZjxF8v6ufmzp3hrpQ54JRpjE9pA37cZwwUtzT2LffxXxr5elc1MvYn/sS5+nZjdEexorv3DvUzzTUMftQj+P3sdKX/fvsfkf9GoblagnENc412rJASLTpiXHu6msc2yueL4KaepusGBA59VFET3WL0DepqEPYiHav7lPaMPhAKNVmDsOzQXQJhk3JJEgaITZlSXtaP/tNiEWm6MJ1Enf0Z8ROdVz7qgxC4Pfcua56Gpr2xDPASbAvwtgwtBGjpuJoGyJKFfUAyDCIOnWkVJIkyfKCqCKSeSapEwjf2rKw47SHBuXqVWvbaEYME+fZjP4Pu8WgtbbSgJ7/x0UfYbArpuMmycrGCiHqcOAYbV7bbrttMfw4WjEiZh6+hoSjyaiLbY2M29bLZ464kXJKr1wW4cTJJVCHUddwWk1nssw3BboWRAgrRs0D2zqOaRQcPA2YBsh0Iuflewa08zR1xWcOs/wDtq2nQHHc2uAwc1aNbhKF7MuUGMJTOLSMaI24fZsCZZqV82cMI+bKgkFMNOAINJ1Z+3zVq15VRDGiSdd0FRAkwnh3LeGoE5ve9a53lfcwHSDC/SHyw8iu48d9k+ehC+GhtiEa+F+H4LghiKgHnCLOsOuKfZoWFNFI7o3jBRwf2ygfTg7Huw2dm5Fl+1KmpvgoY6KGOmh5VA66clNeBDdwUohsw1AukZhOPXKfCXEiTQgQwwS12cbzpl4TGk488cRS1gSNKDMCVayEppM1esI5Uw8jeso86RA5zIGOUXeYOx3Yj2c68Cx0hfy6zyJUHJPgBXUpxEzn6d4RkQiZ7g3BLZ4lkWbujfrpnDmLtvUc2Wcsp77DDjuU/wPTsFyfMuAMetmX9se1ieLxnhDnmF0Qy5TRWmutNfhmIQyUOizZM60+2p6jCsdwTM++40f0EwPLcxltWTK/EQ2jHdBvaMdmEqkjSizavWaOqTaMoHqGhrUx+tBx8VyJQtV+cSjU2UlwLP2xkVrt7eqrrz74y8JFBlyXVY8CubxMYdT2L1iwoPTvS8ok11tD7GoKtEmSJMsLK6oZ9O6CbxI2lwGuELPZFuylGFgS9SMi2P9diMgJwYXNx4bhl8RMBzYcO1ofISdi+CRN9HmOU9s10Sbz60SX2neSrGyskNOvGLoe+BARCAjjJsxlwFKfOZamhhj54zB1qcVGyM3VF/4tD0AIJxobv4tVmWoYlULAu0buTT/ZdNNNy+gfwUi4PTRSo0ZMGbquX84CKjzRpbniT+AcOYtGLjmBjN9QyifBnFblVo+OjguRQ3mEACekM0Qdzus4YfXLElN5upwQZWnEmDikvhBrONg6RIKC+63MlRcHSQcZ1z1THEd9XZaiDvFAPeecELxcE6fPCHwTna9njxNqKh0nclKHiOEwzkgSEc1zK1xX/goCUBvqlXIjiMnn47xdi+eEMyiKgCjKsBDZx/m0T7kyRI5pV6KOEjrjmRc9oP56cVZh35xOBgqnMgygNlxj5M0ahmhEkYFyEhnRkiPE8/7MZz6zGGCOr+0JNtpoo+lktMn8RtvhmdJmLqu2Ub4m7bS8OV1o52rRn5Og/1HfQ8i0D/VSWxV5ezxrvu9qv4i0kfiSmG1/hBH9lf1qiyMn1jA8y1ZOFNU7CsK9Yw3Dc1dPPRBxG9MShqF/racNJ0mSLE9EWNYieBO2ksEvgwkGncIX0g/xHUIkZ0Oxdb26hGs2lKnv7EUDa9pZbTObxWCW30V/oR02ONoWTcqGdN78L4Mbjlmnf+A3sRuTZGVjhRR1PPCMX6PsHGsvDcc4cLwZjEYSNRQSlHLquhDJUk+XiGX0NIBGDTU8MS0lYMBqzLpC1DVi9egjsYVBLSljHUXTBkNaYxtRMwzIGLVvIsKjNoglph02t3YYfltPoxoH5cDRFWJpKgmo9SEOmd5l+shcQnQPcaINHZLyJih6eR8iGWFRp8PxcT90hMJXl3TqlHpNQIjImGWBUXLPhs6XWAXXOSwHzZKgDhBXhwlXRnfUm3huJIaNBKxNlL02wvl7Pv2ma3QpkqbClD6iqm2jrofDOQrH9FwOuwbOrfo/DG2ZspCsHFtvvfW0gNSFZLkRrZTMb9Qh9VHfoX4zfJc22hiCYUQKtkG81JaJSPSMeC48JwRu/Yw+UF9JINIWipjz/OlvDF50Cb2ukWhKMCFM6tdds317prRFtYA5DIK8cxk1gksgbU41buK4ovmIvK5Hv6zvHQUHRH8e6DOIz6NEpCRJkiWFIFPbGJLPx/8Gp9tg7xqEFmFjkFjbF9vK02dwSZtskEE76FVPoa/RHxjgYu+LwNaPmZ3g99pTIpF2lMgDeQ5D5PE9uyf8JoK/fkUbbBDP8bXx8HsR80mysrFCiDqcIZnUTQWJPBhGzUVC+Mzhi9ExuV9sW6u4psKYYmXlDg2DBozByFDVyGjEuhClUI+YxhQeBjDBRIhijGAaiXdso+wcM8ZjGxqq2lDV4BE/OM2EgWHGNeOYEydXgVFJTiD8Xvk4vmlhjFblUyd3ZFx3KeyjkGxtWK4Ax5NzyPHlE4L74v5okKn3CKeFg0DcEhoK+/Zb4fZ+Nwm2F47p96a11UKL70R4jMJ27pu8SPV0oGGoP6J3wmFxXepdCAgiQ4yALCmEiWGj6LMNJ48TEonqRK54DrqEkTb8Vp30u6ijXYg+MUI/zBkjxhLJRKnBubQlI4bn2TNGmBl1bGgLwJhQlzim8plAxA6jBIwP11NH4/jOdXr2CTrKaxhxrC48BzHFDM5J+QzDcz3pM5PMTUxf3HHHHcsz73+DD4H638xnYLumuKm9DUTQRZ+ln9EfRN1iZBProS8btqS5NkEbKU8OwcYAhHbPCleeNRFxImX0a66BOCNSjqAh+Xmg7xUlF8QAi75Zv8epYNzbF8PdMUUJxeixtp2g6xVToa2mB22CQZdRAxeiCYkvTdgCyjMwGszRkfQ9bIfA8Ztoo7RPdf4d57vFFlsssbifJEkyCm1YbS9Y7RNsIhG9bWivLMSgvYt2VgJ9aJ+1ffoOg17afa8u2wsGcaVsMFinPfW/dpHto633PhZ10FfEwLN23wB6tJ9+65j1wFa09fqwOMckWZlYIUQdDYsEXVa80biAcSs0j0PFgWREQqNmWyJEwLn2PeNQfpuAMNRMWjoujDUGrMZFVAMc07GNOMrTURuI48KBNBd12Ig/Y1yuHP9bNYcxyaA1tcPxGfWudVnieHKSOH6UKYfXKCyHgDMc0+U4EsQPU9eiE3Etfiv6aZwR0Rrb26ffm0YTYZo6Mt/VjlEXHA/nwCmYNHw+xDICFSEtIA64fvly5hs6XqMxkW/DPZwE1y1/laTXBL1hI9WeIw5i1+jPpBBCGCgEN8/HqFH5NrQvnMNoV8ARdD1E4ng+RQ+9733vK4aHEa1JyylJajx3DF1tmvarFhL0Yc1Vm9TPOuoTpvYGsXQ4tGvaqBB17L9eMS3yN3WhPyPcmwIZQpG2z2ir0dvI32P/+gJTp4js9QCGtrm5ShsRU96r+vhGljkOjHlCUEwfOPPMM4uA7xV9eT1iS+AaNtUA+n19dnOqpGil+nmHZPumaTej5ZoOElFV20CUqtEHGLyoB1dWBFxvl40S/TyGiep1nxCj9V3EvRq2P3agV9C8v0Hz+67tmuc07v6US5vI3vX7JEmSJBmHFULU4SgRZkRGhMPP2CVmcB4Zp/E9ccG2dVQBA9SIIhHIqOIkMGQdp0b0ie9EpJhrH0lOnZNjC10cliPEOda5VkQohDHJCCQMjDJyQF1nbHI2XT9RyfE5pBxbDkCdB4ewEqGNk0LEYlx3Yb+O6/ixHDvDhkEr+oajEmUiB4upV7WD4vd+K1qpK1S/C9vbf1x7CH8cDt/Vc3G74EAQo4bdtybukzJnxCl/gpQ5yTHSoA4acR61otYoTE0YVvZLA+Uowsmo+uWXX17q5SQoF87ezjvvXOpplEkbyo5DFRFebXAUI0pvHNSnzTbbrAjBovcmjVDjeHJK61BmDqPrIRJGHRUJIbGy+eKjonDGQVu3LKOykmRlg6ijPYjBmNlAf2aEPKL6amLgYkXCwFXb1FQDNbFAAESqEvya6NNEfbERCDUS88uFBuK+vGKBKbL6IFh0wUBeYHXIEIfYYnUEFrG9ubiDqYP6gxpT9pr5AtUNA2c1puo398f+PP744wefFsIGaMtxRvTLaXhJkiTJTFkhRJ0uTHcRgj3OKJgRUGGEMQ1oXDjTkTCRAbJgwYISeUGYEA1gqXLGSD1qZRTP1I+ukSxCQyREJt6ICIiRT8fT8Q9bacrfnQvH0u+6hCrOtJWK4jysXmT/nOgY0RKFQRAZBUOlOcI6CuUmekE5CWEnqsGIsUidYSGcywPzeRmqbaNsUIeMQhpxY4i6DxwE10OUcy+UdT26TqxgkE4iSNQ4F6H76syyhDBn6pF7ZHphvbzv0sBxGORdiaWN9qvnMdrJKWsa555L98E9iHtIlPGMdYk6hJjYlrMQUQxEGlMviFvjIIR4NqbaKWfTUELUdU6jVk5LkmR8CMym2M5mm+b5f81rXjMrwu58QHSVqCmiRmBwihDO7gisVGMadL36obZ41113LdPrlBd7hA0Vg2fyxxGGwm7Rf4aNom8N4cagCjsrzkH7X/ezBvJEUEZ0j7/pM5qLahiwkPg7+gj/m7ZiQKbGlDvRYbE//YYBq2ZeQPVKXxARurazWqM+btjgRpIkSZIMY4UQdTg4plB41aNrHGaRIHViQiNAsW3TkTYfk3ExiYPN0TcKR5AwmmS0nnPJuOAAmrLTnF7DueeEdo0Emh5lBSzOmykqMsbXmELUldmdoWM1HMYEMYgBNCyBLTFAfhCjWJLecnKF5FtyWtJL18bYACEpyi5wDc5TudW5EMZBeUXCVyKBe8PAEUmj7GrjiiEVxx4maE0C4yv26TrCee+CIOAa62XqaxiW6g6BS7m59yJCCDteRLZIclrDgI2Ew+PCmZdfxYgfI3HS6KUlhaHLGDetjdDiupY2pl8MW3pTJNQHPvCB8t4oKlHNPSM6eS5EWTlfz6fRV/ebCKduhVjTxLMQx7RUssgecDS8xo2Q0gapY7MRYh8rsGn3OAOj9hlORg0Hqe37JEmSJUVE4Z577lmmt0aksshO7W8MUAUil7WxIoW1xR/84AeLABZT2rTNbALCjsEmORTlIwwbiJ1i6iFMMWfzwT5FSuqnwG6obSGRwI7D1tEX6NcdU19dwybyO3/X5ppuRwyqp/BDJJaBQYKTNtkAkHJoDiqKDDbN0XWCKBVRu0mSJEkyU2771mHZD+cJnCUduREaUQuRXNe0Kx0oQwIcO9EhsQyeURFTtkRYhPBje44gx9soUTNvQROdMYfWHH6YM+87eX78lkFiP4wQ7/3PGfR3U7ccy9/9JkYGfcdZZJQwMIg44UD6nelZRJA2ESWmGomwUSZEm0guRkiK/AWuz3auWw4Q25uO4pwYQj6L3JHEMUbBRGYIn1Z2xCvn9NnPfraUOWPKvrrEBd8zgpS13ykb90OeBZ+Vget2LGXhuu0vRq4IGJxyxzbVa5SAVBtTju16wwG3T8dhbKoP9mk0j/Hmb7YXXRN5h9y3mApGzCACtYXM2059IhhwmuWNsB/7jX0rW/fONduH7xiDBKBhCW9tr3zUT+8Jdkb7iBKWfXScZYnjOQ9CivtI7HD9UK4hZgUxShorh6lb3rt+Ze8Zi3pGEIulvQl9jHHin78z5OUIURZNPFvKXoJw91ASPffcs2mKG4eAIOKYDHTCDwGUaOr++A0ByDMQz6L8G7bz8ixJ7koANcWKaOTZV4ecr/B5BrpoP46HuuLc/e+5dV3qbZRTE+2Yut0UyDxfri3uMZHV1AF5RpQF4cm5g6DontSIKFJ2ziMQLeg3zVHpJEmS2UAbrQ9gx+i7tTeiWfT1Ndo1dsFhhx1W2l7CSTPRtKgb7TZBSPurHdXu6k8vvfTS6eTf/k48EklpYQMRNfodbbeoZPZGPaiiX7d6Tgj9W265ZTmXGudN7LHAhPemv7Lzos2t0Y9o54lEBhhMx+3qqyyWYdDNdDLHZfckSZIkSRf6K32Zvo+PuRhTDlmSJEmynPnNb37Tn3JE+rfccsvgmyVnyrnob7DBBmXfNeedd17/uuuuG3xKkiSZfbQ/xx13XH/zzTcffNPN2Wef3d944437v/vd7wbf3MpXvvKV/plnntm/8cYb+0cccUT/T3/6U3+jjTbqf/e73+0fcsghg60WsvPOO/d//etf99dbb73+9773vf4pp5xSvt93333L/00+97nP9R/ykIf0b7rppsE37fz2t7/tP/rRj+5fddVVg2/aufrqq/uPetSj+tdee+3gm26e+cxn9s8///zBpyRJkiTpZq+99jLvuL9gwYLBN4uyQkTqzDWECYsEMGJjNMmovdwbogxEqMB3RqSMPgk5FiEQYcnChY02+a2XuejDojiMzlPujMZHEmAY0YqkxKbIOC8jYSIMRAV43zbaZF9xPCNYXrYVoSIKQQSLyArnKQpCTg/naUTMCFQbooFERYiScp0iF5yTefd+KxGhETzTikwd851yiYgJ003sw/eiVGJKGEQViXSBCBBT12zn5VyXdRTLyoCpO/WIaz2Fyf0RxWPkMVYc8TlQ/9qiVYTfi9pR3+L36Joe1dy3kPc4pzg/I6aIet4877mEtsAzpp2YrelsRoKNkpviUGPkOtqiJEmSpYF2l90hgmVUQmiRm2yZtmlI2kb9OrvEVGURN2wsbb+o4bATwJYS/cIWkZia3SHSRrRPM1G1/kNEc/QdEUnaxrnnnlv6D9G4rqXNdpqyqcs1wHU38+nUmDbGXhF9a/pY3UcmSZIkSZNRkTrZiywFCCs6c2KD8GNGBwg1gY4/lmjmdMmNEXC2GB+mrJg6NszQ4ARbRtbUJtM/akyxiPwzpk6df/755T2n2WeiUhuWi408QMQWog2HW04RRtURRxxR/uY8JTo0PcTUjlpoaWKqEMNFnqNTTz21CDqmPUFCRN8zwlRY+/UdAclnmMfuO69YGheMogMOOGDwqVcMLttYUcP/IfYks4ulfCOnASz1DonJhZ2/+93vLmKk+6d+q0Pup7pyzDHHlG2b+K2/uXfy5xA+sffee5f/m3iGCIAMadPdhMcHEmQ6ppxDcj7B9vUzOBd55StfWc59tiC67rfffoNPSZIk8w/TxtkM7JaYVi35tHyA+vwaU6rYOqalGtAhruiH2hbM0Eex097xjneUQSPCTxv6EIN0VtOyiEWX7WRQyna77bZb6ZPaVgCDacWx/L/tDIQkSZIkyZKQos5SQFQBMcdcajk9IjmfDj8wMhRRBEaWOLsiGGBUikgjmsUIVOR2acMympIRyqNhNIphAmIMgyaMFKKMlR0YE5xgI07+b8N5xDKjztOLw2wlL6taiDpiuDhP5yeKx/UOO0+jWowvohDxh6DFMCLg+C5yhjgv5eW7t73tbdMCgBE133nVuVpck7/FMs8iiGxj1Mv/9fz5ZPYgFh588MGl7GH0lMBo9NF9k9fKyKp7Kh+SUVUGOOO4Xqq+Rh3ddNNNS+LoHXfcsXf66aeX70WVteGZkdPJOXiW5G5wfDDW7S8SIatXHIJaEJyLeKYi2fNsQBxrJiZNkiSZT7AftI1ylkUUoz6GfdOM4jSQI4pYlLLfGUzSV4kWqtEvEHPk32G7vOENb+idc84503ZYoB8RUaxfEg1NLJKvR59S47PBOfmARN9stdVWZVCBGFXD7jnxxBOLPWU7yZq102yzJEmSJJkpKeosZzikOnOiDINlEhgfDJ1I5MyYiCkrRqbe+MY3TkdTcK4ZPxzsUUhCyJEW0QNiFOc4VqoSHh0rN8wE59ElKDVpSzJYw5EXLWTaSrJskVCSIBkYlSTK4FnPelYJV5ewmihoNBRGTRmyo1CnRyWOZNAzkEMcFdX2zne+s7xvYiqi/XVND0ySJEnmLgaU2A1sGRhMkui9aSNo54n3Mc2W3SJ5f1PUMXBlgCkW0jDYYBDOgFWNgQPbRSL/GEATJVojcb2I5ZhyZVDOe4MbNVYKdY4RwW2/EioboGsKRUmSJEkyLinqLGc4vMQZQolRnUmQw4ZhEwhRNs8OcmkYUbINYu65lXDGgXHC+ABHvF4KVHROc/RpXBhl8uqEgTSMOPdhODdRTc1l45Olj9WlaoOV8Be5DYiNRj8jrNxUKnXVVKwQB4fhvjZHTJvYp9HYEAjVA6O06leN8zIF6WUve1lrbp4kSZJkdiBMWNkpXtpxIkb9XddL39D8zuCSqbPEnI033nj6ewM5VjNk69Tbi9q1oqHpt/FZNHP83cCWiFHT5Ikz8b0p4qKJHS++8zKopS8j9sR3ooX0JfV2+jy5yuKzqGnXrd+rtxPlqq+K8/PShxGVTO2KaelJkiRJMgkp6ixDTA3ZZpttykteGQgB5nSKNiGidM3VngRGjGgII1iMigjrNWrEkBhHLGHsRBQGg6NOCuj9pEn9TJURsswJd62mRrlWeVSUhzIIPvShD5XpXjvssEPvzW9+c/nOdK0ot4jMYOgx3kwvSVFn2SPqRaQZAaYNS9KbBuXeirxhGBNiRO+04VmwdLh7L4+OetKFYzo241hepUB9kUcmhB515bjjjisiopHTJEmSZOnB3mDLxMu03BtuuGGR77TzRx999CLfeckv0/zO1F5CBxtCxE18/93vfrcINNp/U2v1GwR9UaG+j+0IOOyD+MyWsI3ztI/4Pv7Gfqq/M4Dl2N7L32eKlt81z5UY1NxfHKf+TlnU1xEv27mWFHWSJEmSmXCbKednvHkwycSYr/3CF76w96hHPap8Nt86kr5yPDmawn233HLL3pprrlmiaBg6BA+OsJwiL3nJS0oEThuMDduYu11DPDIyJcGySAlJ+xg7RqYYHgwIERUvf/nLi+jT5NnPfnaZOsOAMY2GocLhNgc8WG+99co2eNe73lX25by7eM973lO22XrrrUtyQIKAVSnMV3/Ri1402KpXrl/OHBFHxJpYzctvhUvXEH9MM1OGRgMl7w3s04pZydJh2223LYkeGefqrkX01BsvQgtEx0hOSUgk6oj+cs9OO+20VlFQLh71zYilOmoK4Ktf/ereggULescff/xgq4WcdNJJpS6rKwxkCYbVD1MO1Uf12jRC0w/llzJVTO6CeBaTJEmS5YNFF7TRu++++6ys+iRah51jQYWlKd5bRVCfxC5LkiRJkmWJgWsJ+/lFBqybZKTOcsZymptssknvda97XUnUZ3rKuJhqEgmCIQri0ksvLaNNcptsvvnmZW454SQgdkhaS6QZRiQcti3xibATEIgkH5wJO+20UznHYYgyEgZdL8/ehhEvwtMuu+wyKxFOyWQIP5droGvaoFwE6p+6I1ydOClypwvGvWl+7r1cCXW9bULMM/pqVLMW70SRiRCKFa8k4maEEySJiEmSJMnyRZ9g+lRE3S4pBnVMj1raOWnYPl2J+5MkSZJkeZKiznKGo/nUpz61iCgS8BFkxoUDy1EWjSA3j8R95p17z5mNKS/11CTJAy1ZbmRrFBtssEFZ9cFx5ONxrsQToc4idWYCJ9+0rnq61UxgxJnG43pdp2idTJa87BENIycAROgQciBknuBjCiABUa4BdW+cXEoQQNhl8Lv3BExRb0Z83f96ZTnHigThhCLHFfXlvVVRkiRJkuWH9tmgDFtlNog+yFSvpYUBCYKOqVix6mOSJEmSzBVS1FmKiDSppzfFqg2QVM+UEJE2sUQ3kYKDytDhgHKI61w2bZiW9O53v7u3//77l99wsgkvscIQB9cqQfbleDDFRTRD174JQSAYiR5yDa961auKw77XXnuV83OcwHXGvruwDefaMU2B4Vy7XitGmKYm4kZiQeXStgw5Ycp2XqZo+WwKV1yD/Ct1xIgopmTp476uvvrq5f1TnvKU6WXFTbHaaKONyt/VNaKbsHj3vqveMZQZzPIKmNoX0/ki14CXKVccgnpp8mc+85llilVATKoTe0O9EgE0SSRckiRJMrvou9k8xPnZitQhELEBJDteWujX9DuRzy1JkiRJ5hKZU2cpouPnwIYT6zPhBVHsjJp6RZ56m/r9MIg49kc0sX3zOF5xDv6P77r2bX9xTvaF2K/zjeMEvq+vs436nGJ7xLQpn+PvbfuqR/T8zTnU1+C9/foecZ7J0kGenFgKVrkLfRdpJnnk4YcfXgxs4qH7E/diVL0j6l1yySXlPYHIinDutRxMEdklf4+laQmNIVw6phVFQMQE4Yc46XeEJZE6onlEwsnzkyRJkix7tPNEfwsdnH/++YsMds2UF7/4xSWfG9He4gtLA7naLDJhaq+cbqMGspIkSZJkNhmVU2eFEHU4bpF/gxgRDpwOmFMoQiA6YHOujbRYZtLoPbGg7pw5qGhzPO2vnubhOPZv2xAh7M85OEbM7+aAdhkujhd5cewjzguc4di395xXt0uES50MUPSC7x2D8xzXHjjPWjiq8Tvn6v9IyNwsk1ogqd/bLkatRAJxnu3HK8ovtlcWIi7gXJyr38Vx/MZn/7vOQFmIXmpDOLTRviCcfN+5fsfoWmkJjhOiknNSps63ee3Nc4prbaOuizE9zD6i/KN+Oa7yGFY3kiRJkmRFQgL9Bz3oQSWylnBPkFkS2CEiliUxJhZdcMEFg7/MLpLxr7vuumX/xxxzTKcNkCRJkiRLg1Gizm3fatmaeY7IAIn3JE01Ei/J6llnnVVyv8gdY2qGlaA41Dp9IbpGi2x34YUXFgfb9BCYm83Zbsv9cfnll/cuu+yysnKVvDBCiIXkEgOig7cCk1V+PvjBD5bpIkaOiDYiCEL4qRHxYFv7s+KP/cRqTowe74kDjmM5b9cXuW1ELMijw8gw6mVKk4S0rlfEA8OD6OI8axGo5uSTT+597GMfK2Xiup2nPCVGvWBfjilfitwort/+CB/OT9Jj16hsHvCAB5QVuZyrc4PVuezTdlb3MhXMtdqfc4eyJsK4LtdvyVD3xT1VDgzAJoQSx3SPHUOOFddOUHHd6oLlRN33LkHLaklyBsUSo6b7mAYmGgSxDyuI2c7/sdyoqV9NnKt75J6696JHnPvZZ59dBDPijbJyrq7V+YtwMfIXUS9JkiRJsqLygQ98oIg58tOwT1ZdddXBX2aG/lMfzlYi8LA3YoBqNjnxxBN7T3ziE8s5s1li2nySJEmSLAssEvPpT3+6rBBtkKFJ+zyIeYY52pb19rKSFPHGSx6Y7bffvjj1nPYf//jHJZLCdquttlpxrOXwqFdj8r5eUapm7bXX7r32ta8t0zesVmXpZcl562iRL3/5yyVShoGxxRZblGNJKtwm6EAEiKkqtrMcs4TEIFrYNyMFhADTW2xHhxMKTIQhMshz86Y3vakIJgwO+W5sR4Txf5sAERAW9txzz/JiZCkjglfguLHag3MiyMQ5KVOjbNtss01vnXXWKflxbH/FFVeUbREClDKyrfOxtLScNwQOS1xDJA/RxLnahuAmofMLXvCC8vcmon+e97znlW3lT/G/CBrnTkhxToSnetWuJurKAx/4wPL/hhtuWIQvq5EFrkXCX9dJ5HIML/erDdcpQomCajsjh85BnplI5KhueblX6oVyJ4LFak1JkiRJsqKivxaBq49nTywpbC5iC9ZYY43Sn842EjA7XxgoOvLII8t7/TjYCPp1NoBBnIMPPnjaBuqCYS4KGFdfffUi0dVJkiRJMikrhKgzCglSOfciTkSTEHmMshBACBSiXGJajPfzBQZBTNXCHnvs0RmR00WdyHmzzTbr3ete9xp8mgwGTwgXolSINLFSRBcEEPeAQTQbKA9T0UQJEdH8Tyha3phSZynULiPPctsMvCRJkiRZkTEgFRx22GGDdzPHKp0G6SACqGsgaElgQwp7hxFS9g3bhs3F7jAYJFLaIBUbhMhkwKZrgBAGHWMQSfQ3+zRJkiRJZsoKL+oQa4yyiAARDUHUgSSqOlzRLEZXTJURxTOsE54rOGeGhFwzokkIBjPFfmbDmCDMiE4yfcrom3M0FUuETleUkmll97jHPWZNeHGv5dmJ3DpCpOfCMuemmikLAlYbDMYcpUuSJEmSyWiullkPdM0m9XFMl77qqquKzcj+0n8bvDH9WtSvFRlFTA+zzUT8nHLKKdORzzVs1S57IUmSJEnaWCFEHfOpX/SiF5VpSJGMV6e46aablhV4CDam2RAYInGuDtoUHkKA6VRGWUy9qpfqHhfTrBzfy1QwWJLZ9JqjjjqqfO7COe2zzz7ltwSJYUgwaBRqrbXW6r3zne8s52/0yGoPpl/NRJAy0mQfcuuEcSEPUVyP/DrDiBWL3ve+9/U23njjEgWlbGPKlUggog5hbeutty5TsCKRMIx6ySszGxCoRMNEImf3mrg0CaazxbUrm2C33XYrI2vDpnNBGLWEiocccsjgm4VJmI0gyvWTJEmSJMn8RSSOvl6EsunVBBh2KHsmRCW5+YZNqxZV/ehHP7qIQzWidkzf2nXXXYsdlSRJkiTjsEKIOhLcfuQjHykZoWP6kWR5J5xwQpljvf766y82ekPMiekw8ruINCHqPPnJTy7fTQJBw/G9VllllfIdQYewI0/OMJzX3nvvXX7btcpTIJz33e9+d8nn89jHPrZ8JzLG/G75W44//vjy3SSIIvE7woPyIuwwVOJ69t1338GW7die4UHwiHN66EMfWpIiy0ejbCEa5T3veU9ZwjSSSuN+97tfEdRmY279bCDZclz7/vvvP/i2V0Q0odWSYA9DTiTJuHfcccfBNwshFn72s5+dXno7SZIkSZL5h6ndBoDYi0QZeRTZNZOuZClPounqMf3fwN573/veYisZwGOTJUmSJMk4rPDTryx1yZmG6TixNLV5zyI5JLIlxPiscyY+zGWIMKZLNUN2n/SkJ5UcNTOZiqUMRJfY56RTscxllyT5UY961PQy5karPvrRj5aRq1ErRIiqkaj4iCOOGHwzcxxflFBEArmnptnNBdS13XffvSRRTJIkSZJkfsJOFBnNdrS4hKhktk4kToa/jxqoM6hl+rnfwwAX+4m9YGEOg0tJkiRJMg4rvKijozXf2bQo+XRMLTJNR8SEURWdJ7HH0tjPeMYzpoWJuQrRwnWYsuQ6RMPAFCcGhjnek1DnnPF7CQCXFPuRQ+a6664rItQoRMeYnrWk+YyUgelejCz4372dKzz1qU8tEUnN/DmWlJ9pguokSZIkSZYt7Jx///d/L/YYu1EfbiDLYBLbzNT0Uf266B52gdw6kJeH7eT3bDwCT82oFbWSJEmSlZcVXtQh3HiZXmWpayKIdd7lgZGoTqTIne9857KtXDWzhRGXK6+8sohFX//61wffzg6W1zblyrSnD3zgA2UOtqljRolc0yQceOCBvQsvvLBMlzJiNFviglxGDJ5AeLJIKOVhCdKm+GS60pImCybqiBgSmfWpT32qhEdPWh5duIfO3WvYil4MOsac7cy5bxphL3nJS4pwxmiz9KqyNxon2gn+dt5555UE2EmSJEmSzD3YOJZnf/7zn1/yMkI07rHHHlteosKHTeePqVoGEw1+iZgWAUQskn+PDbP55puXbSA/D9sgSZIkSdq47VunGLyftwhhrQUEoyZWYvJddJSm4ci3438Os+gQOWCIGOZHS1jnJQeM33atoEAEEv1j30QE29qnnDSwXx00p938aGG19tU1rctKTaJJ7nCHOwy+WYj9WRmK4BTCk9xBIlGE9Bodcu7y17gexxOu63wChgajYxhEEEn+XIs53K5fXpjYj2vz3giScnXtjA7vnbe/K+PAyJNtGDMEFfl5lJVzJnhEJJBt3DfX5FqtTuZaQmBrlusw7nvf+07ff/87V1E/T3nKU8oxXFsXYURFcmXl0bx25+jcTU9zP20fuYJqnKvIL8m6JWj23v693AfHkJPH/iTuth3D7mUve9n0/vxOTh5l5zhJkiRJsiIhUprooc+fDdhaBqXYX9GXLw2+9a1vFRuDXcC2Ya8YLGRD6v/17fp7NuBznvOcRVbMamLKvP6f/WQhBb9z7quuumo5hv/ZgAE7ja03W2WWJEmSzC8EpXz6058uUZzrrrvu4NtbuU2fGpAkSZIkSZIkSxmRryKLLSgxG5i+zdiVQ9FgytLiwx/+cBm4isicuYbBsbmeQiBJkiSZGVartijUggULescdd9zg21tJUSdJkiRJkiRZJsxXUceU6i996UtL9RhLggUv5uq5JUmSJEtGijpJkiRJkiTJnGC+ijpJkiRJsrwYJepknGaSJEmSJEmSJEmSzCF+8IMflIVxkuWDBW9iVeW5Too6SZIkSZIkybzHYgM1sTiDlU+vu+668pKoGYz1+I7jZJVO1Pto7q8N+/7FL34x+LQQS5NzBGIFTPt2jB/+8IeLOGgWYRC15Bz8rQtB9RZrCOzj73//e/nOUup+b2XOWEXUfuPaRDI5j7g+NPfXhmv3+/p8rSRb77cLv3E9sW2s6OmYMUEg3ruOer+//vWvy9/bcB1xvXWZ23/8vsbiFpJo19fuvG2njILmfa4/W9TCMeNeWr017plXvW80y9W+6vrleusyrcukjai7rqVJ87x/9KMfTZ9X3B+/i++8Rq0063xsF89O4DtlEdR/j/fKKMoJzs+11fdHWdbX37yuer/1/vzv+tSVUcSxvCRSh+fDZ+VZ436oI1GW8WwFbeU+Lm3PWfOe1Z+bdUMd32effRbbx3zCatDqf+D66jYr7o+6FffMfXa/PTPxXfM5mw20Uc167vnWfgfO9+STT+5de+21g2/mLivE6ldJkiRJkiTJ3Gdprn4lNN0qVEcccURZyfPMM88sK4Vsu+22xRn8xje+UZw0K1CasnX00UcXp+O73/1uWdWKEPPxj3+8rI5q+3e+851lJasuPvOZz/QOPvjg3iWXXFKux4qmjP9ddtml5OAxHcxqpZIsf+xjH+t9/vOfL8uTP+EJTyhJjQ866KCy3be//e3iuFi1s23FTiuecIw4eR/96EeLw2M/tt17771LmdqHlTStTHrAAQf0vvKVr/S+973vld+43qOOOqqsxGmbCy+8sPztIQ95yOAIi/PGN76xrPh18cUX9573vOeV76ySyglSjhwzq3i14f6ee+655bo/97nPlZW9rFR6zjnnlNXBrApr2XbOm3I4/PDDy/V/85vfLI6w822D4LPDDjuUFU4vuOCCcv1WINtss82KI6Z8lfMzn/nMckzHP//888sy8y960YvKamNrrrlmOQZHzb21quwZZ5xRrsvKrHAM14rtttuu5FKyf3VKOVte/qSTTir1xW+UOdStD3zgA9PlYp/qnrJ2beqisnnf+95XVlt1bNMorIzqfRP32bmoi+qZc7eaLJzHYYcdtkj9PPHEE3vHH398EXSIVpJ6O5Y6rf64b1ZXq1dWa2IpffddPYv77jmxD8+MZfhvvvnmUrZWgXP/1Cf3hpN+5ZVXltWEiSenn356KbNPfOIT5b064Xn1rMYqw45Xr+Tj2Xn84x9fVgVWd1y71X6jPjmWOtR1DV/96ldLO+B+uV4r4rovO++8cykTbQIhxTngda97Xbm/7qX79pGPfKRci8Tj0AZYPTlWxm3D869uP/3pTx98sxDHdTwr8cb99cwrA/UWhx56aCkL9Ujb4aXNgGd2k002KavjzQfUxac+9anTK/pqtzwPV111VblmK/tqb3fbbbci9KlnVhF0L9/1rneV++BZcc+VwTHHHFPqjrq7//779571rGeVVQOXFALROuusU57JuO/wecGCBaUOKXPnZWVD98Z9euELX1i2W154/oatfqVhS5IkSZIkSZKlzjXXXNOfcoAGn5acKaO8P+Vg96cctf7222/fP+uss/qrr756f8rp7Z922mllm3333bf8XzPliPUvvvjiwaeFfPGLX+y/973v7U85df3NNtus/6Mf/Wjwl8X5wx/+0H/2s5/dn3IQyvYbbrhhf8qJL+fwy1/+svz9DW94Q/+Pf/xjf8px7//whz/sTznp/SlHrT/l/JZ9TDl4ZbtRTDnp/fe///39KSe+/8pXvrJcr31cf/315X2Td7/73f0p52nwaSFvfetb+1NOS//LX/5yf+utt+5POZyDvyzOlAPTn3Lqy3tl9/nPf768n3KEyv/jonw/9rGPlfeuUzkoK/ibe+AaTj311P5f//rX8v0wphz1/nve857yfsrx67/vfe8r933KMS/fwb6uuOKK/pQD399xxx37t9xyS/+6667rH3jggf2///3v5Z5BmU45zOWeHHvssf0rr7yyfI+NN964/O83l156aXm/++67lzoVHH744f2f//zng08Lufnmm/tTzungU79/9tln9z/+8Y+XY5x44on9q6++upz3euut1//a175WtnGvbrrppvK+iXPfb7/9ynvXcMghh0yX07nnntt/8pOfXOpXzZFHHlnKKZhyhsszNw7KwPa46KKLyjl/5zvf6e+www7lu6985Sv9Aw44oNxD9Vh9xxlnnNG//PLLy/10bZ4J5et8A/VOmTV56UtfOni3kDXXXLN/wQUXlPeXXXZZf8qJLcd55zvfWa5LWSljx2jjc5/7XP+YY44ZfFqI+7bPPvsMPvXLOTo/1/fhD3+4fHfwwQeXen766aeXegPlv+qqq/a/9KUvlc9t3HDDDf1tt922/5a3vGXwza24N0cffXSpi1BXXe92221XPsOz+I53vKMcS/l+5CMfKd//5je/Kd/PF7S1z3nOc/rf+MY3ymfP2plnnlk+//73vy9tinqj3Jv3B8pfW17ztre9rf/1r3+9vFcP49lfUrSZ2h9lvtNOO03XJe9/8YtflHOM5z7YZZddFmtTlzV77bWXkL7+ggULBt8sSk6/SpIkSZIkSeY9RnGN9IrImHIgyij9pEwZ+mV0fdNNNy0RAl2IhNlggw3KKLvoByP+oleMwIvYEWkgYkRESiCqQRTDFVdcMfimmylnf3qqjKXURReY9rMkiJ4QiWBKR1tkSODajIpDOZx11lnl/VzCCLryrKer4Ha3u12JcBFpIrLFdkb93VfRG4HRd1ECXWUqGuVrX/tab4011iifRexMkojbOdiHyDHnKTpLlAmMtLu/k6Auqs/qtWk6/n/2s5+9SP1aUkQsbbzxxuW9qAuRFSJvXvOa15Tv1N3Pfvaz5X0Xoo4++MEPDj5NjogYUVtTPurgm16JphAtIwJEGbzkJS8Z/GVmRB0RmSGCCxtuuGGJGMMXv/jF8r/nOaZrdrHKKqv0DjzwwMGn4ahrT3va00q0lmgRiJ7zXJr2U+M7dafGfRc5t++++5aollFcdtllZVtRMDNFBJJzGcVzn/vcxSKVRB6KeFL/PYfOf6Zor9yz2cB9XXvttcs5ibDU3il/UXCiAN0fz1aNCDURnXOZFHWSJEmSJEmSeQ9xhRPGmTCNIYQL0zCE79d5ETj5p5122rQjF9jGtCBO+DBMa6qnkBFBOAMxhQccXFNSajhxPxnkO+GYm45xyimntObN4AzV2Ob+97//tJPls+lFro0jHPi76/K3gJP8oQ99qPyeIzoKwhhMdTGNBMrFscLpnRTT5A455JCyD2Uf12zalGkuF110Ufk8Dq7X7wle7oV9mtZh+tWTn/zkciznHpjSVYs6MMWqLrca9cj0oigHU6xMoxkXDqgyJyCAQGLKHExFIwaaejcuppO5VmKA+2FqF8GNEDMK01iISLVQ0ob9xlQf1/3EJz5xkWlpnOBRmBZialuIFpPinnGwOd6BexnTrTwT6nBM32pDPVIfajGCOOU7opVnNQTbEOqISXHOpiV++ctfLqJPTNPqgsg0TCCtcb+JhKaXRb1zT02TM72sRtugragh7BLVtt9++95ee+01tIy1Mfa51VZb9d773vcOvp0c9W4cCKT11FHv3Uvl41kicGp3iLBxf2qRxLNp2myzHNRd277qVa8aOv2JmG+7eIUgPgpthSlNpocRd0zd0x57X6MtIC7OZVLUSZIkSZIkSeY9ImQIK6uvvnpZOj3gqBqRr51yzor8D5E7JfA7jmwk9+2iy0Fu5sRpbufv8R2Hx/GNcId4EHDcOHzwN3kmjHqLVuAkiQRyDRxE11bn3RDVYCSauBU4Jkf4mmuumdjhjhFyx3YsYtVMuOtd71rytNiHsg+RgODCYRslpDkPQtUee+xRhCWOHlyvqBxOONGIkOJ663vBmWzeG05yUzgLfK8ezBaOXx+LUy7fSDPSaBSui4NMFJCfhKM5yoElJKhnzetv0hYJIbqiWYeH4Rr33HPPEuExUwgvBLoo//r48rPIeRJCYxvy+Khj6lsggo4Dr+7KwdRWFnEv1lprrZI3SflG7ptJIBA0nzFlS2hx3zzPhOZAVIgInLrNaSvzyKNFeBY1NayNEqWz3nrrlWeWIDFTXvziFw/NJzQKAp1cT87FuWuz4v7UoqsoGeWuXahRd21LiBsWqej3rjVew0S/GvWIKKe8iZcEHXmw5K+pce6TPAfLgxR1kiRJkiRJknkPEYTDRMzg9HP2YRRZYlpCSMD5FDHRTMq7/vrrl2lVksMOw0i/ZLWBRLIihepVrIgMkfQ0EFUi0gCiBIzSO49hcIQ4iq6Hk0ng4Yi4Bufh2iIiBN6LIooEvrAtZ1kS6OZo+DBi6guUr2Mpz5lAxHK99uGaw7HmfHM86/NtQzlwMo3Ec7yUNzhwprUQjDjHEG1R3wtRRkS/Go5b8/5z8pSfbev7a1pGRNqMA8FKXQznnjNfR3ZxPH2uxcdhEBzUAfdAVIP9+46AaZrYMNSZcYQ49zWiyCARuGemOf3GfahFFeJCLaCYdqje1KtlTYI6TayMqWXupWgdKAORHu5HFwROdayOLHI/CX/qXJsY4rmMCDZ1kXBEVAphdRLcj4jECWGKuKEuqFuOQ3wOEc2zvOuuu5ak1sNw3toMoh6hY5jYoo7E87G8UD9POOGEMnUp6p/yj/tTt1nKwPPQvCZ117bKxz3pIpLSx2tcAYZARkxWV6ItUJe1sTUE4KbwPtdIUSdJkiRJkiSZ93BKjdh6cRzGHa2t8VvTTjhOw5wIo82mBoDDJk8Np0Akwe9+97viBMhf8/znP79sE3D4RAyMonaIOdGQiyVG3WuHdVw46PKjvOc97ynX14WpQpdffnl57xqb1zBX2XLLLUv+H2VvZD+mc1n1yPUSUgLRLaZscAAJCJdeemn53opLq666anE4Tb0JYcH0pUkinIhopoeFgGA6T7McCTIhVozCfkzJIU6YSmT1Hnlv3M866mNJsE+rcUGkh6guDq+Vq+CzlYLkrlKmzsc1mkZTT1Py3HHGa4FoUjjxptLBNCT3ixDiuUMtIo2L54hoa98grlpFDfJoveENbyjvPVuEJMKU9mBSnCchTNmEGKv+2RdRUhQdcaN+BtVBAlCIVa6vKVyJ6CNWuO+jIrREvJhWBO3R8sBUMQKWZ3FJIVINm+bmOMolXsMEGGUbzzVRhwjpuQohjhjcFEFFCQ1bNW4ukEuazzPMOxYKGaMmgYZWAxuNnE7J5+aoh0ZGx6XDhgps9MJ2MWIC3xlhitC4L3zhC6Xxbu6Psm1UJBpzjYxziaUAAx2hhjOOK8GXh6YOvQtOOumk8nsdqgZOZ2I0xfxGBpYO0N+bCess4enY9u36NYYU37oRoIprZIwW1eq7xsK+jQ5EOTC8hF7WD7GGWsMfnUqSJEmSJONj6pC+tI5aWBI4TewCdghHmpgTUSAcUg6mZXE5xZxfjpBt9PuxZDKnNKJPOFpsFc6riBYRIG2wQdgMpgOxzbbeeutiL0huanRalIfkoRxHtpFjE3z8jnPGwWSzWK7Xtv7nCIcNIl+KyAK2iuvipNi382TrOUfOGudbmdoH24Z96Dj2F8sDOy9l5Df+7px83xUhRNRyDew0x4jkuewiUyTGhd2o/JU329V5xvLOyp/IJJogbEJ2p9H9rggEf3Mfw5YM/E40ANiOtmMnutfuDaFnxx13LMczrUYZE9xMgVIeyoeNSXhRZq9//etLeasDpo6wlf1WdETATna/6mgD10jIEFkA5Ws6h205+EQcTjn73D2wT/ax8m7atLCt++ua2drqhPuvPqtbca2eJ4KieqKueR+2r5xO6rf7rw46ZtT1Js5Xgmnna1v5WExJUSacXy9Tl9RJZfb+97+/7Ff0lXvC7lYHiTDOjc3t2uBeED+bOWo8A7XTr6xjiWnnyk9wLOUkcsh9MiWnmUQ40B4Q9Ygygd+qb0RRzrslyB3TZ0vAe1YgATO/hq+jnhJ3CIGOVQuCbShnwgziHsmh456r/+qFOkVEtF/PnzrqeAQE12o79UC9cu9jCfkay4Dbr9/Fs6huWXJbOUV0jnLj73hmJei2NH5A1FU/xplW5XdEvDZ/rYl7p113/e69KXj+V76u3/l5RtTX+v7ANSlD+4httQnqnjrGh3z1q189K9FHji3PkONpw9UDuO9HHnlkOS4Btr7nIjc9c03/e1mSS5qvYEx1XGVZuKkHePBNvz/V4ZYlCH9eLa049bD33/SmN/WnGvLBN/2ylNzOO+9clkUM/MbyhFON3eCbhTjGVOM9+NQvy3Nazs2ScsHUQ1mOMfXADb7pl+UAt9hii7JsX81U59CfaiwHn/r9qU6uP9WgDj7dylSH0J9qEKaX+5xqnKeX/5zq1MryolMdW1nO0N9qnvOc55RtvKYahP6UoVWuo2aqMelPNXKLLW861aiXZSf9PZjqdPtvf/vby/KTUOZ+N9WplM9JkiRJkkzGlBO31JY072LKSC/LGnuxD/T1U47e9HdsJbaUfr62LdgBo7Cksf3XOMaUIzO95LN9Ogb76+abby7fgb0S51DbUuha5rrGNduv37PP4nzZbLHfKYeonIe//XWwHLbrb9pQTfzd75VTwEabBOcXv3fMKae+LO8N3/u7Mq/vT23LNvHbP7QsAc8eDVxrHNPxlE99H6+//vpyHGVUo2zcM7+pcY/cmyi7QPnEtQRt5Rr3Xv2C/agDYW+6nnjfhvrlfOuyZ88HzsE51/urz0s9irL1qsuqDedmu7qc3SPfKYsavgP7/M+D5fH9H8+hc6jLovlsBfW1oK739f787/6oz8NwnGYdUeb1futnwTHcn3gu/W8f/q5cnbPPo4j7G7hfzjeonwXYt2P4Xdyvuu66n5ZD55vU2N6zXp+T3/PZmuVrW3X3BS94weCbhXzrW98a+1l+85vfvFjb1EWzjdE2R71TT1xflGuTui1UbsqrrrtNP3VJcQ6uq26PoV3gQ9fP5NVXX93fbbfdBp+WH6OWNL+NfxbKO8l8gVop4sbymVOVroQLCiVsqp5GSCRhE45qpEQIrRCz5ggHVdRyd1RLKj/VmhIqRLFmqrEoCiblnkpvOyHEknUF5gYb0REyWYdGGhERSUNlx6mnnlr2ZXWGOjGe86BuH3XUUUUln2qYS6TOy172skXUUSMJ1Oxa3adYR6hmYDUFyeHqc4TlB5WXMEgqthUh2pYkpIpONXzl+BRv4XcxYpUkSZIkyWSwE/SlEmfOBiJqDz744DK1IaYpJUmSzHduvvnmEmW20UYbDb6ZDH4bv47f+IpXvGLw7WTYx0ymoK1ImIoqmkrUmqil7bbbbvCXZcub3/zmsjrXggULpqdJ1qSoM0+x7JtQOA+bMLc6JDRwa4VtCtETOmh5QOJEW4insE6hgEImv/e97y0SphfYn7AvYZlCO2338pe/fJHpTcICGVfElg033HDwba9UQkKUkD8QdYS/CrETEqvR+d3vflfEKWKO/Q4TdUyViuNHqHKbqGMb4pG50E3MfxdWLbya+ONBbaJBdT1C7jzUVloYJwQxSZIkSZLFmW1Rx+AW+4I9lCRJsiLxpz8tTK48E/xW28gH5GclM0NS8MjP5l40U4wsK1LUWUH561//WoQKETUidrr4y1/+UqJ1GFBvectbWoWLwLxhIsvOO+/cmWDqlltuKRE6xBvpmJpzC31vxYmzzz67zFuGOYtnnHFGmeO69957l++IOuYumrP7yle+sohJInSION/+9rdHijqii8x9pjwPE3VgX47fxLE9IPvuu+/Q5f6IYi996Ut7b3rTm8qSm3G8JEmSJEkmY7ZFnSRJkiRZ0Rkl6qRsN0+RZMuSnbEsZheickyRotIOE3QgtMxUqC5BB/4m6Zn9dSWLkiRN5vHIKK8CMt6aYohzM0VLAiwiFaFGsrVxGFeLNILXpU4TqKivN41YctH0K2q3SKfUQJMkSZIkSZIkSZK5Qoo6yVLB/E/LxRFCTGHqWuVCFnw5bf74xz+W7WQ7HwdTtcZZztM0rbYoHPmGTjvttJLD5+STTy7TtNog6Hz4wx8uOXyIUt/97ncHf0mSJEmSJEmSJEmS5UuKOslSQZ4fAs1BBx00NKGUyBzCiyTEppJZ0m8cvvOd75SEVaOmQhFsNtlkk8GnhZiStscee5SEx0QlU8Isy9gWsfPxj3+8RERZAlH0kWljSZIkSZIkSZIkSTIXSFFnHmNa0TiJrwgf42w37v6GbVcfa/XVVy9r/cfqVvWqFLEP07nkqZGf5/nPf/707+v9E2Ek+rLCxY9//OOSCd58/Cc96UmDLRbiN7bxclyCjlWv6sTGpk9dcsklvec973nTU73ufve7lxWyJEKup1dJukg8smIYrJYlQfSZZ55ZPidJkiRJMnNMkQ70v9EHm/LsZYr03/72t/IdmlOg2QexXfNvbTiebevjonkc07Pt1/+B/csNGOdWbz8uzePWtJ2/63PMwDHj+F6mrnfhb/W2ju0YzePEOdm+rWyaxH7r8wrafuuc2/bbPI/m+dZ/d6xh11rjt/W29X7bzrkm7ntsG+dQ/x/v6/26T/X51rSVSWwbv/dq1vN6f3Fe49yfQN5JaRC6zmtp45yb5e1c6nINbKsMmzTLoQtl0nyGg3ofylA+UrMDkmRFY4VPlOwB55j/6le/GnwzPzHV6L73vW/JOxMQLzRk97rXvQbftOParVj1uMc9bvDNrWhEYzUswonPo7J6m5IkD069FDlMsbryyivL1Cbih+2IL3LwEFwkUJbfBxIqi8whqEiGbMlzK0vhS1/6UtkXQcb0LZ2SBM72oeF/wAMeUISW5ipep5xySmnUodOwj1VXXXU6Y/ld7nKXEo3jPOQPkvsnIOCYgvXYxz52WlASQbTKKquUcg+Uj3OVONnfhiVYTpIkSZJkUSJRslUyReka0MFVV11VomL18+ecc07psw0GPeMZzyj9MHvniiuu6D3sYQ8riyvA6pRy83GwbT8q+bIFIdgHbIAYsLFIg/5fdLGVLtkAF154YbFlvF9jjTXKwg0Giy699NLpvIPsiwc96EHl/bhYQZSd0cxxaEo5+8nxIwL585//fJme7rqdq8hiCzz4nl2nrNhXbKU2lKey/sEPflDKzz7YOuyusInZMRanYB9aCZTNLGeiQbmuKe4WwmDfcR/YgbUteNFFF5VBssB9MWCm7NhcL3nJS6b3+7nPfa6URazsw/YjRHC4Xds666xT7u0ZZ5xRztt922CDDcrfugh7Uc5Hdpp7ZQo9O1O5iga38EYbztU5XX311eV4yvXZz352sUPZkcpFnTC4+KhHParUUZ8dQ31Uvre//e0He7sV98w1hf2rDrNjlZ/BR/cDosIjVYH7bl/qKT74wQ+W/92fuLZRWOFVRLq6u6xRfu6be+b5iUFUaRmUh7rg3HDjjTeWwVLPmkHe2qex0Iq61hzErXHfLKjiWOqGZ6j2D9Q/z+l//dd/lc/qmbq+3377lc9JMl/IRMlTMBA0MEvjpbPUmLT9bTZfxAoNXv3dHe94x9K419+1vSw5TmRpfq+jO/bYY6c/6+wILfU2bS+NpY6m+b3j6NysahXbMb50Zj577/+jjjqqdJCO57OOTUPuvVd0ar5nzKy22mplhSyrWL361a/uPfWpTy2Nd2xvlS2dxItf/OKyjZecPjqB+t7rDL007vYd33vB9871/PPPL4aQz4zEejvHXXvttct7+0qSJEmSZHI48xzcEBjkuWPTsKv0vcQeDlo4veygk046qfeFL3yhfIb3tiMksAM+85nPDP6yOJ/85CfL4BV7I94bYCJ+rLvuumXQx2eDN1a95KSzR2zLcfSd83M8r1EDam1wKNumehM9DjjggGKbBFYsda7O7cgjjyzXT5whuLChiGLEgS7YMM7T8fyvHAkUEfFsenlcG2ebTcm+IWr88pe/HOxlcQzqEbSILlYcDRsKl1122eDdQjjkytfxCXTud/CVr3xleiAOyvoxj3lMmb7vfipr+3M8xyJ6hLjRhoE4dUB5/fa3vy3vQbQSnW2fa665ZvmuDefn+KKy2duukR1rYNggKpSl/bJNlaVt7PdpT3va9ABiE2LQe9/73iLcsTGPOeaYUr/dc7/xey/bBQQRYmNwzTXXlG2UA/uU6DMMdVvZ1vtclshD6T66F1IcsJ1dO/ufrS4/pQFWKBvlztaXGqGGn6KeDoNAbODas+K9OhcQ8/bcc8/y7AaPf/zje9dee23vN7/5zeCbJFlBmOpAkiVgqrHpr7HGGoNP84stttii/+pXv3rwadkw1RH2pzqm/je/+c3BN0vOJpts0p/q+AeflpzXve51/UsuuWTwKUmSJEmS2WLKQe2fc8455f2ll15a3u+00079T3/60+W7KWe2f/bZZ5f3NTfeeGN/q6226r/tbW8bfNPvb7jhhoN3C/d18sknDz4tyt/+9rf+Djvs0J9yrMvnKUe/P+Uw9s8888z+l770pfLdD37wg/6OO+7Y//3vf9//wAc+0J9y+vpTzmj/4IMPLr+bckL7F198cdm2ya9+9av+lOM/+NTNQQcd1J9y5gefbuXyyy/vv/KVr+xfccUVg2/6/bXXXrv/l7/8ZfDpVn7961/3jzvuuP6Uwzr4ZjhTTu3g3cIy+tznPtdfZ511+occckj/yCOPLNd17LHHTp/XRRddVF5dHHbYYf2f//zn5f3xxx/f/+pXv1rew32ssV92Mn72s5+V4wdHHHFEuZaab33rW/3TTz998KnfP+uss6bryiiOOuqo/ve///3y/jvf+U7/jW98Y3m///7792+55ZbyfhzUh/e85z2DT/3+eeed17/yyivLe/s/9dRT+3/961/7hx9++HQ5jMJ1q1N77bVXKW/Yp/Jp4/Wvf/0i9XzXXXcdvOuXOuK+DcPfm3bxn/70p1IuP/rRj8r5D+OPf/xj/7rrriuv3/72t4Nv2/FsNev+hz70oemycc2erc9+9rP9o48+unz3ta99rdQjHHjggeV/58Q/CG6++eb+euut1z/xxBMH37Rz7bXXTtdB+//JT35S3uPNb35zf+edd+5/5StfGXyzkNNOO63/kY98ZPApSeYHniXSzYIFCwbfLMpKEamzNDGaYVSDCj3fEGZK1bbq1LKCMi7EWLjlbGE0Yzb3Z/Rg2ChVkiRJkiRLjlFzU7BE+hqpD0QmmKpUw34QRVFPQxc5YSRfhO2U41wiJtqwnSkyolFgPzGFJRZoEAXzs5/9rLwPRGqI4Jiyl8tnURqOJzKgRoSQc5gpjmtqkulhwYte9KLe+973vmKnzTbsPmUuikaEjKlJImMgwkd0yzjIWSgCpQv3VoQNRAqttdZa5f24qBOmZEVE/CjiXoomj3riWtmJoltmEmHNvncO7rvrietVp9TRYdFhgYgedUY9qqcSiQwTJSVaKlDPRfKIbAlEnDi+aYGmmIl8Gga/xNS2mojOUpYiVboQhXTxxReXaJvjjz++RMsMQ0S8KXk1outF7YuyEonn3ovOiUh8kfuxmuwuu+xS/he5VU/lc2xTL2N6HuL584poJdMSTR+M3EQxvU95i7BS9k1E4YkITJIViRR1lhCdhjBP4ZnzCWGjGlwd3GwKIqPQIOsIx+mcx0EYsRDT2shbUnSyS8OISpIkSZLkVuR0kV9m9913H3yzELaJKTA1plrJZUJ04LQGHF7O9ZZbbtm7//3vP/h2UTie4fAPo87F0QaHlwNeL/wA03siR8hMYMPIPWIKUbD55puX6UISu86WjUm4MaBH/JLXhP1KaPCKXD6cYuU1Du5R8z7VEFTq/IWTIkfKm970plJHrKQ6ie1ItIJrU5/8P+xch+H37nstCsV+u3IP1ah78lVKDVBT7y8wpU3+HblwYqqhYxGXDIoSI0flySGkSKcQsPMJLOqUPEHDbGY2uqlh0h285jWvmc4h1YVnZsGCBYNPi3LSSSf1Xvva15ZpZs4/7onf1IPhysEiJttss035LFeRvDfOtcb9cx/ankHXpA5rUyDn0fbbb1/eNyHwus4kWZFIUWcJMO9aw2Kpa/OS5xOSjxkh0zEQRpYVRhmM1OgwZgPzsyn5zdG1mSIBoc40I3WSJEmSZOnCCeMUh7MXGHnXt9ewH4g3HFY5R0CkkBxZ3kACRRdG++sBLKJFM6eG79h1NZxpQk5AVCLg3POe9xx8sxDnX0cUTALn1nVJmitCQ+QGONMWYzjwwAOLsDEbTiiBJaI47N+xQ+gIgUG0w7jXYltl1IUIDYmLiTscf5FHkyK6SmQKB13y33FwH+NeElTkClKnQriaBPdWtJH7Lp9RJLmWM4boJs/jOLTVc/dX1EgtDBEzRFARKeTfgTKQT8exCB6TEoPPhDG5NCWg7sJAqXri2YpItWEo07YE0eqZ847IJPsMUc7/tdhnWzmqQojiU3mmP/ShD5XIpIhg4zsYePXixwSeDTm55PBRlp5teXS0GRY3IfDw15JkRSZFnSVAJ6Ux0zlaOWE+QciRjd5qD5GkcFnwzW9+s4RKzqRTakNWe+G5s3UNkhjqvJvGXpIkSZIkywdTXogOr3vd63o777xziaato0k43EcfffTg0+JwLjn3Me3EdByOJMdS5DIkoOW014QtMCoagzhC4JgJoi847BZ5IOAYXILIBRBYrMQ0TLQaF04zezUEM460/RN2iC8EGlPQn/70p5e/j8IUlqbAVUNwM/jG6SdM1Y78ONh/JCk2ZW7YlBkiREzpEeGiTsw3RJ1J9CuihgBDiKmFRoOO4wwiNwds3XdTno444oiSgFu0Wxeiagg7njn1YRwxpCmGeh7U3/XXX3/wzcLVvUzrgmuIaXmOZfUrib/jOZMUWoJj9zCSUYOoFQuixLPq/A499NAyYByr9xLcdtpppxJppC6LgqvFKYJZJGBPkhWFFHWWgOjAqfYaojqUcK5jrm7Mn16W6CSs1tCcjz5TKPWMktlS4IW96mhS0U+SJEmS5YOcLvKXmCpEWCF0mIphWWIv/XQ9JckqP5y2YblCXv/615fVdYzccy4JGwaFRAPIhyNCInKVEFAIA6aPcBQjcoUg4ry86sGkww8/vDjho2A3ys/i90QkyEfCaXVdVgGyjRdH94QTTigRPM5H/polxdQUZWVAzxR8DrNyE7kth4k8KlZOEiXRBeGB8CMyQhl0TXmDQU+imXxHVvfiXE+C8zUNyD2znG9z+lINYcwxLKvuXm6yySaDvywdRJsoB/dSvRt3yloNcSHqk0gydYI4EfXcSlFyzQTuGXHSAOQw5KaptxEBxuZ///vfXyJ16tWg1POtttpq8GmhIELYEd1i5ap6kFMuG2Vcw64nttaIMFI+bH37J9yoJ+qxOi1iS/QU5NRxfrZVDvC8uX7TpNSBiCxyDVE2EdXjfvNp+GFRjjENy3b+t20dpeXZGiZsJcl85LZvnWLwPpkQDZ1EXcIpdZDR+Mx1dMhCF52riBkdBAV/VIjlkmIUyHGp46ZLSQK4JDh3Bp+EeDoKSQ6HhZSOgxDPJz7xiWV/DB/zuZMkSZIkmR1Mb2Y/RdJUfTdHMpwuDh4bwTb6Yv06G4uQE/k9RBqLvuG8+rvfmsYi4sT3bXAU9e9Ehk033bRsZ3qJaABRO5xpjh7nkD1kqgdxg/PpM1vJOXGI/V87m86HYGGbYXBKOa9+b/DItXuxwQLnYLCQjWRb1yTqIMpHGXBW6zIbBmfatnBtkSBaNIcIILDLCAaiO4gj7NkulKPt/G9KVZ1zRXmFsw3igH0Rw5R5LUwZkFOGMf0L9mmbmM7j96I9iHyiVIYlWmaLiwwigrinbDjl06xfo3D+ziEGPp2/l3Pxct7us3NUDnEvfT8sJ5MyVl8iGkU9J4r5vZfj2Yd8R7EfIp966v8oV+WAuKdtGDwl4ETdde2mQalPhDbPQSDXDnFK2cG2phm6Ns+oc4l6Qki1fS3OKXfRMHUUlsgdx/X8EneUpzIjzPIF5NmJCC/HUwdsqxxEZEUZKeO6PrTh96ZIRjl6dur6q16z5WPqGxHqne98Z4lYSpL5hAg3U3VNJTXVsMlt+sMmwyZDocxTiBWhUQ4d26SjEMsDDaxpUCKLrDDh3HUS0YguLVREjbYGXaNq9EUHNlMo8sJUI+xZB2KfM4VIZARCWRC+dBRLkvgwSZIkSZJFkQzYSHlMv0iSZPYRAUZsIWrMFAKoV3Na4nxGBBMxTVQeoWfUSmJJMlcQrfj2t7+9iOnHHXfc4NtbSVFnCTDaJHTSfOE3vvGNRbCI+ZxzHbddOLPRD6MnBIylTSQbNHrwspe9bHp0babYn99bblGeHuo+YWemKBP7FLYr+sfI25LsL0mSJEmSRTFoIsq5mYcjSZLZw2CnCKKuyLVhGCwVvSZ6iD28LHyEZYWpWiJ/XJPooRSXk/lCijpLGWGIp59+ekkAN98wdYmoo3IsK1Q3c2klORN6OhsY8SPqEGFmg7POOqt0YsJPkyRJkiRJkiRJkmR5MUrUyUTJSZIkSZIkSZIkSZIk85AUdZIkSZIkSZIkSZIkSeYhKeokSZIkSZIkSZIkSZLMQ3JJ8yVEcuRvfOMbvWc84xmDb+YPliuUAd7SaMuSL3/5yyUHzrAlCifBSl6WL5yt5cctuy7fj+UZzzjjjLJC2Ne//vWSRFlOIMmTb7755pJkzXfK0LY//elPe+edd15ZenXYsqbf/e53exdffHFZWtK2scwibrnllpKAu05s51jyNjm2VQwiYZ1kb1bsimUkLTX50Y9+tJyva7Ct83B+l1xySVmeVSLvUcmf1QvHrxPjSWr58Y9/vCzJGddm5bELL7ywJL2sVzGTnM9z0SyDT3ziE70bb7yxbCt5nyVrLT0J7y1p6bfOVR1xHb6zbKdk5J/5zGd6f/7zn8tSrsP42Mc+VvJFqReuN8pXUnP7tr9YqtQyq5HbyVKYyr++HzXu9QUXXFD2I+cS4p47Vy9Ljv7tb38r5WKFF2VvOc56yVZ5uJpLkVqRzopwUWZ+h3qp2C7cL8+SY9x0000lwaFr8L3rdN4///nPyzbqSDwntnMP/U79cv5+bxlY/OAHPyjXEdemPrnXEon77L1rS5IkSZIkSZJk6TFqSfOM1EmSDjjY973vfXuXXnpp+Z8zbMWwyy67rHf++ef3Lr/88uJ8c3yJKzvvvHNx6rfccsviLHdxyimnlP1xtI888sjidAeEBSJBwHG2TLv9fuhDHyqCUEA0cC7BKqusUvZ7xBFH9O53v/v1bne72xVB6MADDyzHsCylxFpEhy4IR+94xzuKKBJYrezEE08s52CVN2IUAcIKZo7hvM4555zB1r3y9/q87HOLLbYoQoAlNi1Fr7y22Wab6dVPCDGEI4m7v//975friDInEH3xi18sAthFF11UhCv7bCOEF78lbLz73e8uZeB4xx57bFlxbY899ijnCEvY+5vfuW5CWRtEl+c973lFlCKWbL/99uUciHN+E+dLrHEdtvHZ0plHHXXUYC8LOfroowfvbkU9IKwEGm73axwOP/zwUqawWoXju8cnn3xy+Y5485GPfKTUpZe+9KXT9e3666/vnXDCCUWwdG+cL8HGtnBfbRvXRuhzXoQfn93zuq4mSZIkSZIkSbLsSVEnSYYgAktkydOf/vQSISJCg9MsmoaoIrJD5Avn1tLw66yzThFRiAXDsN/Xve51JUqCkNEFcYSQYr/+v/LKKwd/WRwCiP0SFp785CeXCB6iifNeb731eq997Wt7L3zhC6ed+jYiYob4EnD0999//3IOJ510UtkvUWTNNdcs+yOcEJG6ECH0r//6r70ddtih97a3va132mmnle+JRDK5N3nAAx5QrsNLdAj8v+qqq/a22mqrEm1CqOkiyoGKTXwQWSOaTpmstdZavb333rsIP8pho402KoISYc62hKM2iDkPfOADSxluvvnmvc0226xEG+HRj3709PlGhJXl9X22Kh4hahjqEJGQUOb9pIhe+tSnPjX0vgauI4RB95XgA9fmfA8++OBFztdoQFxbRNZZFc5n9y7uZZIkSZIkSZIky4cUdZJkAggOohpE8ZjeY4qKKUkiSVZbbbWyDYGDgy2iYRR+wyHvQiRQLNVuWoxIi0n453/+5yKAiMr4x3/8xyJQDZvSYzrR0572tN4XvvCFwTe9IggRrYgYHHtizP3vf/+yzU9+8pOyzWMf+9jyfxtEhGc961nlvfOxHB8e85jHFFFBpMi4iEYifESEzzCcL6GEyGU610Mf+tDyvelWppaJviFQENUss7/xxhuXv7dhmpH7KfIGj3zkI8eaGuX+jdrO8Z/0pCeV84xpV5NAjBIZ5t6NgiAnmgeijNTdGvW5a/pZE5FEXSJYkiRJkiRJkiTLhhR1kmQCRJyYIkUgMf3GFCrOOOHEVKRAdIzpLqMgDo0j/hCJ7G8cIaGGCLPhhhuWSJvttttu6LQwiEDiqBNpRMTgDW94QxEMRLXIa+NcXKtpWbvvvnuJSpILpwvCjfNQXsopcvqICNpzzz17Z5111iLTqUyTetWrXlWiZ5r47SjRQf6dDTbYoEQWiTxyL5xf/M499CIOEYkIHS95yUumcxO1odxNQROZYiqZKWGBaxDBU4sqpkStv/76RSgytWoY8vyI/nEuImkmRV0UMWX6WNe0tECOIWVCvJGHKsrEvVRmz3/+80s0VLDTTjuV6KoakU6Ot9dee/X22WefwbdJkiRJkiRJkiwPUtRJkgkhLBAJ7nnPe5YcO/7nHNfRI8SeWuTpgsgRyYKHYTuJikdN62pDhI/cKYQDeVvsqwvTu0RyiMYxLQmiWkydOuaYY4oAE2KPqB9Cx+Mf//jeQQcdVL5rg+igbAgOyks+msBxRM5IHhyY2iSfC1GmCUEppgx1IfrpzDPPLNOI3Bv7FiEU06Wci324j6J1lIckzqOif2xvehKhQ14ev8V+++1XchU5VrDtttuWXDquQR6fLghLylOZf+UrXxk7j04TEUeub1TUE3FNXVUPCDiBuqHMCEy1COV6m1PkCDnqg/tUJ/ROkiRJkiRJkmTZk6JOkkyIaTxEgac85SlFDDCFRQ6Vq666qvxd4lzTfggWozD15mEPe9jg0+JwwE3JEdHz1Kc+tazWNFNMC+PUdyUDxi9+8YsiRIjKqYUWiGRZe+21S5RHjTw1w/ICmbpkeprIHHlx5CIKCD6ml0XZjYKQImpmnIgl2xCe/OZBD3pQScAMnwkgVobyHTFGzqS2yKA27EveHlFNw7ANEWqYUCM3ket/4hOf2HvBC16wRPdXpA4xLMSrgJjmO8JWiDqudfXVVx9scSux8tUonC8BKEmSJEmSJEmS5UuKOkkyAsJDDQHHlB7ijgS+xANTbT784Q8XwcN0FUmQ6yXBa4gbkgeLqpCXR8LhwG9iehLWWGONsloSgcVqQ6IjAtvZV5Na8CDg+L1oEC9iU1cEkXwxEuMSLbxco4gjkSiW0HNtEg6bJkRostoXwUJOoDpKxTXU52X5+muvvbYIN1YSM82nvk45fESs+I3vTW9TPl7OF6JpCCAiiUwbIk604feiqPxWLh8iCdFN9I4E165BgmCRLY4nQfH/b+8+4CapynyPF7v3skG97l53l3ABcwBEFMVFEUUkSxQBAQlDjpIkOgQBCUOQnBEYMoIDkiULCJIlw6IgiA4ZRCUpffv7TJ/Xmp7uN8+8M+88v8+nPt1VXV116tSpqnP+9QTiBpcjlkndXOZkyOK+RrxyzmyfhZFtEMJKeQUtLsdmWmaZZabIdlVvT7JkEfXUt+DDRQAiBql72/TZW8ayUm/Oy1e+8pUQrcz7j/hPhEf15bwTdLie2afP0oYcn31ZlxgFv3HVKsdGyLSu5QQxomY9oHaSJEmSJEmSJNOef9y7Set7MgjE1jDQNSCb0TCgNDg3kJ+WCFproN9tYD5QDLIN9MtgdKg8/PDDMWAvmZeUk8VHQaYgAZNZNQhwa7+scliySAUuKLDl3SC6sFYxYJYWvG7RY9BsO44HXLOIK0QV+yPyGFSD5YX/trv3+I8sXbAv27Q/4sBKK60Ux9YJv7MGKrFliATca4gezpl6dt7MF5GABQ4RgbtRESvKoN//C8ot7bayiNFjHdZHRRQjlLEkUnbCi4mQpSzWYRVDoGF14hgcezeILAJDs8JxLgR1JmbYJxcn564IaUQYWbFg/9br1C4dq4DEjoHAsfXWW0c9Kgehh+CkvOIROSfOn2Oxjn2UIM1ob08EMfWsfIQW5SByFfHIPca5r4t1dZTZNvyubZYy2Ad3NwLRt771rdi+/Xz2s5+NY9ZuldF/CWBiAhHRuGJZ13YJgeXYxOMRP8r6zot6JAYpb5IkSZIkSZIkU4frr78+xoPG7TL8tjNLc5DUe2TNpFcMdsSnkLp4RoMAYUA6ZsyY1pKpj+Ym09Aaa6zRVVwYKGKBEBtKlqihIm4MUYQ1R5IkSZIkSZIkSZKMFGJcyiBs3C6WZzvpfpUkSZIkSZIkSZIkSTIDkqJOkiTJTIb4OFzqRoJnnnkmpiRJkiRJkiRJhk6KOkmSJDMZUrL3FpdoaiKujxhMvaXWT5IkSZIkSZKkf2Sg5CGSgZIHzowSKFkWJhmPbrrppurmm2+OQLkC0PJjFBdIpiCBc2USuuGGG6px48ZFECsZmhyfQMCdELz24IMPrk499dT4nwC0r776agQHLlmkjjnmmAhme8UVV8T3K6+8MqYFF1wwBsWdENvpyCOPjHLZlrhAUlnvvPPO8V/HIaiywMMC3J588smRAlsbkH1JoF2xjqwnOK5lguXuueeePYGFtXXbFoRXRitlkzVKsFx1I9PTCSecENu1HYF7S8DkX/7ylxEA2HqwnUMPPTSOUYBgwYDFeRLkWF2/+OKL8Vt7rCTBfAX/VV6fO+64Y2TQUlY4V8cdd1x1ySWXRPBmKdX9R1nFX5LlS3kFc7ae83nNNddEdi7n8oc//GEEEy6ix7nnnhvb2WSTTeLcXXfddXEO1IG03iXzVEHwaPXnd+U7/PDDIxB0p6xjYnLxj7388ssjsLNzpi4gALU05QJT24c2cvTRR1eHHXZYZBGT2UzdXHrppdGelEt7crztwbPraN/qXhaygv+pC4GRbbMc++OPPx7bLedAcO+DDjooAjjbj/ufuhBoWf0KyK1uBVJWPudg/PjxESxaYGWBsp0nbUD7UM9JkiRJkiRJknSnr0DJaamTJF2QDUqqcoPyDTfcMFKWl+U77bRTLJe+XLYhg9wtttgilq2wwgrVSSedFOt2QoYpA3NCif8LyGzAXndJkX4bBtFSh9uuyb66YeC/ww47hCghq5EBORHFYNp/lc9AmsBBFCC4KAfhh6ABApNlPs8444xYRiQpKM/zzz8f34kRhA7Zko499tjYrsxWyutmY5/2USAiWgdvvfVWddZZZ1Xrr79+NXbs2Oqyyy4LoUkGJkIPiAKEjjrKKrU7MQFSgBOViDIQiNuxEXoIIgQEggIBimB2yCGHVGuvvXZPOexjt912i7L6JIYQbtw0IT36mWeeGed8oYUWivUERScEycjlmHzWIYYR7JxT+5WNqy761CHcEKScM3VOkCs4JvWiTkCEUreLLrpopGBfa621IkuVOpGNS9kOPPDAEJB6Q5rz5ZZbrjU3ibPPPrvafvvto62U846LL7442mKJp0+kWnfddUNAJeKoF/v3nUhEpFFmqEcp4pXZPtV1Yemll45zl9Y6SZIkSZIkSTI0UtRJkn5ATCGa9Afpq4kfI4VySj3dXl7WEaxbxFP51a9+FWICywmKL1GqwCplmWWWCUsZolAnCBUsflijsLAhdHSzIOqE+iGyEECIFZ/73OfCggYsPYgJnWABQygomdOILyxMWEwVlMMxsgRbbLHFQuAyORYiCOHik5/8ZGvtzhRRh4D0t7/9Lb4X7Fv9Em06oZ4JaLvuumtYGhHa+sK5+u///u9I214g6qjX4Yx941iIMHWrNqKR9j377LNXyy67bFjrFAhgxXoM0usTjYhChE1tR1vQDlg5sVhkqQbWQMQbQtmnPvWpKY5D+6kLPUmSJEmSJEmSDJwUdZKkFwyyWRwQHIo7lUEx6wUuJ3Xuv//+cGNhtbDmmmu2lvYfrjj2Zapbf9jXXXfd1VVEKLB6INb4P6sf4gxYU7C2IVAQN1iN2H5xgyJQsGapCzhEButxQesEIYBlSYFI0F/RC4QZZSlwO1J2rLfeemE5woqlHa5GhATuQc4DkYcg5FiUVRlYQrGuIfQUix5CjjqRrp5VEosTOG7zXL7qEIVY6aizhRdeOJaxylG3p512WlgVEaS68elPfzpEC6JZNyuddtShcwXn0vlwLOq6lLcTjoEljLK1C1DtlPPMPaqgDok1aD+H6rnTeXVc3Mn8pu6Jgs4p65tiBWW560eZ1K86reN41WOSJEmSJEmSJIMnRZ0k6QWDYINVA+ESg4QrikG33+pYJmYLqwQWIgPFoNe+yv4Ktsuioa8Bu4G/df1f7J0iOtgWlynuTqusskqP2DO9QiwgihWXqoJYNeqhiCwsiRwz4UAcGpYh4J7kXPldPBx1QsTgssTqhEBXrEn83zbbzyWrEzGA1DlxBuX8sDxh8eN7b3zjG98I4Wsw9c1tiwUUwYVI0tu+tEcClHWKm1Q3CGGOaTiDJLOIWnHFFSvh2caPHx9lgVhA6vB73/teiJLtqBflSZIkSZIkSZJk8KSokyS9IN7NkksuWX3ta1/rcVnhwvTFL34xxJs63GfE3inxaQYKtxb7MhXLCdiXAXJfFh+ECy5V/q8sJTCvgLZiA7FWKZYghIli+eNT7BnHVYflCyueTnDXYblS6GRV0xusnupCBUuOukuU4xVPp+6es88++4QwU8rJ7UeQZ9Y34geVWD+sSD70oQ9FbCOuXSUuj+/qh4sRyxYQJLgMCWxdh6hju8SKgvpTt7arTvtysVNOZekvRKgiILECY00lEDPrl96stJxn51vZ+hKQlEc8I1NBWxuquyA3K4HCxVdiOQXXi3g6+++/f9RxXy5vSZIkSZIkSZIMnBR1kmQYESjWILxYjUxPiPMiqDDrFGIVyxffuY2JiVJgyXHjjTdGbBoWHUQlFhcEFoF8uUqJv0LUIRJxD/r+97/f4+rUH4hC6slE3LF9wkSB644yEZZYnxBYBFWux+0h6iy//PJhISJujW3Bcfkf4YJ1DaHDPPcux6ucJcNUN4hO1l9ttdVaS/6O/zv2gcQQ6gvHyIKIcMR6xbTNNtvEsRFEihg3VBy3c1oX4dQziyACGfdBMY0GivPHlUpmLZnLoF3IlsYKyraJanUcU39d05IkSZIkSZIk6UyKOknSBWnSTe1YJrU0txIZlkqg2DJAlXmpL2sdsUi45hQ3GPFl6pmtilUDyw0xeuzLZF/d4FrUnkadtUgZZHPnsQ/uMQIhG4DvscceISDI7ARihf0YjBNRsOWWW0a8FsfKratsTxBfadGld2ehVKx6lKF+LAXlK0IIyyDZm2SRkiKbpYcAxMQi63BvEoyXSMaCheigzHUINsVaSl2WbROJjjjiiBBE1B+RgphD0HK84vKwBAJLHVmjHLNPwoR9qqsNNtggrJ9s2zln3WM92bm4hymrY5Itqpyf4noE/+1UD3WsI4CwDGCslViEOR+2Xax2iGp1SxpWQiUeEohWzoP9s2ZitdQN7YGw027543jUmfhNjrvgPNlfp7g6dbj4+b+U5iyZwCpIqnaWOkTE9rYpxlGKOkmSJEmSJEkyNGZp9BWEIekVwW3PO++8GODOaNx6663VI488Uo0ZM6a1ZOqjuREB1lhjjZ4MRkNFHBvuM/PNN19rydBgFcIaxUA0GXlYDhE6CAzJ0CG8EJKko+9LrJlaiLFz/fXXh3tWkiRJkiRJkiTd8WJ6v/32i3G7l+LtpKgzRFLUGRgzgqjzk5/8JNxF6i5JSTJaYFVz0kknhXXOcF2DA4FAZ//rrLNOWKiximqPaZQkSZIkSZIkySRS1JnKpKgzMGYEUUfAXSmak2Q0w31tJKyfWF5xrytwbePilSRJkiRJkiTJlKSoM5VJUWdgzAiiTpIkSZIkSZIkSZJMD/Ql6mSg5CRJkiRJkiRJkiRJkhmQFHWSJEmSJEmSJEmSJElmQFLUSZLpFGm4pyfvyPTUTJIkSZIkSZIkmb5IUSdJplMuvfTS6qWXXmrNjTw333xz9fTTT7fmkiRJkiRJkiRJkpEmRZ1k1PDQQw9Vxx57bASubucPf/hD9Ze//KU1V1X33Xdf69skBIzuDeKKbf/P//xPa8kkTj/99Oqmm24KqxrTjTfeGOude+651Z///OdYx+eECRNiucn6fXH77bdX9957b6R8Ltx1113VGWecMdlx4OWXX65ee+211tzAqJfr/vvvby2dxHPPPRfppwuzzTZbBOlKkiRJkiRJkiRJpg9S1ElGDbJg/ed//mcIEdtss02kbAa3obPPPru64IILYh7EmF/84hfx/Z577qnOP//8+N4JIortfeITn6iOPvroyHj21ltvRcazWWedNbKI3XbbbbGebc0777wh8Jx55plRFoKS/3zuc5+rFl544erDH/5wa8udUd7DDz+82nHHHav//b//dyx77LHHqssvv7x6z3veU+255549x/bKK69E2e68886YHyif+tSnqs9+9rORwv3FF1+MZcpO9Npkk00msxT62Mc+Vn3mM5+prr/++taSJEmSJEmSJEmSZCRJUScZNcwyyyzVAgssUK2zzjohoNxyyy2x/PXXX6/efvvt6pprrol57L333tWFF14YljfHHHNMtdlmm7V+mZLLLrusWmGFFaolllii2mmnnapLLrkkLHs+9KEPVWuttVa10UYbhWgEljULLbRQtdpqq4UFTbGqmWOOOXpEnTnnnDOWFQgzdVjIzDXXXNW73vWu1pKqeuKJJ6rPf/7z1SqrrBKiEZEHZd3BQmDyf2LYIossEsv+9re/Rd3ZXzurr756CFdJkiRJkiRJkiTJyJOiTjIq+frXvx7uSiCsEEj++Mc/Vn/6059iGYsX63znO9+p1ltvvXAt6sYvf/nLEGlAANlggw2qX//619UXv/jFWPa+972v+pd/+ZfqN7/5Tczjn/7pn8KyhwtVb/zsZz+rll122dbcJAg4RWApPProo9XHP/7x+L7gggv2xLb56Ec/GmJRHZY+LG+UsT/86le/inWJYmAdxErnve99b8zX+bd/+7fqf/2v/9VjKZQkSZIkSZIkSZKMHCnqJKMSblEmiDfzj//4jyHMXHvttbEMxBHCzKc//enWks7UtwWCELcq4kbhAx/4wBRBjf2niB/Em6233jpcxOostthi1VlnndWamwRRp91Fi6WRY4D9sqYBIaaIMSBacREzsUTafPPNwzWLsEXsefzxx3ti/RSWX375mMTrKdSPrc4//MM/VP/8z/8c1k9JkiRJkiRJkiTJyJKiTjJqIYRADJi77747rF0uuuiiWAYWKdyiCBW9IX5OO0SPsn08++yzU1i2+J0AgqWXXjqEFu5LdVj4dIqx86//+q+tb5NQ1hK0uC7wtEPU4f41bty4auedd474Ow8//HDE6DniiCOqK6+8crLgx4Ull1wyY+UkSZIkSZIkSZLMYKSok4xKCBTzzDNPfBcQeezYsREPhxjDDWsgfOQjHwlLG7By2X333cNdi1gC1jgPPPDAFOKMuDfzzTdfa67/iG9DgKrz/ve/P4QjCLxsnU7MPvvs1aKLLtqaqyJ+z9prrx1WQmPGjKk23njjHvHJ9op1EcsbFkj9gZVQN0ueJEmSJEmSJEmSZNqRok4yauBeJNaMGDHXXXddxKrhdiQQMfcoYsaXvvSl6sEHH2z9o38ITixNOqFFRitWN/PPP39kiDLJSrX++uuHxQ9xRKYrQhIrnHe/+92xDWUQc0fsmhdeeCGWQeybQw89tDU3CWUlEtX54Ac/GG5Ulkt3Lkhzf2HVI4Cz4y+WQ1AmFjyCPl9xxRXVSiut1PqlO0Qtx1iOK0mSJEmSJEmSJBk5UtRJRg1f+9rXqmeeeaa6//77q2233TaEjJLevEDoEdgYRBcBievxcjrB+mXLLbeMtOXElcUXXzwEElmvBGMmmiy11FIRHJm1DuGFsLPccsvFsv/4j/+Ifd5xxx0hyPzud79rbXmSEDX33HO35ibBwogV0BtvvNFaMikgsm0TrNZYY42eY4CMX4IyDxQWSEQuZRIA2THU8Zs6rCMTWCd3sSRJkiRJkiRJkmTaM0tzUNlofU8GgcE7K45ddtmltWTG4dZbbw0rDW450wrN7fjjj59CmBgKgg+znJHq2/bbgwcPF++8884U225fZv/lkqrH6rFeoX0bnZgwYUI1ceLEaosttmgt+fu2+4oBNFA6HVcnWOkIqMy1bbjLkCRJkiRJkiRJkkzJHnvsUe23334xbv/Rj37UWvp3UtQZIinqDAzNbbhFHcF/uVuxihlNyILFaqdbUORpjSDMXK9KPJ/ddtttioDOSZIkSZIkSZIkyfCRos5UJkWdgTE1RJ3RiixXLGKmF1GnPY17kiRJkiRJkiRJMnXpS9RJH4okmU6Rxnx6EXSQgk6SJEmSJEmSJMn0RYo6SZIkSZIkSZIkSZIkMyAp6iTJCCBD18yAFPPcyJIkSZIkSZIkSZLhJ0WdZMR46623Wt8m8be//S0+ZWP6y1/+EkF5C9Yt4Z/8bl3zMjKVqaxfFxHEgalnnuqEbft/+/8se/PNN1tLqvhe9lPK4tN8KUP7MXVCSnNBhuvYjn0OBv9VNinQS7m64Xfrqd++1q3XR6nvbthep+OXBv7nP/95ay5JkiRJkiRJkiQZTlLUSUaMsWPHVq+88kp8f+2116qzzz47BJKf/exn1Q9/+MPqsMMOq371q1/F7/vvv3/18MMPx3fBna+++uoQHU466aRqr732qvbee+/qwgsvjN9POeWU+MQVV1xRPfbYY625KXn11VerAw44oDr22GOrU089NYQVwoTg1yeccEIEdX7mmWdiX0cffXR15JFHVkcddVR17733xv9feOGFat999411TXfeeWev4odtK5/t1vG/M844ozU3MNSRunIMpY66cd9990X5TQSX3sp6xBFHVC+99FKsQ5ghRnVjvfXWi/2ro9///vetpVW18MILVw8++OBkAlGSJEmSJEmSJEkyPKSok4wYd999d4gZeO6556qrrroqRBXixjbbbFNtttlm1fjx48MC5KGHHuoRawgNxJRZZ5212m677aoVV1wxpm9/+9vx+69//ev4hO2+/PLLrbkpuemmm6r55puv2mGHHar/+3//b5ThN7/5TVi+WPbFL36xuvHGG0PYePe7311tvvnmsR+ZwwhCxIqPfOQjsW5Zf5ZZZmltfUqkKZcSfK655motqULI+vGPfxz7HSjq69prr40yrbDCCtXNN9/c+mVKlFV9f/3rXw8RhjDFwqYbl19+efXAAw/Ed/XIwqcb//Iv/1LtuOOO1SqrrFIdeuihraVVNffcc8f5q1s8JUmSJEmSJEmSJMNDijrJiEGQuOeee+I7yxvCiVgzH/7wh6v/83/+T/Uf//Ef1cc+9rEeC5H/9//+37DGorG/Rx99tFpiiSUiyxSx44Mf/GD1hz/8oUd0sX+WOnVmm2226l3velf17LPPtpZ05vHHH4+YMnX8Z/7552/NTYIgsu2224aoVIcIw4KpN5cuwpL/K+9HP/rRSLHfDdtxnLPPPnv17//+7yGK9SbU/Nd//VfP+ekP0q9/6EMfiu9FLLI/qeuJWUmSJEkykniJoi/h+ffP//zPOeU0LNM//dM/RcbSTr/N7JN+YKflOY3uScZc10Wn33Ia3MSzpDdmaQ5sew+skfSKQTRXnV122aW1ZMaBtQlXJvnupxWaG9ejNdZYo/rmN79ZLbvssmFt4/tXv/rV+J3Lzpe//OVY/9JLLw0BgivQrrvuGpYjH/jAB6qnnnqqxzKHJQ3rmPKfTTfdtPra174W36+//vpq/fXXr77whS/EfJ0//vGP1VlnnRXbec973tNaWlXnn39+iDmf/vSnY3733XcP9y7uWcqtPOecc0614IILVv/2b/8Wlimf//znq0996lPVvPPOG/8B9yaiyeKLL95aUoUbk2P8yle+0loyCcKR/W6//fYxz9qIG5qHoXg2iyyySFgUuUGyetExtW/b56qmDh3PHnvsUZ144omxjXZYLF100UVxDEQprmssnIg8nXDc9rfhhhtWv/jFL6qFFloohKNOrLvuuj3uY+rDPljp4JZbbgkXLOclSZIkSUYKlqNzzjlntdVWW/U8o5JkqHgBd9ddd03W30smoa+5ySabtOaSmQXW/p/97GfjRXgyPFxyySURVsS4/Uc/+lFraQ2iTjJ4nnjiicaBBx7YmpuxaA7UG81G0ZqbNrzzzjuNY489tvHCCy80llxyycYJJ5zQuOeeexorrbRSo3njbxxyyCGN2267rbV2o9FswI2bb765sfrqqzf++Mc/Ng499NDGVVdd1TjjjDNaazQaN9xwQ+PGG29szTUa22yzTePRRx+N6Qc/+EEcZydeffXV2GfzYdxaMokLLrigcd9997XmGo3ddtut8eabbzaOP/74xksvvRTLzj///MZDDz3UeOaZZxrjxo2Lfb344ovxW28op/K287vf/a5x2GGHxXflsa/HH3+88fLLL0cbc9z7779/4y9/+UtjwoQJjZ/97GexLm666abGGmus0dhll10aK6ywQmvplCi78/2nP/0p5k888cTGH/7wh/jeibFjx8Zxbbrppo1zzz238dhjj7V+mZJvf/vbrW+NOIdPPfVUa64R29h3331bc0mSJEkyMnj+zTHHHI3mALy1JEmGzrPPPts48sgjW3NJndVWW631LZmZ+P73v9945JFHWnPJcGBcRroZM2ZMa8nkpPtVMmIwzWNtcuaZZ1ZrrrlmLGMdQ4ksCLpb3JJY05j6cgliXcLSxtSbQsxa5cUXX4w3d2D9wgJI7JziNsW96b3vfW98L7CcKQGewb3IvtrdpwaL/YsnxA1N/bBMEq9nscUWq7beeutwD6u/DRLH5+STT6422GCD6ktf+lJr6ZQwDQZLHxPrprKsG45LHQ3EfWrixIlhzVRgQcRsMEmSJEmSJEmSZLhhMSfmqsk4rVFzRhKCoj7fid7if/J2ENO1nlHZuLGOsCKmkSJFnWTEICoQLW6//fYedyRuTIQVF6OLUuaqeeaZJ37DN77xjQgqPBxwbRLfhkuUi3TChAmxPyJKiePDPe39739/fC+4sLk98cvvDduoZ4IqDDYTFMFGsOgttthiMjGGmxaBzM1IHJw6d9xxR4gqIKy42RBpHIMbnHg8UCZBljvF7xk3blx1ww03tOYmxcsp2b/akX1LWQhTBa5XSy21VGsuSZIkSZKpyW9/+9sIDaBf43lfR1KGc889N9yxS/8A+iunnXZaz+T3MsjR59FHOP3006NfVPBSjJt8/X9e1JWYg/oc3Lf977LLLhvRAU+SJKObgw8+OO5HJhmVhefwIh7GSr2JNhAeRGKYdrg8ua8Jk/GTn/yktbSKTMJ1hJsYTNKb4SJFnWTEmGOOOapPfOIT1ZJLLhnijuDIhBbxWWSZ4vNuYlFT4r6wihFU+F//9V9jHoSJIk5AgOWC/9YFhnbsW5DmddZZJzoh4vKwkCFMKIcLWKwfApSOTCkXkYLVkODALnbrmi644IIeFZeYQVSpQ3RpD54MQRsd/2BgFcPS6ZhjjqkWXXTR1tJJCKpVMow5JsLQPvvsE5mq+LqWevvTn/5U7bbbbpNlDiuWR4JHr7zyyvF/PP/881PEkCLyiKMjnk/7b+IF2UaSJEmSJFOfQw45JPoy+gfi7pWXSV6WicVQ+jklqyg888UjNH3yk58MEaa8QBKfkJW0fsPFF1/cYzHtZZE4iOV/Ji+ByuDJ/4g6LI291TYgqr/pTpIZAYIngQBXXnllCKVeAhM+XSelTXuZa/Bf8BL0pz/9aWuuimtDnEpjD/32nXbaKZYfe+yxMQ4pYwniQDJwCCrGIib1K3ZsGXM5X0Xg6YSxjXo3jqtjDHXffffFeVl77bVD9BEvCO5thUcffTTOb7shwDQlnLCSQZMxdQZG88bXE1NnZqTZqQmfyFdeeaW1ZOoils3999/fmutOs8PXWH/99ft1XsT82WGHHVpzvdN8EEasoDfeeKO1JEmSJElGhpkhpo5YgWLvFZ588sl4xuPSSy9tXHPNNfEdnWJe6Kc0B57xv0Jz8Bkx/iBO3umnnx79uXYmTpzYWHXVVVtzjcbOO+/caA6W4ru4fuIoimc42hhqTJ0333yzcfHFF8c2rrvuup7zpY7FkdSPEktRXMU6+pLOaZ2//vWvjWuvvbZrf05cR+fYtm+//fbGwQcf3DPtsccerbWGj9EQU0fcS7E8nad11lknYoEeffTRjebgPsY06hz62/vss098h7Z++OGHt+b+zkEHHTTZ9WVbJWbnaGEkYurU43vC+SkxSMUmLTFFOyE+6cknn9xYaqmleq6/v/3tbxF/9Ne//nXMF3bffff4XHnlleNT+1h33XWnuD6Hm75i6mT2qyGS2a8GjkxSrGdY0cyM3H333WGy7M3V1IalkLdofcG0Wtycevaubogz5O0DS6u+kNbdGw1lYEEl21k901iSJEmSTCs8e2VxZJ4vo+NoxBtlb/5Z4LJyZmkM3X2WMp7zrKNNdatnWOfCCy+M2H3bbLNNa2kV1gUl24o32rYjoxFr5TqyX7II/u///u+Yl7GU1Q/Eo9BfZpEwWMvk6RVv7x1bvc4GAqtw1iAsOFgKCDUgoyoLAXX9rW99K6wCWAGwhio0B85hYT1+/PiYZzFyzTXXxHLW2yWLa4HVwQ9+8IPISKVP5npwXsA1nztJ3XprOJDdtt36YUZD3Yj3yQJk1VVXrXbeeeeY32ijjcItUXZXngbaO5dHmWjBvVHmXB4GdYQ1YElSrDqcK1Yg9XiUMzq8Ahzjxz/+8daSqY97X8nEyzqRO9UyyywT8UEPO+ywiFfaaexZ7nu8CrRV42L/EdCgQAkAAEsNSURBVKOHG9fqq68+WdxUoSp4WKyyyirhcmqd5ZZbbqp7JWhX++23X9fsVynqDJEUdQYOUcAFUToaMxsuOX7lfQUpHg0wdXSedfyYeuvItXcCkyRJkmRaMDOIOgYaBouOlTsIt2ixCfU9DCYJBQQdgx59V65YBaIAd5KrrroqBihctbH99ttX++67b7yQE6/nnHPOiYFt/Xluf17aHXTQQR2f8/b7y1/+stp4441HXf9vqKLOaqutFnVqoOglm/qR9GP//fevVlhhhRB49Buds+I2r/9un3VRh4ubenb+VlpppSlEHS8TvVwzuK2HKsB1110Xg1ju9sPJaBB11It4nhKT7LnnniHAGFQTbAhyKepMyUiIOgTPUofE569//euRaMb4ozdRx7Ul4YxrTSiO+++/P5LPiO9KVHUcnf7nXkvkcy0SW7SBqUlfok6OrpJpjmxS//mf/xkPlJlxcuysXDr9Ntom2cfEEfJdJzIFnSRJkiSZerDoMNgwSDGYJuqIpUPU+Z//+Z8YrBhEjh07tjrhhBMmizPhGb3iiitWRx99dKzP2haSWAg0SkC49tprO8YGFGfnc5/7XMfnvEExywaCwsz6Qq83iDXqmiW37wQdiM1o3nIWNfXkFs4DMaiO31lJdbLAIhqxuOokHBDzCIAEz2RKDOjV+a9+9auw4FBfJm3ZNXHEEUdE7KpiJTJQiAfHHXdcWFCJQ5kMjjnnnDPueSbWM7wK3Pv6wj3QebS+F+7ub+W+6NoxdYKY63wRu0cyQHIhR1hJkiRJkiRJMgrw0ogLFAw2FllkkQgSio985CMxKAXrHQN8Qk8nvGEvWayIMQY2N910UwgGklzU8ZtBTScXbtYjBqysROaee+7W0qSOuiN6ySDK0okIBi5ZLKcMOLnUEV7gvLB4dz77g/V5FhD0OuEcERa8iEumhFCpjT/00ENhNTVx4sR4QQuZcEtgXtfJYHCdEmJZV7VnsU0Gh/Oy4IILdr2/1WGZw4uEeyJx2vVAsGE5x4qH2FOniNosgLbeeutq/fXXDwuact2OFCnqJEmSJEmSJMko4AMf+MBk7t0G/wYfrAr8Zr5gsEKkka2qbrEDA5tiMUL8Eefl29/+dljjGNDWLW4MfAgQnUQGYoWsWdMijuCMCtc1biJccGRhZRUFYoIYRGJ6yLzKtQdnnXVWuALJPtYfWJgssMACXa2knH9TPW5IMiXi53DxIZCxCoFzQEg1X4SegeL6tA2i2swQmmFawR3KtdUXrBq5ohLnXG/zzTdfWPi4Nzo37m0Fwo2YVXC9CCsx11xzxb2RVeRIkqJOMlPATHJGMGnUqRKQrb1zlSRJkiRJ0hdiopx77rkRKFn8G1YgrG4M6A1CDPCJOaw/LGOxw/JAPBwDmeKKI05EEWmk8JWyl7WC5QY7dYHg9ttvj223u/1wH7LNL3zhC10FhaQKwcVgXh0tvfTS1b333hvLLSPEgXhAPAPLK7E+DES5ZnGXc7674fxeffXVsb403OKd1Ae70nWXNpJ0hpUZ4csgnlUHi51k+oKLHMsc01133RX3Kvee8hsXx/K7yViLeO1eKLYYAcdEoCPcgfWVa801KWbSwQcfXO26667xW52llloqrp/isjoSpKiTzBTwMRegb3rHDebKK6+MB3CSJEmSJMlAkAGGaCPGh8GI4J9iGcIAx2DebyxovF2GgK2LLrpoxPSQHUnwV+KQWHgg/IhT4TcBSNutbgygll9++dbc3xHMk0vR4YcfHkF/fQoem3THQNSbf3Bzq1sJFGSo4qZlEvCbCwgXnm5wDxH3xfrcfAT7rQd+FX+EhVDSHW5RLDgIbSxy+pMttr+wniPUuVZMvQl0SXe4rxE5TUQbMadKpj1ZeLnPld9NRGrjrt122y3WKbAsdM8DNy5ui1y0COLc7IrYLfByHfsr1o0jQvOAkiHwxBNPNA488MDW3IzFL37xi0bzgdu47rrrGs8++2xraaMxfvz4xnPPPdc477zzGksssUTP9Morr7TWaDSaN5/Ggw8+GN+bN6PGYYcdFusst9xyjZ/+9KeNd955J37rxJtvvtk47rjjGksuuWSj2XGIZc2LqnHFFVc0mp2PRvPBH8uw0047xXZ333331pJJrLjiij3lOuaYY1pLO/P22283Tj755MZvfvOb1pJGY8stt+z5f/NhF8uuueaaRrOzEt+ffPLJxkUXXRTfu9HsFDWWXXbZxuWXX95a0oh92N62227bsy37P/TQQ2Nfl156aSyr03zItr5N4rLLLmtceOGFrbkkSZIkSYaD5mCpMcccczTuuuuu1pLRiT7YX//61+hbtdPbb5b19Vun/l2n9WH99mk0og995JFHtuYGjnHEhAkTGn/+858bSy+9dGPixImxXL/0iCOOiO/NAWTjnnvuie911l133da3v3PwwQd3XBf6zKV/iscff7yx9dZbt+aGn+ZAt/Vtxka7L+28fBr/GA+Va8L9pV7vfn/00Udbc3/n/vvvb7z++uutuUbjhhtuaHz/+99v7L333jHdeeedrV9mXBzPI4880pqbNjgP9amdvn7vjcH8Z7gZO3asiM2NMWPGtJZMTlrqJPEmgCkZc0LmZSxaqNBUSdH1y1Te9EDWhJ///OfxncLsbY63OPL8Uz8FXOsGqxlvFFikvPzyy7FPQdzsz9uC+eefP6L0N2+a8bt982FlLsr0EcpcyrXlllvGsm54K2Sq+7oqX/n/aaedFsu8GZEuzn7Hjx8f/srdkC5SRidvwbxV4drV7KxEmlTmrfyfrdO8AUTgLWbJzYdzKPGCcBWs3+wItOYmsfjii4eZLJPAJEmSJEmSgcANQDyJTpmoevvNsr5+6+Si02l9WL99SqZEv5ELCBc4AZFLwOIlllgi+svSx7Oqak9Rjk7BeT/zmc9Us88+e2tucrgN1d3kuMex9El6R7sv7bx8stqRMaxcE6yf6ufI7yUweZ1PfvKTk8VD+spXvhLWU3vttVdMLEWSgeM81Kd2+vq9Nwbzn2lN57twMlMhOBcRQoAnvraEjd4gtBBJiB9vvPFGa+kkpFPszQQUTz31VKTH9HBfbrnlwqTxtttuiyjl73nPeyJrA9Ph+rbLg0008t4g1rSbLfKjdPPsq1z8id2AL7744up973tfrwHPrCvtp+N1Eyc22bfvzJjdxIkyBC9mesXX0o28mB5bn8BlW3U8bG1jJP0ykyRJkiRJkmnDjjvuWI0bNy5iexT0G6Uht7xkNGtHcOV2vAjtJurYTl3UkQK9vR+aJMmMR4o6SUBcYXFCYKmnNLzuuusiAF7dauSWW24JQUMwKdY9IPSw3JF6kdVNt7c2jUYj/LmJJhB4TEAqPqQf+tCHYhmhhODTnkLOg67EmiEMKRtLmDqsY/iC12EZ056RgbDi/wL/1bex7777hs9xe7rOdgSuY7lkO8pJjCIm8aUkIMkUoc4ISix6+GRCkK3ynUUU//b2wIJYcsklI3BdkiRJkiTDh34Iy1ovXXLKabgmLzo7LZ/ZJ33sTstzGt2T68EYqNNvOQ1uah/ztjMLH6zW92QQiI593nnnhenkjMatt94aQs6YMWNinrUMkULkfbDYkbqS9Qkln3AB7k5SK15xxRURGI9VyTHHHBNihcB7Ak4x7+xkpqa5HX/88ZE2rgg7EEDPMuILMUSdfv3rX6923333CNwHFjQEIMGupNYU+I34UQ/21gluXkQi1jIF5RbgissVU8liEuyiUR/OZ38i20tvyGSWWawsE+pwrbXWit+OOuqoCK5VgnQRvJ5++ulq8803jwuTePTVr3416lmmCi5spRxctmwrTWKTJEmSZHjwUol1sud8SUmcJENFuxJEtTe3/ZmVM888sycgdzLzILwFDwwvtpPh4Wc/+1kYJHh+CUI/BUSdZPCMhkDJhVtvvbVx1VVXteYmBWRq55VXXmk0b86Nww8/vLH55ps3zj333AgMZjsvvfRSBPkVKLk3TjnllMYzzzwT3996660InHf88cf3BBd79dVXG6eeemrsa+ONN45l8L8ScEwA5f4iAHPzQmjNTWLttddufZuc8ePHN7773e82zj777NaS7jz99NMRuO7FF1+Mecfk/wJBv/baa3FMgt5BULQtttgilsMx77XXXhFgev7554//vfzyy/Eb7rjjjsZRRx3VmkuSJEmSZKjMLIGSk2nLUAMlj2ZGS6DkZGCMRKDk0U4GSk6GFengWNBsu+221fe+973qvvvua/0yCen+WKOweOkGi58SL4b1CtXR2w1WLyxYuHKJUVN3SxJfx777erNWTNTqiG8jkHFfMBM8+eSTIyCzVHhMBwtMtf1eMH/AAQdEQDNBkFHcsUzcxGadddaYuGVxCZNOssT1YZEjIN72229fffCDH4wUpCV1KByrgNFJkiRJkiRJkiRJ0o0UdZIeiCjFxQrECtmdykQsIVgUsYHrEnFD/BwxZAgVRJcSOLgbiyyySGTIki3rD3/4Q0R5Fz1eLBpZryZMmFAttthiEbSYKGLf3LvE8SmiyEsvvdRTrrqwdMcdd4TbUh3/UW5lLZTtmmSaAne07bbbLmL6zDvvvJNlqbIewacgfpDj9h+/vfjii3HcYgQJNi3TFTFJ3KG77ror4u789Kc/Dfe09mDP4vO0w/2KQJYkSZIkycyBTETi7Zl+//vft5ZW0VfqhJdNr732Wnz3UkycwxJ3wXJ9Ma5BpU9W5ruhb1V/oVWwn3oSCv0Y8RaVs7w08z8vpEr5xSxsNBpRjnr/qxv1Y+/tRZz9KGfBi8DeXiRO76gb9VRo7z87Xue0/Rgtr/+vHb87T+pSrMv6i8lutK8zPdSrkAyOweRct9OtHlwL/lOPz1k/PnVarpW+sB3JTcp+fC9lao//aR3L69dLe71aR7nb61d5LEfZvvFLf7E9/yn3hEJZ3q0u2lEOL6cdZ6Fsw/T888+3libTE/+4N3OBZNBo8A8++GDXqPTTM7/73e/iISr1IViKCJJMTAFRgtDCH9IkiDLRxmeJ/eK/YsYQeIgnRAwiBXGoW+o367NOsb5YPWLr+J9Ayf630EIL9UT/ly3K+vbDN7OgbEQn5ZKlqog9vovtU44ByiFtutg/RbQSL4dlTTk223L8BCvHJraPbRJ4CoQrog2sK5iyspcy2Kd92BaRijBkW/Zje2Vf/kNUKhC1SvkhzpGO0corr9xakiRJkiTJUDGQEe9OxiCxdaY3TjnllBgw6becdtpp0bfSLxPnj5V0OxIqeJElNiCxxgsw3yVtuOmmm2IQ/Nhjj8VLKH0PltG2r6/SiTPOOCP6eSUWYOGJJ56ozj777Oiv6NecfvrpsdyA08s4fWCDWMv1s5RF/9E+xYHQb+yUFKKO4y2JNsSLcOztGZwMhlmD/+AHP4jYiPCC0PHax0jheI0F9GkHgv+JT6lPrB8MlvD6j/qcjldsEsfnBaK+pj4l4ce8Y+4WV5LFuZeR4j56AakdOH+d+ubKYTxzyCGHRKzHgnqWbnsosFQXM3OwyMwrXpH61ZbaYxepB8JP3ZJfMpWjjz46vAK8hDWGUIcnnHBCxOWEl8DqptOL1QIhQ5xQyVyuv/766Pdrn8p0//33x/TjH/84xiz699h1112jH69dOo/GBIceemi16KKLxu9wPrwMdo3+5je/6UnO4hwRQ123rPsJu2ISGXv0db9SVnFIxXq9/PLL48Ww69j1stNOO4UwbH+uVcegbYib2gnlVW+2Y1xkzOM4L7300rgXqAvjKnVZxoPtuDcZw5V66Qv3kuOOOy7uQV6MK6NxoXN58MEHx3l2rzO+cg0UZBE27/xqB86J+45y2aYX6+5FP/zhDyNeq2PyH1mVu41ToQzqwf3SeXR9Oh+uCcfvnKsX9yziqeu1DrGWkYJjUjbHQlRzLOKoMigwxpxnnnl6LUcd+y3tudMYMS11ZmI0eA9haqzJTYSyXeZ1flwYZdKwqb/ekJR1NFoN2gNBo7aMq1T53mmyPtzo7KMs979i8VOWuRDsmwhSlplcSKVcKMuVv34MJhe1B6MHQVmmc1H+T1CxzM3ATdb38uanrG89D90y74Gq/GUb9mG5h2IRg8q2rFvWU+56nZuUrXx3w2DNs8IKK8S87fk9SZIkSZLRjf4VS+WVVlopBtgsf1G32qljYGBgqp/h7bp+TsmcqV9m0m/TnzH53aCoG/o+nd7g64sY0JXfzLOelrRizTXXrA488MDoDxpcKbuJgKD/on9UrA96w74NOP332GOPjUFkHcc3duzYyCJqYGNQDn0+/bcZEXXm5WrdYsTAnsBV+n76kvrH+oTlOA1KnVf9ym5Y9/Of/3y1ww47VHvuuWfsw//aMdgXAkD7cI4JfwUCwUjjuB2DSTvzQpqwAO1eOzBQr0MclbREmnjp3SVMUZ+sTKBuZMv1grg3CAnEVO2OJb+wE+qJWCKRCbHEdSp5DMaPHx9iCnGFILDzzjtH2ydM1NHWnT9jpSOPPDKuUxRxzTVDBHLMxBfjAu2gG46NuEro/O53vxvlkoCmLBdWwrLFF1886hDd7ilEJC/H99tvv0jo4r+lrKuttlqUibBBrHEtDheuY6Ll4YcfHvsm4KkPdScpDsFaghz3hjrud8VyyPp+L5aNlvvddp1DbYIgqPy9CSlEvBtuuCFeADh/2phrUF1usskm1UYbbRRtQ/vTHol47fC4cG0fdthh4VFCZCXqGAc6FueHYCvJznCRos5MzMc//vFQL90sRvvkOKn8nX6bniYPVG9dWOqYpzB76CdJkiRJMnNRrDe64S2/AWYZ7LPSkWHUwLMd1gUGsYOxUDKwMhgx8GqHFTWxaLipW0qD275BFEtrgzzHOVr7R15wsrDohAGieJSsX7pZSXSCSFDCDRS0ExYtrBiw7LLLhhWBAez0CuuQEpfTIJ6wVR9UayMEiBLCgKUJkaKIZIRJg3oCYm/XgsG87RfPARZz6qfd3Uo7JRAQzZSD8AAvj1lu6c/3hnW4HPaGNl+OuROO2bVQjpkFF0GPeERo9RIaBGPWHp2E2wK3SmItjEdkDmb90g5rv25uoUPFftVLe9xWXg91AbQTfjeWGizaifAbq666algLsYhRJ9pUsaxh3aV9EOA6YRvGnF/+8pfDi+MLX/jCFKFBtA/naDhFHTtOhsCMnP0qSZIkSZJkZuFP03n2q7333rvRHAzE9wsvvLBx2mmnxffmwCI+6zz77LORhVSmzN///veROfTEE09s7Lnnno2bbrqpcdFFFzWuvfbaxo9//OPIVGrd5uCv9e/O6M/q17ajXLKc2g6ag+LI4gmZPpW1OcCLzKh1Xn/99cbpp5/emDhxYmtJd/bbb7/IFIrmwKzxve99L77jrbfeamy55ZaRJfSpp55qHHLIIVGG5oA5jv+OO+5orTkyOBeDyX7VHBTGOftzK1MqllxyycY111wT5089nHPOOY3HHnusse+++zaag//G1ltv3ZN1tTdklK1no9UO2jO73nDDDT1ZcGV0PfTQQ+N8XXnllbFsTJcsOwNhqNmvZPypI3vt7373u/iu3at32WWdAzjuo48+Or4XmgPw+Nx9993jeNVDWdYNbe24446Lc1TQ5s2fcMIJjb/85S+xTBlcn85Je/vXPl0fW221VWvJJC699NKoe+tfcMEFUd433ngj7kuXXHJJ4+c///lk58p5t143XnrppTiu11oZdqGs9n/GGWdMdqzqQHtyn2hHHbbXt3XPOuusxhFHHNG48847W0sbUfZyvXZioNmvXNdnnnlmXOuYMGFC3L/UxXXXXRfLsPPOO7e+TWL//fdvPP744/H9+eefj3Oz/PLLx73ecr8X3BftozecB9ek66Ggfm+//fae+x9kVj7//POjTmR+ruO6Peigg+L+B2VxP1O+Y445JpZBpud6nfaFc0O66XZdpqVOkiRJkiRJkkwHcPFodtrDrWOVVVZpLZ0S7gHin4hhU9wPsOWWW4abQLFiYVnApYKVTV+WP53w5pvViBgU3J4KXBC+/e1vRzmWWWaZWMa9x/LBvim3fVYoXBy8KS+wWvZWm7VQgTUBV6HmWKa1ZPQgtqRjZg1QcB6KFU29HnqDhYX61B58/9a3vtX6ZZIlCmsC1ht1nEvLpydrHdeDieWD2CQsb8CFSjwa1iTFCkm5hW6ow+ICrGbEVdGWyrJuqB/bqcfoLJZRLEg222yzaKPckbjLWb/dcko5+6pHlh+u0fo13E671Vo75RqouxQpizKxeqkfK8+FTpZ8YMFTrHoKwl8Uy57vf//70YbcC1gDiZkznKgHFjEsgFjmlViqLGe0Yy5txXKqG8q7+eabR/ykwVDum/W4YiznlKtu2cVqiKtkJ5wPdayu4RwIvQGug46FWx0LyN5iOg2UFHWSJEmSJEmSZDqAa8ipp54aoo7BeDcEPTVwMFgwuC2I62ewVVxSuGCI02dg0u7O0B8MhO2H+wfRpgwIxS0RGFnQad8hXoXv9jcYDH6IVHvssUfE5IGBqWMpAW4LBlgGT45vtOFcCY4rrkjBwFrgaINAQlp/MKhUn/6z/fbbTzboJxoZ+LcPKu2biCBWyPSC68F08cUXRyyY4pqm3Ys/Q7QQ46QvxKURc4Zw2psLUsEAvwzQiUbio9gGdyiigTg74rR0E9n6I4wpO3G2XEOdIOi5DgaD4xyI8Fmu707stdde1bhx4yJ8h+MebrgiOadiJHGPKwKT9ujewN20Lkx2QxwlbaTEcJ2eIDq5JsUM23DDDXuNizVQUtRJkiRJkiRJkukI1hoGrJ0oAToNCAzKBdysY9BJjDGYIwSI6SAw509/+tPWGv1HfD9Zcgz2iEX1+BpEgeWWWy4C0Q4HhBzWGPXsXI5VwF4WGnW8STdAmlpxPUYaVlAHHHBAjzDAakQgXOKMt/yd4hu1Iyi2+nT+68IDiwjCxje/+c0prLfUqfPtvE9vEJxYr2nbLCcImmKTlIGywLSOuQRSLog55VpYZJFFYsDPGqmv4yMiEFPsQx1pm67HutjFWkO2KoKL9th+vbIkK5mtiqVGJ1zrBAgBejvhWHvLIuX4CXZ1Qcb+ShysuoBFIJVZrhPiBrXH7nG8Ag0XiI3qWiDg4ca5W3311aPti5tVREh1qB2LCdZbwOg62on4QQPFPc15d43UUZfaV0EA724Z95RbmylWP85LsR5jveVYWJ4NZ6BppKiTJMl0hTdQJePHcOABcNJJJ/UEkkySJEmS6R3PrG4uIsz2ZbIhqMjOw2pFUNeCwY+MNcUlxGTQaWAiW9ZAECT0O9/5TuyLoMAtog7BpdsgcTiQgYYlQ3FlKBg4Sbddsn2NNlgncO2pW2EZvBMxuP4Q6AZigVHwn7POOisyQ3WzEmAVRbyrt6npBRms1I3zLmuXdmlaeumlQ7BwTPp9xYKLAMT90ECdK5V2s8EGG8TxyTbXDe1NfduW69A+XTv1tm6AbnsyGxm0u96IPCCksO6Rfto1qs4LBvPEkYLts4JRzk7Yfj1lezvKSvwsAqd7x3rrrRd14T5Q+r/qjthTTwlehxBBqCqZ5YgRBNt6xjzHq+3UXTyHC/t3LOqy/d5nnrjT3/uXMhNh2sWZvrBv1o6ENBBVjSHUf8lU5xoiaml33XC/LRnGCGXc7OpweyTi9WYZNVD+ce8mre/JIBD5mu8pvz8nh5Kq4WkMTBs1DD6wN998czwYXQBuCCKde7i6YZQbgBMrtd2tt94aF2B5K0H55QPqxu4CtQ8NRcT6e++9N3yQRTx3w+mGh67c/8ogO4ILR9k1VMtcKC4kN0nqtWUaZFFn/dd+LHfTtI1uaLxMct20NGJqt2O0TJ3IkuDNke13wg2YmaWOg8n/lcPNit9q/RjgjcU111wTF5vjcGM77rjjQqFVz86F5S7As88+O8pgG+UCVS6/WTbvvPP2qKl13KiVmymgOlcm5XSunWMwFyw3Pr6x9nXhhRfGes4NBVwdljdQ3iQ4zxRvuPnXfUXd3L1tg5uYG1O3OoMHhm14a2eb3tyVNqQ8zoe252btZqwepGl3LI5/woQJ4edpPdkCtE0dRyamzqntqnPnxNsSD0dtyLx2ef7554cgox61Wcdpe1dccUXs0/lTP+036jreVDgf/GF1QgvqXj0rU8G+7NP2PByp5tqNNyP255xpfzpA6s8xlMwAQ0UbE8leG7J/51jdKJ9rSDwBHQoPR+bqzr9j00HyoFev3d667LvvvmEiz7Ree3Dcjkd9O1ftMEfVjkvnTH2Xdmg5X2Rls3/t1wNe3SlbkiTJzIT7L5GAy1BvmW9GCs9P93vPFH0YA1XPGW4fBhd+h+ed51vpT+g/GrAZcOnH6CuY1wfwLPR80I/yDDKoa3e5KXh+eWYY8Hq22Le+AgsReIZ4vnmuevbrr5qIDJ5PXGA8b5XTYNj+PW8ck76TPoMy15/vBf0QZS/PMohZYX9bbLFFT99Bv8nznPCgL2K7Bkjd3ppPC9SrsYCMPQNBX8L/9PVK7Bb9bQNyqCsuWI7Pevpm6sdkXOFZ71x0QhvRF+MqU0ff07krWZoK1rUPVj1w7vVDN91005gfLPppMnUNFteBenLO9elNG2+8cbgrcV+pj32MT4zH1Ikxk/amL8U6Rx9c/9B314k+mt/1g7thO+PHj49rxn/VjX5kGfc5Z+rJUFqMJ302acAN+vXFtH9WGdZRD/rBykMYEAdIm3cd+11fT9/POTces577FVFFn56I263/bLlrXv/ZvcC+CaELLLBAHKP+vWPQJycUaj+uS/cU9WqyL/cI9WGMYOzkmPWvbUu918vqP6559doJ9xKWfb1ZGNXR/rhfaeP1+4P+svpSLuMz1wPXrILrwH/cm4yT3DPME66KMMnqB7bFcqmMrTqhbagr9zAWa+pfefxHHbh3uge5hojK+tn2UfrdsA37URb3NAKse4MyaTvuXc6xsY067W1sV8e1YBxJKJSVawqaDS8ZArIEyBbQPHkR0donmjfCRrOhRdTw5kUWkbNNzQYXkb032GCDRvNBGOvKGtB8gPdEcW8+CCNaevm9eRIj8rjl22+/fUTRbl7sjeYNLbbZfIBGVPze2GmnnRrNxhORxEu2LhHQm40jMi1stNFGsUyU8GYDbTz55JONPfbYI5bBfssxlGPsRPPGGxG/1Uuz8Udk72aHIsp78cUXx/+bN9JG8+bR+seUXH755RGxv6xrm5DpoPnwbjQHyY1x48bFMtHbmzepqBvRyv23efHHf0V8v+WWW3qiwatTGQXKcSiDCP/NTkjMq4v2qO8F50wWiuYNubHiiis2rr766sauu+4a5Ss0HzKtb3+PkL/sssvGtps3zlhejzbfvDFFHRW23Xbb1rdJNG/sjQceeCC+X3LJJXHc3XDcJ510UkRrbz5Yop3tuOOOrV8bjebNJyLXO3djxoyJ+nr44YcjYwCaN6g4FhH6ldc5sw31YV3He95558VxWNbs7MX/HIOI7tqMiPPNTmT8v3mDi/Mgk4K2bZm2UD/eTjgO22xHW3d9FGQ++O53vxtlkxHDsTif9mPdZgeyJzMBLHf89WVDQT3K6ODagywFzQdcRO/XNmX6OPbYY6McflN/MgUog2Wi5ndD+1Je22p2hKLO3VuaD//WGpPjOlb3hTXXXDPOFZodhLge7dP157y6NylPkiTJzIb+0/Sc/cqz0/3f5JnsOQrP2LLc89pzod6P0kcpy8t/zFtHH0qfBGW+G+qn7Mdzzv+UqY51LFO+sh48X/R7yv+tpyz1bZZlnfB8LuUseG7pd9Up/ZOCsrT/b1rz7CCzX6kL9eKYCs2BbevbJNSz86oeynH6n+XOezec/+ZAuTX3d/QLmoPd1tzfUYbmQL41N2kf+iFDZajZr4xHrrrqqpj0g7Qh1PuE0K7VCdST8YL/6JuV+nWeCrZTttUNdaBNGyvoR6vv9nNm3pin4Df71X+vX6PGIu47jzzySJxPKE/7Oib70R+2HWO33s5zQTn0jf3HuK60FZ+lDtVFoV6vptKfhWM29lTesp32svZVfwPNfuUeZ9xb9ld49NFHo48Px1gyAhZkifNfaO/G3qW+nBdjvIKxi/FoXyiDMaSsZsaeZRypHOuss05j/fXXjyxrUKfG9NY1GYPAfUlWs1VXXTXGAbZpO9fVMnnpmxsj9ZfMfjWNoLI1G1GohM1GF5YxrEmadRzKIqucEnwM5os/p3VM8Du1kYLrTY3lF1xwQZjuWU5t9ObfPijItkk1NN8NSrB1qYxLLLFEKLTU4OYNP9R/qrM3HNRD+1M2SrHt3nLLLbENKrB9mXpTFAWmokQySXT8rAOaN4FQLSm7/m/7xcqmG/V1WT94s9C8UYYyTilv3kxDRfZGiBKsbjbeeOMI0mdf/ktBVlbbgjqidpfjUAbHaz3zfG298emE46eqNi/SUHBZSjUfHlG+Qv0cUHXVAxXftov1T30d38t5R/s5pJhTZMt69XXbEbiMDypLHObR3rDVt1f+r/xUdvXFekkkezg2x+JTeR2v9seE27qLLrpovL2zDdv2Bsh3FljeAvjuPNmG/2tvzoNJPVhGZXfOeqPZOaw6vT1tr6sDDzww3jIp25577hllcj7tv5z3+tsby7SD5o2/taQ7zq83nH3h+intpZSN9Q413psLbzZYPbGI0X7tm2rf7Hj0vJHrhONQX96OeNtQ6rp+/HXca5oPip7z7do99thj41z7T739eEvhOipv4pIkSZLph9KvM3meeYZCv60s95zWp6j3ozxTyvLyH/PW8Wwub77LfDdKf8jkOep/ylTHOpaV533pE+o3lOe9yXrKUt9mWdYJz+z6G3qstNJKYdldx37qz3dlaf/fjIK6UC+OqeDNfR317Lyqh3Kc/md5b30J579YgtdhvdEpa5EyFOt82EfdRWik0KdhsWYS10YbQntfsfRBoZ6MF/yH9Uyp37o1l+2UbXVDHWjTYvCwjlDf7efMfN3yzW/2q/9Wv0b1QcXOYTlVxgTK076OyX6KS1ndiqs3lMPYy3+M60pb8VnqsO4NUK9XU7Hsh2NmGaS8ZTvtZe1P/Q0E9zjjsLK/gnGI8QocY7uFGYsV/4X2brxS6st5qWfRMw6pW/l0QxmMqYSC2H333XvGkcrBeo3XSPFYUae8BKxrYj0G96WtttoqrBcFlbZN2zE2KLAEYskzXKSoM4wYUHPBMmhyQZTG/+KLL8bg12dBI2BqxnytEx5Y/k8QMRizPbioLAMzPttl1mVw2w0CTjE9A/HDAJPAU2AeaFt13EjuuGOSX6WBqN+JNL3xxhtvxA3NBeUG66an/EQYgo9tEL96o75ugbndiiuu2JqbdGE6BiaP3NAMbMvNtzeY9tm2fRQM4O2Lq5R66ITjcE6YdrrxGUQPBoKBfZkM1ntDe1Lv9XbTGx7gcMPyMOmE9uNhcvzxx8d26w/wdpSVAATHXkQD9cy/17nWHsp+CTJEi/pxKT/hzfESPHrrIPy1lWWgPw8JIk7plBBQiml4N7RH2yXE9AVTc65zfSElJvPS+jYFlHPewOTU8XuoEMiU06dl5YHeCW1LfWnz7hG9nSNtV50qQzk/zsc222wTWSLqOF+CLjI9Hs4HcZIkSZIkSZIkI8cszUFU99f/SZ8QE8S72WWXXWKgS61bZ511wk9O2jWiDf9tAzODwGWXXTZEmR/96EehJhIlKHiUOmIIf0eii8EyP74111wzAlIdc8wxsT9WN6wdqH3EDNYi9kdRrCuodcREoSjWfX0NGJ166jP4JBI8TI6FosjKgOo4duzYCEbGX5DyLVVlu5JaIGoZuK622moxf/DBB8cAk2+ogTJBhMra/iaiDlWTFRPhhu+nY+VPTt2klJd1CGPKo95ZaxB9+MkX+JAqcxn8i7PDsoIyaj0DW3VMzCFAETx22223rm+x+HXzp6SAEyoMzsU/KWy00UZTpCT0lqmebUJUd29JQPxQF+W8CEQoplKBTzUFmgDgXFGiWSJ1Qt3wtayj7tQb+H46B9tuu22IJ46D0kyBVs8FqR6lUYX1rVtUZe2CZQ9hgEWaupJNg6C46aabRhpWKrn6KSkHrWMb4koRGZw/olAnXBeuJT6q7eKPuEmEmyIyiWqvbbajnvgt2w91v47l2ku7f3k7BD8CSW9vRogtrnXt2T3AuXEetSXXrDcg1rFPdTFmzJhoC+PHj494QcpW2kE7pf6cM9e2NuP6t31tt86JJ54Y+2JF5b5BSBJsTzpY1kws8cQ7IORIvemYlLt+zpPB4fp3b3b/SZJkxsD9XX/HG+hOVgxJMhi8rNSn661vO7NiPKTvlcxcGCexpmq39EsGD03BS21jCjrCFBB1ksHDX6/EqMFyyy0XcWvEQMGjjz7aaA5oww+wwNdPfBd+l/4rNgj/R/6h4qJAbBKxeJoDh4gZUuB/J4bMjTfe2DjnnHPisx6npRNiaIglU+BzyFdSLJ9Cc4AccWz4DvL7gxgu4oKgHp+lN/iQ8kMsxyu+yOuvvx4+juqlP/AjrfscwjYnTJjQmpt0TMXHsnDwwQdPFquEH2Xdb9ixtMd0sT5fUtsSl6QceyesyzeYjyi/Rv6idTbccMPWt78jPkod/yvw0b3ttttac43GNtts0/o2iXXXXTf8Vflq8scUH6gbiy++eOvbpPbF31wcpAK/WDFd6vCVXmWVVVpzk6if5xtuuCHORWHnnXeOc6mexHrRZsXTUe/PP/98xMzhQ1rnsMMOi7bsUz33hnI7z518uF0XtlNYfvnle3ySUXz6tTvXm+uuHXFmBuLf2xv2V+qzeXON2EH8ao866qiefbue1ZU6W2GFFaJcu+22W2O77babIkZAHf63hU022SR83PnluvbbET9JPK3vfOc7EVMK5X7g+laeAw44oHH77bdHvCzt3LbUdTI03EM9QnPKKaeccsopp5xyymlaTMYdnUhLnSFSt9QBywRv6LfeeuuwvuGO4i26yO/FQqFY6ljGJYJVCysSliLFUocax1KCGuetu7f7fCW9+WfFYBviunzzm9+MN/msdvzeCXE0RGMv1j777LNP+Pw1B+QRKR1bbrllHIMMSsVSh4WRN/wsB+oWHL3BHeTyyy8PKxNNyzZYoLAw8ma77vLVDVHbuZDU/Q659rAYsj2wGGF1wgWt+COKIeL3XXfdNeY7Werwx2UxVWCpw7WKdYjjU8/FN7Md1i077bRTWMSw0GEV4TwX+mOp41wW656rrroq/H97s9Rh2cH6w3lxDrpZ6mhLzi+LMBYx3hZdffXVYQWmvdiGOuU3ywqsuAixCGFFU6ifZy5AYippK+qW5Yc2o0zOM1cjlmesu6SHZMmkHHVV/oc//GFYrjhOFiSOvbhrteMNqvhRzlF7ZqZ2Sx3btR53Oe1bnCnHos11stQpy72drUeoHyzFUkcbVEf77bdfXIPqgiuUGFgs1rhysaLTNpRfW5NVwPnsZhEmgwJLNLDkY83lmmq31PFW0PkollOyg7h21LPrwz1Efbs+XMfuF86XjHes2lj4JIPHOXGe3TvcNwYDy0bPAlZU3e7fSTIzwBqYZao+zWhEBkr3ZfEd3I9HAs8kk/5BvR80tdGX8MzWf6rH9BhNiEl5xBFHhPVsHeEYWMuyWPb8br/Ps2Zg7SlEQt3anuWP/xkX9Dfmhj6g5zyr6SSZlhh3sCAR03N6R2gJYy1jAePnGYkf//jHMT5IS52pRLulDuuWxRZbrCe7gOxX3tA3B6wxsSSoW+r4zkJDxO9iqSPquDfv5Y0/C43moDbW33jjjWPbLHRsFyKy17PfdGKfffaJsokaXtZlXdAc6MbyYqHBUuftt98OiwZZdQp+rx9DN1i6sBxoPqjC0oO1kfWHaqkDdcbSRiYw3zF+/PiwAlE3LGVYpBTaLXWOO+64sIwpxwHWMsWChDVT8yKJ751wPlhOgNWP46tTMojVWWmllVrfJlHPKGa/vVnqrLfeeq1vkyx+nKduiPLPYka9y7gFliP237zRhmUN6xJWIyxBZMkSAZ6VWJ26pY62yRJH3bKSkoWCdYz2w0phzjnnjDo55JBDIvI8Sx2WRfU20uzI9VjYsK7qzdoILJJE+m9H+3d9FMo1omzLLLPMZBkNWOSUa6dQLIzq1j7dYAknC1hv1C11lEXbU9+2v/fee8fvLHIsg3Mjq9dvf/vbybKkdcL5UYeyPIiyD9Y1rG3qbfeCCy5oNG/w8R3NTmHUf91yj3WV+5P/ssaDa7Gv+0XSN9qJR+j666/fWjJw3EPmm2++AWU/SJLRyKyzztqn1fGMjL7iXHPNNaL3Xv2qvfbaK54d0xKZRWebbbZ4Do1W9B/f9773teYmUSztZ5lllpj040p2JjgX5be55557Mgte/QfXxD/8wz/Eev2xrtVf+NznPhffPefr1PtV+n/6LZBBVP/CPkz6c/oY+qfm9Wf0IfRp9OHLMn3nOiVTax2ZmOrH28naOBkdsARnOa7taE+8NPTPC9qCttPe19Fu9M+h/6qP3D7G1Ncq7U4G2YkTJ7Z+GRzGK0sttdSgnze9jYGnNn1lv/rHZiXtHepOMihk/qHQl2jarCIEqS1+tZR3/qTe6pYYJeJw8OUWyV6MC2ohywmxU/h6U+e93S/qPIsQCijLDm86BAMWD4ZFiXgmttM8l72+6RWxu/nQifKwBII4OwIhs7qwXdY5rChYYggmzPqi+JwL3sryxTHI+9/tLQ9LBDFLWH+wWKCCOi7bVd7++LCLodNpXXXKEoGFA8sH8NNlraN+xR9hiVFQR+quZElgQcISyjGYnCvBa1l/2KdzIEZRtzdJ6l2MEttzjALg1t+sKHO7P7W3LPWI8ixWSsR+daJ8JWitc1ksaOC3Yk2hvpVVOTuhDagHFissbbQr22Nlpc60p1LehRdeOCxiWJuwNKnHjhHXqbQj7UHcFxZO9ssqwboyXah3b5209XJMLENKO3ddsLaxru3Zr7pwrL0Fs24+BKLtKXcd+/f/UlZ15/i0M5ZlzmWhnPe6RZDtsphjVdEtHlTB/1yTxSqoE9q542YZpX27vpwDZVJWVkEs8MpxqEdxbLQR0f3LOe+E67HZ+a4Esm4+yOKYrc8SqrRd7UGdstwqx8MizfnTTkobc57Ma5fqz/nwG6u5tNQZGt6uihPmPirG02Bg2eWexMKtt4DYSTLaYe2oH1W30B1NeCay7vQMYmU6ErAsd8/xTGh/xk5NWNN6wyyW4Wi1SJThUr9q5513bi2ZZL0gdiHrnU022STmWZ2zMDYuEG9S31tsQ/1zFgSs2f2HdTLLG9eDN/L6U31ZGXuDr98gxqF+BqtffQLWWbwISsxJVnHOg76u/oX24H/6LmJm6uOySJclU39R38LzSb9GH5jVsP4UC+6S9Uk/UbakQnNwH1bB4neWRC2Gm6yEk9GHsas2fckll0TWLm31jDPOiNixvBVMxXOBh4r2bIxo3KZt6UPzItC/Nfat99ONPbUtYw73Le21r358b9gv7wXjhoE+b1yjrA77k0FrauC6lBWZNwLL1nbS/WqIeEhKH+wmmSTJ0HDDZMLMrWg48aDRYRmtA4bhgvA5Ws3jh5vifsU9Tid8MMiexvXVYKC/JvZJMhohjnOd5qI0GtFXNCDmgm3QPRIYELjneMlQkllMCwzUvODzHCYSjEauvfbacDWXlbXg5Z961qa9hBGqgegjYQcXbG3BSxwvbbhxC6tg8OqFkjbid2EbuCTaFlfr3vDyjqubl7Wy13oxK2GGgTOhhlAkC6mXYV42cvkvEF8IMQbkBr0EHN+9DCpIvOEFhJePXhZ6OVReaDhGL6EKXMLHjRsXYlcJ8+CY2t3TktGBtnnDDTfEfXzPPfcMAUY70u70cbg7uQa0GSIv0UdqcGEcvITVVr2YJlhoY/WXzUIbWFZvi0OBgCk0BdFyoM8b4rx7aCdBZVrgnuAFSDf3qxR1hgjFUcU60UmSDA/8wnuzlBkoLM0y00nfsOSpx4lKupOiTpIMHynqTH1S1Jl6tIs64mka2LLEdN5hQOteT2RhYWwQzApBvCX3f1bo/scyhsV8iRPIkocFs0Fwb9RFHeeXNTFLIANqFtKylbKWYAFEcDn88MNjoI12UcfAXAZOFhX+7/oU++2+++6LfbA8YunNEgjtog6RioWQvhdByrMyRZ3RC1FH7FTt2z1OPEltglV5PRNv4Z133gmxkoWX/hMPEkJgJ1FHvEiW0eJkMqIYKoMVdcS54m3D6s3xuna6xcYcDOrE9k3dtp2iTpIkSZIMMynqJMnwkaLO1CdFnalHu6jDGsa9/fbbb58i8UNJbMAVxcsmwzBJLAgtXLS5ahNNStIPAziCy0BFHUG51b1wBcQjA2fb9dxiIcH9xIAbA7HUEQ7CcdXd99tFHYIUVxmDU0KVZ2SKOqOXIuo4z9o0AZMHCysbbYPLEpFC23/kkUfid+5ZLMMfeOCBEB/9b3q01OEyyb1MiAnWRFy3JMdwPEIbuHZLmI+BQMRxv/Bs4HqmToQAKdZL7h/tbmZ9iTr/0PpMkiRJkiRJkiRJhoABWjfKG3kW/qxlCCheEhRrBi5a4rWxduDmJJPpYCAmGSwS8eDlwQknnFDtuOOOkRFXjJ9u5RQvx2CbqxiLG65hBTGBxB4UV6cT4oyy4GHtw8qIexk3LNieidCTjC54rhBnLrrooojvCeIM6zACIGFEFmPxPMVmFVNKWyReiBkJVmti82gjYmFCW9SmLCNa9nZtDTfK6poByyLZvYitPgmnBFnXsPX6g+uIhR6rOdmGWeS5RgmsRWz3olB8zsHY3KSokyRJkiRJkiRJMgwUS4PeBmbLL798BDNmMeDtOysFg0NWPFxNxNdh8cJSYKBwETFI5K5CgFlvvfViXyXYMisDri8EJrCgEvQfrOYkweB+JYCzxA0G7IIcF2uJknyjwPKhIH4h0ajg2FgyiJtieyZWY8noQjvTplibPPzwwxHDibi3zDLLRJBs8ZwIOERBbb8kkdH2vva1r4WVmgDeRA9tRLr/8juB0zKWZ/0VUIaKa5c1DIsz1m3avuta7E+CrHkxpQSDZgnX6Vpn/cZ17JRTTon27zpkmeM7EZew47py7XFTJOYMJQh0ijpJkiRJkiRJkiTDAEGGNc7EiRNbS6oY7AoaLDYHV5O6KMLlymCVawi4sciWJmsYMYY7xkAQz4eFjNiEgi1z723PnmWwWtxGDL5L1kzZPWVpM+A0ibOnvP5f4nyI11N3hyFCFWTWFJ+vYNuyg8rWWba52WabtX5NRhtcg4g39TYgY5XzznpM+yoZnwsyAkrUwU2ztJHiqikjXFnGhXBaZQplTSS+p4xwrlnZ3Ig8rGt8J+SwvJENznUu6Hk7XLa4JRJtCF7nnHNOCDrDGTO0Too6SZIkSZIkSZIkw4BBmwEs6wJv63HVVVeFBY1BLUsYbiaFX/7ylyF+EEq4YpkXR2SppZaKuBtTaxCYJCMJMYRrVbEYGyrEF1Y94kINFaKNeFQQC4qLlIxxBEzuZLJ4cSskThFRXd/tKA+LOaLVYOLuDJQUdZIkSZIkSZIkSYYJ8WSkMRdLRNaoEvCVlUsJEOvNP/emAw88MAKusq4x7+2+3wVTJv589atfbW01SWZ8iDjcklhvcT967rnnWr8MHkIOSzjbFJdqMHCtUhZWdQKCc4diQUdo/cxnPhO/CfZMaF1kkUWqffbZJ/5DjBUAmluWYxPs2CReDvfJMi9mkO35bju2V34rE6HL/ln+mLf9/pKiTpIkSZIkSZIkyTBhsLrssstGvBlxRbiNyF4DAo6B5yGHHBKBUbmssAIANxNWO/4vO5V5ac6TZLQgC58AyuIvDQeCKRNCiSxDcc9ifcNKjvXQ008/HVY/xCcijmDOssQRXXyKCyWYs/8QasQAIuywzPO7ScBoLlhlXmY6YpHvXLvsq/xWJnGDiMACpJtXjv6Sok6SJEmSJEmSJMkwwS1DymSDP5NgqYLBQqpvmYK4bAgMK7BwGeCKPyN9ud8MfsW0mRauG9MLsgs57nZYOchEJMaKeEBSrh911FGDDpwrvskxxxzTmpuEzEosrMQgKhPXGpZU0lnXMchfeeWVYx3xX2Qqg4C50nWzGmnntddeC2stQYOJAIsttthk+yoTcWI08973vrfaZZddqiOPPLK1ZGgI0izQ8E9+8pMIxDxYtCti6pe+9KXYjjhSXKe4W7k+N9xwwwjw7JPFnXbhP86reECsdwRT9rtp1VVXjf+XeQGixdfxnXumfZXfymQ7YlqJvWNee+gvszQb38BzZiVJkiTJTAxzXBkR+FcP1jTemxqm+eImeDObJDMrAk8ybzeAGo3o9EshvdBCC8UgYCRwvzFxKSiZZ6YFBsPeOrNaqQfXHU1wlRA/h9XNSHHttdfGQJM1wIwKtxMZkKS7NmAW5BmsH8Q34Zom25ABNvcVGcM8f4kzgjn3F0NfmYvERLnzzjt7AkC7TqWuZvlRH0yznhDsV7pudcxtjhWVQfw888wT15WMT/vuu2+1zjrrhCjH3U75yrZBrPK75z6LDfsygG8PhG3wTxCYUTjggAOiHqXNL+esP7BIcR5YtBAzO+FcqXf9rXpddkKbEKRZWyD4dUIwctZzss4RXbvhHLmmiHyEGlnciLGXXHJJZH/j7kVwhUxWMtXVg59DmxBYWWBwfTzttq/sVr/97W9j32uuuWbsrw5LP+Vg2acNtpOWOkmSJEmSJEkylRnIgGdqMa3LMD0c88zAaKhng2NWSdxO6jYHRB3WLcQDFjZE4LPOOiuyg7F8KMGo+wsRjmsN15lO6dXXXXfd2EeZWOUQfB566KEQBexXemrL/X7ZZZdVW221VWQ4goxIYqGwwiooo3nCbn3wP3bs2Mn2ZZqRBJ2pjXYgM9ZwBD8eCKx1WNYRpMXJEeScsETUI+YRdIhMBD/rCaTcjkxwn/rUp6pbbrklrIhY60n1TizS9oabtNRJkiRJkgFSLHVK528w6AyIo6CT+olPfKK1NElmPqS/FTtkzz33bC0ZXTz55JPVkksuGQODklFlWsNKgOWA+CzTctBoQOPNuEHNaLXEIgx4e98prfG0gruG+B0zqqUOKx3PQSnc77333mq77bYLawUQRFhBEa64NtXxW1/WD+0YkJfMRaxsCEYoljrKUE+7bl3uXgbkRCcuMu3WJeKpcK0SHJsrkPZg4M7qAo5Pn0EsJdYprI7si2jARWdGZmpa6gyE4bTUAWHu8MMPrxZccMFwlYJgyIQdEBYfe+yxascdd5wshXs72qiyce8zCX5+++23h0jIDUtZBHgmDqWlTpIkSZKMANLT6hgOZmLSqwPkbU+n33PKaWaZoAPb6bfRMo30Mbrf2L/PTr9PrWlmuM85RnT6bVpNAxU2pjfEpHn77bdj4CrWDPcr83BsLGGIVtwXCaNerBgAD9RCSUYi8W4IN2KlEBYIEnW4zNTjnCy++OIhOhBEiZTcF8WFqWNAbrB/5ZVXRr9g0003jcH73XffHb8Lvmtw3y5sip9T9kPcSKZEBqmRgLsUcVEWKi/gCIrO12mnnRZCDtGHMNSboAPtl9DEzY57Ife6vffeuzr//PNDPNQujjjiiJ59SIU+0HaNFHWSJEmSJEmSJEmSaQ7XGhYrn//852OgvMACC4TYwpqh4Ldzzz03LBXEZuK2JI4JVy3uMf1Fmngxc1gFyZRkoM19qr4N1jhEmzKZ5wJErAERrRslBbXYP8Qf4pNtC/LMLas9rhThoOzH4D6ZHHVy4oknRqapkcD52WKLLUKE4Ur1wAMPRPw3VqWEu6HCRYu1ErFI4GjW30SfwYi0KeokSZIkSZIkSZIk0xyWENI7c2NjyWIQTQhhyVAwyDUAZmFD2OG+TCAZN25cuNT0B+IRAUfkEe5UYqNwv7It2bUKq622WnXwwQf3TNyKpLYmMgmY7D/tQhKrIlNJP896i+WFbXOzEX9H5q72YL+shcp+xHFJJqdYaRWXp5FCgHluWKy4fBLhBmNN0xfauDY2GFLUSZIkSZIkSZIkmYpw2ajDmkOMFYN/2bMIBWKBlDgs4q1JbT7aIZYYJLNmOfbYY6vjjz8+3K+4OolHRYThylTEGwP9d73rXdWhhx4aqcHFwukPxBWxb7i42I+JFQhB59FHH22tNcmtmqtimWQuIipIny59ufPEAqeOWEbKt/TSS7eWVBEzR/Y3sbQM1MXVasexlP1MDZFgeoYFFKus4r7YjbqVVG+oS9nIPvjBD7aWDD8ym02vpKiTJEmSJEmSJEkyFXnhhRda3ybBjYOliUCzt956a8R7EVtFQOsJEyZEPBbxXEY7BsqCDMsoJcCwafvttw+R4/777w8RRYpw8XbUiVTRgikLFmsA39905kSi+eefv2cfJvuUVvziiy9urVVVEydOjH2Uifgj0LF4PnPNNVcESt5pp53C9cvvPqW+FgiZ2FQgRrC+ke1IoGeuPO0Qrer7MhUXrtGOLGBENaLZcMAtTjr8epDr4UZA8umVFHWSJEmSJEmSJElGAEIAsYGo4zsLHvE1DjrooF7jt4wGWM8QMogfdWsMbkrEFhZMLDAIMIQXsXXENuGmRWzZYYcdIjZOf5CKXPySOixkvvzlL0esnYL4JvZRJtZTu+66a/Wxj30sykVwIu6IfeJ3nx/+8IenyN7HAkXQZ8fFpawTshzV92VaZ511Wr+ObtQPC6b+WOH0F22hLqwNN2IwTa9kSvMkSZIkGSAlpbm3bzIhDAYphqXf5K8/77zztpYmycyHgatBU18pZmdUvI03uGNpMBzBNQeDeCXuOdwdxAyZVogpwrLhkksuCdeV0QhLDIPzdkucdjwvZF4qSK3NAgVnn312DOjFZLnooosiXTILHimP+wPRgwvRjJjSnLuZ+DYEljpcl2QCEmcEb7zxRmSIUs9zzDFHCDtcePqL+jHoFx+lDvctblxipQiES2Qq2D7BqZM1iThAMnAREbhWdRLguGzZNqusOo6LhY9U1+1IcU4kmlHQTk1zzz13a8n0i8DLYjixouqvGDi98Nxzz0Xb75bSPEWdJEmSJBkgKeokyfCRos7UJ0WdqcdQRR3/Y5Xzve99L4LtHnfccRGPxUD5mGOO6TNlMmZkUSeZsdFOWVFxSZve4dp22GGHVR//+Mfjmp2RkP1NfzFFnSRJkiQZJlLUSZLhI0WdqU+KOlOP/oo63HO49hSci9lnnz2+CxIsBbbrYPPNN494I/fcc08E9l1rrbVind5IUScZKYg6d955Z7i3lbTsJfCzee5zIDmIj1Tm//rXv8Z36/nNVFyxrOe7dXyH+fr69W35bl+W+93ysj3zIJiynHI9feELX5jseWM/xVKsvr/6fny3Hsz73T7r+4BlprKsrDtUPD9kfusm6mRMnSRJkiRJkiRJkqlIXdCBIMBXX311TAQdyPpE0AGXnf4IOkky0hA7xDj6wQ9+EBOR0jIiRIFb2ymnnNKaq6pNNtkkMp9BdjPrEl5effXVCJ7t/z/5yU9CxBAAmZBRMqDJWHbyySfHd9iOa0c8on333Tfmia1cGcGVT/a5N998M+br+E0GOsGwwSKmWNT5TTY27nKskZTR9gUyVz5lahdzZWUjzvo8/PDDQ5idFqSokyRJkiRJkiRJkiTJgBGLSHwhWcBM4r+IOUSgKYiJ9Prrr8d32d5A2CzWNZbdddddYRlTYg3Jiia49dprrx1WjiVQMUGlHo9ITCaiDQvqbbfdNuYF2v79738fAoyJu2OnuEdEG8tZVIJVDQGHGENksh/HIzYSscbxicfDGsdvylLHMRKsrMslTda0aUG6XyVJkiTJACnuV9/61rd6Al0OFAEfPfBPPfXUyKqRJDMrc845Z3TEd9lll9aS0cVTTz1VrbDCCtV3v/vdSKE8EghG657D1XPFFVdsLZ363HbbbfGmXSDg9mCxowUpyDfeeOPqscceay2Z9nDZMihN96tkWsP9itBx3XXXVV/96ldjGQFH1jCWLmLYQDp67pisYtwTtttuu7gnrbvuuiEI3XfffeHOPn78+LCwcU1xieLW9V//9V8h0hSINeedd15kIisQWM4///y4v73vfe9rLZ0Uy8r9V5yql156aTL3K6KT7GX7779/WP9Y58ILL4ygzyyOlJ21kOVS4nNzJPQQnghBRxxxRAhPAncX9t5777D6kW7fMQ4XfblfpaiTJEmSJAOkiDoyKHTKitEfmAG/8sorkYlDas8kmVnRQX/3u9/dr4CwMyLe5DLRf8973jNV0+32hvuNyb1mIBmDhop9GkgZZEkHPRopx1gf2E1r7F9a9BR1kmkNUYdrITGmxOt68MEHQ9DlclVEHfOsdwgsgoITU4g8xAqxboiixJtLL700rqWtttpqWEQdApEU9LKlcd+qizpnnHFGxAP6xCc+EWUhKon/Zf6JJ54ISyJWRGJmEa0IKlzFuHaJiXjSSSd1FHVYCrHQmWeeeVpLh06KOkmSJEkyzBRRZ+WVV57MZ3wg6Ej4rw5PiaeQJDMjCy20ULXRRhtFJ3408swzz8Tb4s022yyCBo8EYky453z0ox+tllpqqdbSqY+38zvssENYNErXPRoxUGWFZVA4UnD1ePbZZ1PUSaY5RB19ImIx6xziB8tA/Ztx48aF+EEkIXYQQLhqEVlYsnC54u7EgpCo841vfCPcobhhyQI3NUWd3XbbLaxxuEqBmCSVvAxZyqtfxoKHO5XrS3m4cP35z3+uTjzxxGrnnXeOGEHtog6xyLLhToDRl6jDjy1JkiRJkgFw2WWXeSHSaA7UWksGzg033NCYb775Gg899FBrSZLMnMw666yNPffcszU3+njiiScazUFF44QTTmgtmfY0B1qNvfbaq3HBBRe0lkwbfv7znzdmm222xu23395aMvq45pprGs1BZGtuZFhnnXUazUFray5Jph37779/4xvf+EbjgQceaKy++uqNFVZYoTFmzJjGO++80/jzn//c+M53vtNYZpllGpdffnnj7bffblxyySWNZ599Nv77yiuvNA455JC4R950002xbOLEiY3TTz+98de//jXmr7322saDDz4Y3wsvvfRS4/zzz2/NTeLNN99sXHnllbHNOrfeemvj4Ycfju8vvPBCY6mllornzdNPP9249NJLYzmee+65xrhx4+Ke9eSTT8Yy/zv11FPj+/3339/45je/2VhzzTUbd999dyxz7Kusskoct+9vvfVW46STToo6sGyttdZq3HzzzbHuUBk7dmz0O9VtJzJQcpIkSZIkSZIkSZIkg4K7EUsZ7kviBXI75aIu7syVV15ZLbfccmF5w/2K5Q3e+973RoBjGd++9KUvxbLZZpstYo+VdOVLLLHEFMGGub23Wz1y71xmmWVim3W4QrG8aYf1DovrguDHyr3YYotV73//+2OZ/22wwQbxnaUhqyHZsUp8MNY+gjA7bt+5t4oFpA4sE0ts0UUXjXWnNinqJEmSJEmSJEmSJEkyZLgeZazAaUvG1EmSJEmSAVJi6oiTIbDeYLjxxhvD1/yCCy4Ydt/rJJmRkEVEzAKxCEYjshJ5+ysmgrS8I8H1118f95wFFligJ5jptECcGW/UvbleeOGFW0tHF4KmCqQqGPZIISvPvffeG9YBSTItESxYhj99GUGFhwPZpcTeYa0jO+hwCUTtgZLr2Kf4PtMrvcfUqar/D4U7MKdQeFBYAAAAAElFTkSuQmCC;" parent="1" vertex="1">
          <mxGeometry y="420" width="845.19" height="220" as="geometry" />
        </mxCell>
        <mxCell id="1JfmofEvbFweEZ4uP-uk-17" value="1st part: Check vendor code with config file (now blank)&lt;div&gt;Verify YYYYMMDD and Number&lt;/div&gt;" style="text;html=1;align=center;verticalAlign=middle;whiteSpace=wrap;rounded=0;" parent="1" vertex="1">
          <mxGeometry x="90" y="290" width="80" height="120" as="geometry" />
        </mxCell>
        <mxCell id="1JfmofEvbFweEZ4uP-uk-18" style="edgeStyle=orthogonalEdgeStyle;rounded=0;orthogonalLoop=1;jettySize=auto;html=1;exitX=0.5;exitY=1;exitDx=0;exitDy=0;entryX=0.154;entryY=0.136;entryDx=0;entryDy=0;entryPerimeter=0;" parent="1" source="1JfmofEvbFweEZ4uP-uk-17" target="1JfmofEvbFweEZ4uP-uk-16" edge="1">
          <mxGeometry relative="1" as="geometry" />
        </mxCell>
        <mxCell id="1JfmofEvbFweEZ4uP-uk-19" value="2nd part:&lt;div&gt;Check vendor code&lt;/div&gt;&lt;div&gt;(config, now blank)&lt;/div&gt;" style="text;html=1;align=center;verticalAlign=middle;whiteSpace=wrap;rounded=0;" parent="1" vertex="1">
          <mxGeometry x="200" y="290" width="60" height="110" as="geometry" />
        </mxCell>
        <mxCell id="1JfmofEvbFweEZ4uP-uk-20" style="edgeStyle=orthogonalEdgeStyle;rounded=0;orthogonalLoop=1;jettySize=auto;html=1;exitX=0.5;exitY=1;exitDx=0;exitDy=0;entryX=0.272;entryY=0.136;entryDx=0;entryDy=0;entryPerimeter=0;" parent="1" source="1JfmofEvbFweEZ4uP-uk-19" target="1JfmofEvbFweEZ4uP-uk-16" edge="1">
          <mxGeometry relative="1" as="geometry" />
        </mxCell>
        <mxCell id="1JfmofEvbFweEZ4uP-uk-21" value="3rd part:&lt;div&gt;Check vendor name, conpare with config file&lt;/div&gt;&lt;div&gt;Now is FOSTER&lt;/div&gt;" style="text;html=1;align=center;verticalAlign=middle;whiteSpace=wrap;rounded=0;" parent="1" vertex="1">
          <mxGeometry x="270" y="275" width="60" height="140" as="geometry" />
        </mxCell>
        <mxCell id="1JfmofEvbFweEZ4uP-uk-22" style="edgeStyle=orthogonalEdgeStyle;rounded=0;orthogonalLoop=1;jettySize=auto;html=1;exitX=0.5;exitY=1;exitDx=0;exitDy=0;entryX=0.355;entryY=0.136;entryDx=0;entryDy=0;entryPerimeter=0;" parent="1" source="1JfmofEvbFweEZ4uP-uk-21" target="1JfmofEvbFweEZ4uP-uk-16" edge="1">
          <mxGeometry relative="1" as="geometry" />
        </mxCell>
        <mxCell id="1JfmofEvbFweEZ4uP-uk-23" value="5th part: Check valid work order on glovia&lt;div&gt;Get decode work order to compare with product&lt;/div&gt;" style="text;html=1;align=center;verticalAlign=middle;whiteSpace=wrap;rounded=0;" parent="1" vertex="1">
          <mxGeometry x="500" y="275" width="70" height="115" as="geometry" />
        </mxCell>
        <mxCell id="1JfmofEvbFweEZ4uP-uk-24" style="edgeStyle=orthogonalEdgeStyle;rounded=0;orthogonalLoop=1;jettySize=auto;html=1;exitX=0.5;exitY=1;exitDx=0;exitDy=0;" parent="1" source="1JfmofEvbFweEZ4uP-uk-23" edge="1">
          <mxGeometry relative="1" as="geometry">
            <mxPoint x="535" y="440" as="targetPoint" />
          </mxGeometry>
        </mxCell>
        <mxCell id="1JfmofEvbFweEZ4uP-uk-26" value="6h part:&lt;div&gt;Check valid date code&lt;/div&gt;" style="text;html=1;align=center;verticalAlign=middle;whiteSpace=wrap;rounded=0;" parent="1" vertex="1">
          <mxGeometry x="590" y="280" width="60" height="110" as="geometry" />
        </mxCell>
        <mxCell id="1JfmofEvbFweEZ4uP-uk-27" value="Text" style="text;html=1;align=center;verticalAlign=middle;whiteSpace=wrap;rounded=0;" parent="1" vertex="1">
          <mxGeometry x="660" y="300" width="60" height="30" as="geometry" />
        </mxCell>
      </root>
    </mxGraphModel>
  </diagram>
</mxfile>
